<svg width="331" height="363" viewBox="0 0 331 363" fill="none" xmlns="http://www.w3.org/2000/svg">
<path d="M319.124 67.592C321.059 69.9175 322.492 72.5957 323.338 75.4676C324.183 78.3396 324.424 81.3468 324.046 84.3106C323.233 90.2934 321.008 96.0144 317.541 101.029C311.21 110.838 299.928 118.472 289.279 123.711C284.041 111.896 288.559 97.6577 291.322 90.5801C295.668 79.4344 310.576 61.6847 319.124 67.6477" fill="#E96D13"/>
<path d="M291.293 145.612C292.144 142.365 293.868 139.394 296.29 137C298.711 134.607 301.744 132.877 305.079 131.986C308.424 131.149 311.907 130.964 315.326 131.442C318.746 131.921 322.032 133.053 324.995 134.773C326.445 135.418 327.729 136.364 328.759 137.544C329.789 138.724 330.538 140.108 330.953 141.6C331.112 143.042 330.867 144.498 330.244 145.817C329.621 147.136 328.643 148.268 327.413 149.095C324.927 150.73 322.036 151.692 319.038 151.882C308.878 152.996 298.891 152.272 291.293 145.612Z" fill="#E96D13"/>
<path d="M263.982 172C264.387 171.306 264.849 170.644 265.363 170.022L269.306 164.783C273.48 158.836 278.633 153.593 284.56 149.263C290.584 144.98 297.676 142.326 305.109 141.572C307.354 141.376 309.615 141.442 311.844 141.767C312.65 141.767 313.225 142.046 313.657 142.129C313.871 142.151 314.077 142.217 314.261 142.324C311.244 141.957 308.196 141.901 305.167 142.157C297.882 143.062 290.951 145.736 285.02 149.931C279.182 154.239 274.041 159.367 269.767 165.145C268.011 167.291 266.601 169.046 265.594 170.217C265.122 170.864 264.582 171.461 263.982 172Z" fill="#263238"/>
<path d="M308.937 81.9414C308.858 82.2777 308.743 82.6047 308.591 82.9167C308.275 83.6133 307.9 84.5328 307.411 85.7031C306.404 88.0995 304.879 91.5268 302.95 95.7343C299.122 104.094 293.654 115.741 287.322 128.391C280.991 141.042 274.947 152.355 270.486 160.491C268.27 164.559 266.428 167.819 265.133 170.077L263.607 172.668C263.46 172.981 263.266 173.272 263.032 173.532C263.138 173.201 263.283 172.883 263.464 172.584C263.809 171.888 264.269 171.024 264.845 169.798C266.082 167.402 267.723 164.225 269.939 160.073C274.285 151.881 280.185 140.568 286.517 127.89C292.848 115.211 298.432 103.703 302.403 95.3442C304.36 91.2481 305.943 87.8766 307.123 85.4523C307.641 84.3378 308.073 83.4461 308.419 82.6659C308.567 82.4089 308.74 82.1663 308.937 81.9414Z" fill="#263238"/>
<path d="M272.558 144.665C274.572 137.882 274.895 130.733 273.499 123.806C272.103 116.878 269.028 110.371 264.528 104.819C262.197 102.032 258.772 99.2458 255.174 100.305C251.577 101.363 250.253 105.487 249.965 109.054C249.532 116.515 251.385 123.933 255.292 130.378C259.199 136.823 264.985 142.006 271.925 145.278" fill="#E96D13"/>
<path d="M261.104 115.378C261.67 115.894 262.181 116.463 262.629 117.078C263.204 117.756 263.742 118.463 264.241 119.196C264.787 120.06 265.536 121.007 266.169 122.149C266.906 123.365 267.569 124.621 268.155 125.911C268.882 127.368 269.516 128.866 270.054 130.397C271.283 133.921 272.104 137.565 272.501 141.264C272.818 144.981 272.692 148.721 272.126 152.41C271.887 154.009 271.541 155.592 271.09 157.147C270.721 158.518 270.27 159.867 269.738 161.187C269.335 162.414 268.759 163.444 268.356 164.392C267.983 165.196 267.56 165.978 267.09 166.732C266.734 167.391 266.33 168.024 265.881 168.627C265.708 168.627 267.435 165.841 269.162 160.992C269.65 159.678 270.063 158.338 270.4 156.98C270.803 155.531 271.062 153.943 271.349 152.299C271.855 148.669 271.952 144.998 271.637 141.348C271.25 137.712 270.468 134.126 269.306 130.648C268.73 129.06 268.183 127.555 267.522 126.19C266.86 124.824 266.227 123.571 265.622 122.428C263.089 117.886 260.96 115.378 261.104 115.378Z" fill="#263238"/>
<path d="M234.396 87.5148L209.299 102.729C177.014 86.3428 139.448 82.6322 104.41 92.3679C69.3714 102.104 39.5555 124.537 21.1588 155.005C2.76215 185.474 -2.8003 221.634 5.62751 255.97C14.0553 290.306 35.8252 320.178 66.4125 339.376C96.9999 358.575 134.052 365.623 169.868 359.057C205.685 352.491 237.51 332.815 258.73 304.119C279.951 275.423 288.933 239.914 283.812 204.971C278.69 170.029 259.858 138.341 231.23 116.494L234.396 87.5148Z" fill="#FAFAFA"/>
<path d="M234.396 87.5138C234.194 89.2414 233.331 97.6843 231.518 116.493V116.27C239.089 122.014 246.032 128.494 252.239 135.608C256.107 140.023 259.673 144.677 262.917 149.54C264.701 152.076 266.14 154.918 267.81 157.732C269.592 160.572 271.179 163.522 272.558 166.565C273.969 169.686 275.436 172.89 276.875 176.15L280.329 186.572L281.221 189.358C281.423 190.278 281.624 191.197 281.854 192.145C282.257 194.011 282.66 195.878 283.092 197.717C283.524 199.556 284.013 201.507 284.272 203.485L284.963 209.421C287.06 227.665 285.394 246.131 280.064 263.747C274.733 281.364 265.843 297.78 253.909 312.045L251.491 315.054L248.613 317.841L243.116 323.414L241.735 324.807L240.209 326.089L237.158 328.652L230.971 333.807L224.207 338.293C221.986 339.894 219.681 341.382 217.3 342.752L209.99 346.708L206.306 348.715C205.04 349.3 203.744 349.801 202.449 350.359L194.621 353.647C193.318 354.228 191.971 354.713 190.592 355.096L186.505 356.35C183.627 357.158 181.037 358.133 178.216 358.774L169.582 360.529C168.172 360.836 166.704 361.142 165.294 361.393L160.919 361.867L152.112 362.814C149.234 362.814 146.184 362.814 143.19 362.981H138.701C137.204 362.981 135.823 362.786 134.24 362.703L125.231 361.978C122.353 361.644 119.274 360.975 116.252 360.501C110.248 359.423 104.318 357.99 98.4944 356.21C95.6164 355.318 92.7383 354.12 89.8603 353.061L85.5144 351.445C84.0754 350.916 82.6364 350.136 81.3413 349.495L72.9949 345.455C70.1169 343.95 67.6705 342.25 64.994 340.662L61.0223 338.21C59.7271 337.374 58.5184 336.371 57.2808 335.423L49.9131 329.934C47.5818 327.9 45.3658 325.782 43.1209 323.72L39.7536 320.627C38.6599 319.596 37.7101 318.398 36.674 317.284L30.6589 310.513C28.7307 308.2 27.1189 305.692 25.3346 303.296C21.8355 298.505 18.6814 293.487 15.8946 288.277C14.4392 285.733 13.1604 283.099 12.0668 280.391C10.8868 277.744 9.64926 275.097 8.5556 272.422L5.87905 264.23L4.52636 260.162C4.15222 258.796 3.92195 257.375 3.60537 256.01L1.79219 247.65C1.24536 244.864 1.07269 242.078 0.727326 239.291L0.23802 235.139L0.00781502 233.05V230.988C0.00781502 228.201 0.00781502 225.415 0.00781502 222.628C-0.0365023 219.891 0.107702 217.154 0.439504 214.436L1.13021 206.328C1.61947 203.68 2.1088 201.033 2.62684 198.414C3.01109 195.777 3.58817 193.17 4.35369 190.612C5.64957 185.518 7.2838 180.511 9.24631 175.621L12.1243 168.404C13.2468 166.091 14.4843 163.834 15.6356 161.549C24.6976 144.223 37.4492 128.952 53.0501 116.743C60.2789 111.206 67.9815 106.275 76.0745 102.003C80.1037 100.136 83.9891 98.1022 88.0183 96.6254C90.0329 95.8731 91.9901 94.9815 94.0047 94.3406L99.991 92.39C126.943 84.2769 155.772 84.0636 182.85 91.777C192.009 94.4707 200.892 97.978 209.385 102.254H209.126L234.396 87.5138L209.443 102.951H209.299C200.808 98.7574 191.935 95.334 182.792 92.7244C155.849 85.1884 127.208 85.5083 100.451 93.644L94.5227 95.5944C92.5369 96.2353 90.5798 97.127 88.594 97.8793C84.5935 99.3561 80.7656 101.39 76.7652 103.257C68.7542 107.512 61.129 112.415 53.9711 117.914C38.4748 130.055 25.828 145.253 16.8731 162.497C15.7219 164.754 14.5131 167.011 13.3907 169.296C12.2683 171.581 11.4912 174.061 10.5127 176.457C8.57472 181.3 6.96917 186.261 5.70637 191.309C4.91553 193.82 4.30011 196.38 3.86438 198.971C3.37511 201.563 2.91463 204.182 2.42536 206.829C1.93609 209.476 1.9649 212.151 1.73466 214.854C1.39883 217.535 1.26412 220.235 1.33169 222.935C1.33169 225.721 1.33169 228.508 1.33169 231.127V233.189L1.56198 235.251L2.02239 239.347C2.39654 242.133 2.54051 244.92 3.08734 247.706C3.63417 250.493 4.29605 253.279 4.90043 255.898C5.21702 257.264 5.47606 258.685 5.82143 260.022L7.17411 264.063C8.03752 266.849 8.92976 269.44 9.82195 272.171C10.7141 274.902 12.1244 277.41 13.3044 280.029C14.3707 282.717 15.6405 285.324 17.1034 287.831C19.8515 292.994 22.9673 297.966 26.4282 302.711C28.2126 305.051 29.7955 307.559 31.7238 309.844L37.6814 316.531C38.6887 317.646 39.6384 318.816 40.7033 319.847L44.0418 322.912C46.2867 324.946 48.474 327.036 50.7764 329.042L58.0867 334.615C59.3242 335.507 60.5043 336.482 61.7994 337.402L65.7423 339.798C68.3901 341.386 70.9515 343.058 73.6281 344.535L81.8881 348.547C83.2352 349.255 84.6185 349.897 86.0325 350.47L90.3208 352.086C93.1988 353.117 96.0769 354.315 98.9549 355.207C104.724 356.959 110.596 358.373 116.54 359.442C119.418 359.916 122.44 360.585 125.404 360.891L134.326 361.616C135.794 361.616 137.204 361.922 138.758 361.895H143.19C146.068 361.895 149.09 361.895 152.026 361.755L160.66 360.836L165.006 360.362L169.265 359.526L177.698 357.798C180.576 357.158 183.195 356.154 185.901 355.374L189.987 354.12C191.354 353.767 192.684 353.291 193.959 352.699L201.701 349.467C202.967 348.938 204.291 348.436 205.529 347.823L209.184 345.872L216.437 341.971C218.854 340.718 220.984 338.99 223.258 337.541L230.079 332.72L236.18 327.621L239.231 325.086L240.727 323.832L242.109 322.439L247.548 316.866L250.254 314.079L252.671 311.098C264.52 296.978 273.363 280.725 278.688 263.278C284.013 245.831 285.715 227.536 283.696 209.448C283.466 207.442 283.236 205.464 283.034 203.513C282.833 201.563 282.229 199.696 281.854 197.801L280.646 192.228L280.041 189.442L279.178 186.655C277.998 183.116 276.875 179.661 275.753 176.29L271.522 166.927C270.165 163.898 268.608 160.957 266.86 158.122C265.191 155.336 263.78 152.549 262.025 149.958C258.823 145.102 255.304 140.448 251.491 136.026C245.346 128.872 238.471 122.338 230.971 116.521V116.381C233.158 97.7121 234.108 89.2692 234.396 87.5138Z" fill="#263238"/>
<path d="M222.97 253.307L226.452 279.833L268.213 245.337L291.093 250.687C291.093 250.687 267.522 298.586 248.901 317.562C230.28 336.538 220.121 339.24 213.213 339.547C203.572 339.965 199.14 328.568 199.14 328.568L194.938 262.613L222.97 253.307Z" fill="#B78876"/>
<path d="M226.28 279.109C224.88 281.116 223.903 283.369 223.402 285.741C222.572 288.028 222.239 290.457 222.423 292.874C223.208 290.62 223.852 288.321 224.352 285.992C225.144 283.739 225.788 281.441 226.28 279.109Z" fill="#995037"/>
<path d="M272.271 178.101H303.728C304.913 178.162 306.069 178.478 307.111 179.026C308.154 179.574 309.057 180.341 309.755 181.27C310.452 182.199 310.927 183.268 311.144 184.397C311.361 185.526 311.315 186.688 311.009 187.798L279.351 247.456C278.752 248.589 277.84 249.54 276.718 250.204C275.596 250.868 274.306 251.219 272.99 251.217H234.626C233.731 251.116 232.875 250.803 232.134 250.305C231.393 249.808 230.789 249.142 230.377 248.365C229.965 247.589 229.756 246.726 229.769 245.853C229.782 244.98 230.017 244.124 230.453 243.36L260.989 184.844C262.026 182.809 263.634 181.096 265.63 179.904C267.625 178.711 269.926 178.087 272.271 178.101Z" fill="#455A64"/>
<path d="M274.4 181.696H305.857C306.758 181.696 307.643 181.92 308.429 182.347C309.215 182.773 309.875 183.387 310.345 184.131C310.816 184.874 311.082 185.722 311.117 186.593C311.153 187.465 310.957 188.33 310.548 189.108L279.667 247.456C279.063 248.591 278.147 249.544 277.019 250.207C275.892 250.871 274.597 251.221 273.278 251.217H235.374C234.837 251.233 234.305 251.114 233.83 250.871C233.355 250.629 232.953 250.271 232.663 249.833C232.373 249.396 232.205 248.893 232.176 248.373C232.147 247.854 232.257 247.336 232.496 246.871L263.003 188.355C264.069 186.324 265.702 184.623 267.717 183.446C269.732 182.269 272.047 181.662 274.4 181.696Z" fill="#263238"/>
<path d="M277.048 206.133L296.187 213.517L300.303 228.452L291.093 250.744L257.132 255.453L267.061 245.645L265.766 237.118C265.766 237.118 256.326 234.332 256.096 232.855C255.866 231.378 257.276 226.78 258.715 226.53C262.582 227.344 266.375 228.462 270.055 229.873C270.055 229.873 258.341 220.901 258.686 219.452C259.032 218.003 260.269 214.325 262.6 213.879C264.932 213.433 283.84 222.071 283.84 222.071L286.92 228.87L289.596 218.031C289.596 218.031 272.904 213.517 277.048 206.133Z" fill="#B78876"/>
<path d="M274.659 241.131C274.659 241.131 275.119 240.49 275.292 239.292C275.5 237.709 275.302 236.102 274.716 234.611C274.165 233.112 273.235 231.771 272.011 230.71C271.061 229.902 270.342 229.623 270.284 229.707C271.717 231.274 272.901 233.04 273.795 234.945C274.408 236.952 274.699 239.038 274.659 241.131Z" fill="#995037"/>
<path d="M283.755 237.983C283.396 236.383 283.137 234.764 282.978 233.134C282.903 231.31 282.583 229.502 282.028 227.757C281.637 226.725 281.041 225.778 280.272 224.97C279.377 224.124 278.308 223.469 277.135 223.048C272.559 221.459 268.501 220.261 265.421 219.202C263.821 218.605 262.163 218.166 260.471 217.893C261.979 218.682 263.559 219.335 265.191 219.843C268.069 220.958 272.271 222.379 276.703 223.939C277.772 224.298 278.752 224.867 279.581 225.611C280.285 226.341 280.824 227.204 281.164 228.147C281.743 229.817 282.12 231.547 282.287 233.302C282.351 234.958 282.857 236.571 283.755 237.983Z" fill="#995037"/>
<path d="M288.129 234.554C288.416 234.554 288.359 232.882 288.129 230.904C288.062 229.665 287.687 228.461 287.035 227.393C286.777 229.842 287.195 232.312 288.244 234.554H288.129Z" fill="#995037"/>
<path d="M284.646 196.826C286.855 196.826 288.646 195.092 288.646 192.953C288.646 190.814 286.855 189.08 284.646 189.08C282.437 189.08 280.646 190.814 280.646 192.953C280.646 195.092 282.437 196.826 284.646 196.826Z" fill="#FAFAFA"/>
<path d="M171.165 35.9372C181.756 63.8016 193.498 93.3657 218.163 111.171C214.941 111.922 211.544 111.453 208.666 109.861C214.455 118.028 219.037 126.938 222.279 136.333C225.157 145.862 224.783 156.646 219.257 164.949C218.595 163.891 217.933 162.832 217.3 161.773C220.144 172.03 219.524 182.898 215.532 192.79C211.54 202.681 204.384 211.077 195.11 216.749C187.023 221.486 176.201 223.771 168.258 218.783C162.214 214.994 159.365 208.028 156.89 201.507L108.366 74.4458C103.847 62.6592 99.2713 50.1481 101.516 37.7484C102.822 30.6992 106.257 24.1829 111.386 19.023C116.516 13.8631 123.11 10.291 130.336 8.75829C137.561 7.22556 145.094 7.80088 151.982 10.4116C158.87 13.0223 164.805 17.5513 169.035 23.4261" fill="#263238"/>
<path d="M199.399 192.005C199.399 192.005 199.715 191.754 200.205 191.225C200.937 190.439 201.619 189.611 202.248 188.745C204.51 185.518 206.176 181.936 207.17 178.156C208.596 172.553 208.918 166.739 208.119 161.02C207.067 154.032 205.003 147.222 201.989 140.79C198.91 133.936 195.456 127.638 192.492 121.87C189.817 116.782 187.434 111.554 185.354 106.211C183.985 102.581 182.907 98.8549 182.131 95.0648C181.613 92.2784 181.44 90.8573 181.354 90.8852C181.322 91.2467 181.322 91.6103 181.354 91.9719C181.354 92.6964 181.526 93.7553 181.728 95.1206C182.361 98.9077 183.324 102.636 184.606 106.266C186.61 111.663 188.946 116.938 191.599 122.065C194.477 127.889 197.96 134.159 201.011 140.985C203.979 147.347 206.051 154.067 207.17 160.964C207.975 166.601 207.712 172.333 206.392 177.878C205.468 181.611 203.912 185.17 201.788 188.411C200.435 190.835 199.312 191.949 199.399 192.005Z" fill="#455A64"/>
<path d="M138.845 20.1936C149.337 20.6719 159.239 25.0323 166.506 32.3745C173.774 39.7167 177.852 49.4802 177.9 59.6496C177.9 76.0338 177.669 93.867 176.576 104.455C174.072 129.06 154.962 133.267 154.962 133.267C154.962 133.267 155.566 148.565 156.429 163.054C157.235 176.987 145.522 189.024 130.268 190.222C115.158 191.392 102.207 181.361 101.171 167.708L95.9617 61.6558C95.6912 56.1462 96.6118 50.6427 98.6646 45.4974C100.717 40.3521 103.857 35.6785 107.883 31.7756C111.909 27.8727 116.732 24.8266 122.043 22.8322C127.355 20.8378 133.038 19.9391 138.729 20.1936H138.845Z" fill="#B78876"/>
<path d="M168.863 69.3467C168.92 70.1556 168.653 70.9546 168.116 71.5775C167.58 72.2004 166.817 72.599 165.985 72.6904C165.574 72.7449 165.156 72.7193 164.755 72.615C164.355 72.5108 163.98 72.33 163.653 72.0833C163.325 71.8366 163.053 71.529 162.85 71.1787C162.647 70.8283 162.519 70.4423 162.473 70.0433C162.417 69.2374 162.685 68.4417 163.222 67.8233C163.758 67.2049 164.522 66.8121 165.351 66.7274C165.761 66.6688 166.178 66.6906 166.578 66.7915C166.979 66.8925 167.354 67.0706 167.682 67.315C168.009 67.5595 168.283 67.8654 168.486 68.2144C168.689 68.5635 168.817 68.9486 168.863 69.3467Z" fill="#263238"/>
<path d="M172.028 65.6682C171.654 66.0861 169.15 64.4978 165.61 64.6929C162.07 64.8879 159.71 66.727 159.307 66.3369C158.904 65.9468 159.48 65.4174 160.516 64.5536C161.965 63.4679 163.722 62.836 165.552 62.7423C167.357 62.64 169.148 63.0884 170.675 64.0242C171.798 64.7486 172.201 65.4731 172.028 65.6682Z" fill="#263238"/>
<path d="M132.685 72.3552C132.742 73.161 132.473 73.9568 131.937 74.5752C131.4 75.1936 130.637 75.5864 129.807 75.6711C129.398 75.7257 128.982 75.7011 128.584 75.5985C128.185 75.496 127.811 75.3177 127.484 75.0739C127.157 74.8301 126.884 74.5257 126.68 74.1785C126.476 73.8314 126.345 73.4484 126.296 73.0518C126.238 72.2429 126.506 71.4438 127.042 70.821C127.578 70.1981 128.342 69.7994 129.174 69.708C129.585 69.6535 130.003 69.6792 130.403 69.7835C130.803 69.8877 131.178 70.0685 131.506 70.3152C131.833 70.5619 132.106 70.8694 132.308 71.2198C132.511 71.5702 132.639 71.9562 132.685 72.3552Z" fill="#263238"/>
<path d="M135.852 68.9843C135.478 69.4022 132.974 67.7861 129.434 68.009C125.894 68.2319 123.534 70.0431 123.131 69.653C122.728 69.2629 123.275 68.7057 124.34 67.8697C125.792 66.7848 127.546 66.1444 129.376 66.0307C131.186 65.9169 132.984 66.3766 134.499 67.3403C135.622 68.009 136.025 68.7892 135.852 68.9843Z" fill="#263238"/>
<path d="M149.982 93.0875C151.779 92.427 153.655 91.9871 155.565 91.7779C156.458 91.6386 157.263 91.4157 157.379 90.8305C157.401 89.9314 157.14 89.0469 156.63 88.2949L153.522 81.9418C150.761 76.5537 148.441 70.9636 146.586 65.2231C149.8 70.3959 152.582 75.8096 154.904 81.4124L157.782 87.849C158.413 88.8495 158.657 90.0342 158.472 91.1928C158.365 91.5041 158.184 91.787 157.944 92.0192C157.705 92.2513 157.412 92.4262 157.091 92.5302C156.609 92.6984 156.105 92.8016 155.594 92.8368C153.742 93.1511 151.856 93.2354 149.982 93.0875Z" fill="#263238"/>
<path d="M155.077 133.406C143.103 133.906 131.201 131.38 120.541 126.078C120.541 126.078 129.923 143.605 155.25 140.428L155.077 133.406Z" fill="#995037"/>
<path d="M124.368 59.6498C124.8 60.2349 127.246 59.2039 130.469 58.563C133.693 57.9221 136.369 57.6992 136.484 57.0026C136.599 56.306 133.606 55.2751 129.894 56.0831C126.181 56.8912 123.936 59.0925 124.368 59.6498Z" fill="#263238"/>
<path d="M158.789 53.5475C158.962 54.2441 161.811 54.1605 165.236 54.2162C168.661 54.2719 171.481 54.4113 171.683 53.7147C171.884 53.0181 169.064 51.7085 165.265 51.6806C161.466 51.6528 158.617 52.9066 158.789 53.5475Z" fill="#263238"/>
<path d="M60.2168 169.714C60.2168 169.714 69.1675 152.521 63.5841 137.085C58.0007 121.648 60.1305 110.056 68.189 103.982C73.9451 99.7184 74.5207 92.6965 73.9451 87.1237C72.9322 77.8007 73.145 68.3911 74.5783 59.12C76.8232 45.7729 80.8524 31.59 89.1412 21.1129C99.9051 7.45939 119.389 -4.96813 135.564 1.99796C143.076 5.23023 146.903 5.03521 154.761 11.862C154.761 11.862 161.984 12.3078 165.783 12.893C178.936 14.8713 187.455 28.4413 188.98 38.3889C192.549 61.4327 179.425 67.9808 178.073 83.6406C178.073 83.6406 175.713 51.0114 172.748 42.6521C170.32 36.5378 165.745 31.4472 159.826 28.2741C150.098 29.1658 146.414 34.7387 143.277 43.6553C140.14 52.5719 138.413 59.6773 130.7 65.4731C123.419 71.0459 118.181 80.0741 104.798 75.4486C102.357 80.2572 101.426 85.6534 102.121 90.969C103.56 98.9103 112.655 101.112 110.352 114.57C108.05 128.029 99.5596 139.063 99.7899 144.106" fill="#263238"/>
<path d="M145.809 101.223C145.204 100.6 144.446 100.136 143.606 99.8725C142.765 99.6094 141.87 99.5563 141.003 99.7181C140.372 99.8151 139.769 100.036 139.229 100.366C138.69 100.697 138.226 101.13 137.866 101.641C137.492 102.123 137.29 102.71 137.29 103.313C137.29 103.916 137.492 104.502 137.866 104.984C138.37 105.45 139.006 105.759 139.693 105.873C140.38 105.987 141.086 105.901 141.722 105.625C143.046 105.061 144.24 104.246 145.233 103.229C145.536 102.988 145.79 102.695 145.982 102.365C146.087 102.207 146.143 102.024 146.143 101.836C146.143 101.648 146.087 101.464 145.982 101.306" fill="#995037"/>
<path d="M138.183 96.96C138.644 96.96 138.874 99.9414 141.723 101.892C144.572 103.842 147.853 103.257 147.911 103.703C147.968 104.149 147.22 104.344 145.81 104.483C143.984 104.635 142.161 104.162 140.658 103.146C139.176 102.178 138.143 100.688 137.78 98.994C137.665 97.7401 137.953 96.96 138.183 96.96Z" fill="#263238"/>
<path d="M87.327 23.5654C82.5457 31.1058 77.1464 38.2621 71.1813 44.9653C64.792 51.7921 58.4315 59.5941 57.971 68.7893C57.6544 75.4768 60.5037 82.4986 57.7696 88.6567C55.4096 93.8952 49.7111 96.793 45.4516 100.722C41.7266 104.25 39.0464 108.68 37.6899 113.551C36.3333 118.422 36.3501 123.556 37.7383 128.419C39.5803 134.577 43.6671 140.624 42.2281 146.893C40.9617 152.466 35.7237 156.284 34.1408 161.689C32.5579 167.095 34.6301 172.278 37.0188 177.098C40.6452 184.454 46.0271 192.061 54.2871 193.817C57.11 194.318 60.011 194.229 62.7955 193.556C65.5801 192.883 68.184 191.642 70.433 189.916C74.9267 186.46 78.598 182.108 81.1968 177.154C86.5488 167.79 89.8596 157.462 90.9246 146.81C92.1622 134.076 90.1763 121.314 88.8812 108.608C86.5356 85.3124 86.5356 61.8516 88.8812 38.5564C89.428 32.9836 91.7592 27.4107 87.3846 23.5654" fill="#263238"/>
<path d="M110.351 79.1554C110.351 77.5393 105.919 74.5578 104.25 74.5856C100.393 74.5856 94.1479 76.4248 94.0616 86.7625C93.9177 101.531 108.452 97.2116 108.452 96.7658C109.562 90.9531 110.197 85.0647 110.351 79.1554Z" fill="#B78876"/>
<path d="M104.884 91.1089C104.884 91.1089 104.625 91.2761 104.164 91.4711C103.85 91.5991 103.512 91.665 103.171 91.665C102.83 91.665 102.493 91.5991 102.178 91.4711C101.218 90.8451 100.447 89.9844 99.9411 88.9763C99.4356 87.9682 99.2146 86.8485 99.3003 85.731C99.2787 84.4647 99.5439 83.2093 100.077 82.053C100.232 81.598 100.495 81.1846 100.845 80.8459C101.195 80.5072 101.622 80.2525 102.092 80.1024C102.402 80.0328 102.726 80.0665 103.014 80.198C103.301 80.3295 103.534 80.5511 103.675 80.8269C103.848 81.2449 103.675 81.5235 103.848 81.5513C104.02 81.5792 104.164 81.3285 104.049 80.7154C103.971 80.3466 103.768 80.0134 103.473 79.7681C103.052 79.465 102.528 79.3258 102.006 79.3779C101.366 79.4826 100.765 79.7453 100.261 80.1407C99.7565 80.5361 99.3663 81.0508 99.1277 81.635C98.4545 82.9103 98.1183 84.3271 98.1491 85.7589C98.0645 87.0734 98.3825 88.3828 99.0635 89.5229C99.7444 90.663 100.758 91.5831 101.977 92.1678C102.383 92.283 102.81 92.3103 103.227 92.2477C103.645 92.1851 104.044 92.0341 104.394 91.8055C104.855 91.4711 104.941 91.1368 104.884 91.1089Z" fill="#995037"/>
<path d="M182.908 73.4142C182.716 72.575 182.446 71.7543 182.102 70.9621C181.491 68.6866 181.172 66.347 181.152 63.996C181.219 60.5028 181.556 57.0193 182.159 53.5747C182.921 49.3152 183.268 44.9958 183.195 40.6735C183.065 38.4177 182.629 36.1882 181.9 34.0418C181.174 32.0204 180.093 30.1352 178.706 28.4689C176.357 25.6948 173.316 23.5466 169.87 22.2273C167.574 21.3335 165.121 20.8793 162.646 20.8898C161.977 20.818 161.301 20.818 160.632 20.8898C160.395 20.8953 160.161 20.9425 159.941 21.0291C159.941 21.0291 160.919 21.0291 162.617 21.0291C165.613 21.1887 168.539 21.9617 171.203 23.297C173.868 24.6323 176.209 26.4995 178.073 28.7754C179.369 30.3702 180.39 32.1582 181.094 34.0697C181.795 36.1528 182.201 38.3179 182.303 40.5063C182.382 44.7792 182.064 49.0503 181.354 53.2682C180.789 56.752 180.519 60.2746 180.548 63.8009C180.603 66.1876 181.02 68.5535 181.785 70.8228C182.022 71.4303 182.291 72.0255 182.591 72.6061C182.764 73.247 182.879 73.5814 182.908 73.4142Z" fill="#455A64"/>
<path d="M95.9613 95.8739C95.9613 95.8739 95.5009 96.264 94.9828 97.1278C94.2253 98.3972 93.8373 99.8417 93.8603 101.308C93.9185 102.423 94.2488 103.51 94.824 104.479C95.3993 105.447 96.2033 106.27 97.1702 106.88C98.3091 107.666 99.6345 108.159 101.023 108.315C102.412 108.471 103.819 108.284 105.113 107.772C106.393 107.211 107.498 106.334 108.316 105.228C109.135 104.123 109.638 102.828 109.776 101.475C109.892 100.286 109.663 99.089 109.114 98.0194C108.635 97.101 107.958 96.2933 107.128 95.651C105.954 94.72 104.5 94.1823 102.984 94.1184C102.43 94.0583 101.87 94.1551 101.372 94.3971C101.372 94.3971 101.948 94.3971 102.955 94.3971C104.36 94.5756 105.68 95.147 106.754 96.0411C107.54 96.6831 108.152 97.5006 108.538 98.423C108.924 99.3454 109.072 100.345 108.97 101.335C108.814 102.532 108.346 103.672 107.611 104.646C106.877 105.621 105.898 106.399 104.768 106.908C103.599 107.358 102.334 107.522 101.084 107.386C99.8343 107.25 98.6382 106.818 97.6018 106.128C96.7348 105.595 96.0027 104.88 95.4597 104.036C94.9166 103.192 94.5766 102.24 94.4648 101.252C94.4001 99.8773 94.6867 98.5086 95.2994 97.2671C95.7311 96.2361 95.9613 95.8739 95.9613 95.8739Z" fill="#E96D13"/>
<path d="M58.2886 87.5139C58.2928 87.0774 58.3705 86.6445 58.5188 86.2322C58.9162 85.0553 59.4269 83.9172 60.0441 82.8327C62.444 78.8809 65.7288 75.5006 69.6568 72.9408C72.3832 71.1236 75.4874 69.9062 78.7514 69.3742C82.4354 68.827 86.1679 68.6495 89.8895 68.8447C93.9263 69.0896 97.9764 69.0431 102.006 68.7054C106.243 68.1795 110.299 66.7211 113.864 64.4422C117.384 61.9745 120.748 59.304 123.937 56.4451C127.151 54.0573 130.051 51.2967 132.571 48.2251C137.377 42.2342 141.953 37.0793 145.465 32.5653C148.316 29.0513 150.876 25.3244 153.12 21.4196C154.674 18.6331 155.25 16.9334 155.394 16.9891C155.341 17.4179 155.235 17.8389 155.077 18.243C154.818 19.0511 154.329 20.1935 153.667 21.6703C151.592 25.7258 149.135 29.5874 146.328 33.2062C142.874 37.8874 138.356 43.098 133.665 49.0889C131.16 52.256 128.26 55.1106 125.03 57.5876C121.814 60.5041 118.411 63.2216 114.842 65.7239C111.076 68.1133 106.792 69.6294 102.323 70.1544C98.2232 70.4735 94.104 70.4735 90.0046 70.1544C86.3646 69.9121 82.7084 70.0429 79.0969 70.5445C76.0088 70.996 73.0612 72.0995 70.4627 73.7768C66.5902 76.1848 63.2853 79.3559 60.7636 83.0835C59.832 84.5021 59.005 85.9826 58.2886 87.5139Z" fill="#455A64"/>
<path d="M140.313 189.079C145.781 172.779 159.221 156.172 173.986 162.162C190.391 168.822 194.967 177.265 203.975 190.361C212.983 203.457 218.365 218.421 223.92 233.217C226.05 239.012 237.159 265.567 233.878 270.861C231 275.403 203.169 309.454 197.874 310.819C184.203 314.33 183.483 265.261 169.525 267.768C163.941 268.772 157.811 269.607 152.89 266.905C146.616 263.477 144.716 255.759 143.392 248.904C138.826 224.904 134.24 200.829 129.635 176.68" fill="#E96D13"/>
<path d="M155.394 155.643L176.979 164.671C187.915 173.03 190.995 187.241 190.621 200.672L198.881 312.129L199.6 350.666C199.6 350.666 135.996 384.103 64.9367 340.802L76.7654 310.429L55.2377 237.982C53.6836 227.421 52.7338 205.492 55.5831 195.099C62.8933 168.405 82.464 160.435 102.524 155.085C102.524 155.085 122.67 171.386 142.212 167.959C142.212 167.931 154.156 166.844 155.394 155.643Z" fill="#E96D13"/>
<g opacity="0.2">
<path d="M185.181 276.992L147.766 329.461C142.902 336.287 137.837 343.393 130.498 347.767C125.174 350.96 119.024 352.623 112.762 352.564C106.501 352.505 100.385 350.726 95.1267 347.433C84.7658 340.718 75.556 322.717 77.8584 310.847C78.1175 309.426 83.039 312.017 83.039 312.017C83.8935 311.279 84.9399 310.779 86.0656 310.573C87.1914 310.367 88.354 310.462 89.4282 310.847C91.5671 311.634 93.6203 312.623 95.5584 313.801C107.272 319.819 122.18 316.587 133.203 309.398C144.226 302.209 152.313 291.621 160.746 281.673C163.558 277.74 167.403 274.604 171.884 272.589C176.489 270.945 182.619 272.283 184.576 276.658" fill="black"/>
</g>
<path d="M120.685 265.846L123.966 278.134L189.556 231.851L209.703 204.21C212.386 200.505 216.452 197.957 221.042 197.104C223.442 196.63 225.917 196.633 228.316 197.112C230.716 197.591 232.99 198.536 235.001 199.891L253.679 212.736C253.679 212.736 253.161 222.489 248.642 220.538C244.124 218.588 235.001 213.711 235.001 213.711L232.497 237.09L221.387 244.892L210.278 253.251L136.255 324.5C132.547 328.056 128.021 330.712 123.049 332.25C118.077 333.788 112.8 334.165 107.649 333.35C102.498 332.534 97.6189 330.55 93.4118 327.559C89.2046 324.568 85.7885 320.655 83.4429 316.141L72.4487 285.964L120.685 265.846Z" fill="#B78876"/>
<path d="M125.605 276.435C125.605 276.435 124.339 276.713 122.871 278.079C120.984 279.884 119.649 282.16 119.015 284.655C118.412 287.098 118.179 289.614 118.324 292.122C118.267 293.166 118.393 294.212 118.698 295.215C118.958 294.214 119.065 293.181 119.015 292.15C119.082 289.709 119.41 287.281 119.993 284.905C120.586 282.562 121.74 280.386 123.36 278.552C124.742 277.159 125.692 276.574 125.605 276.435Z" fill="#995037"/>
<path d="M235.057 215.078C235.057 215.078 234.855 214.27 234.078 213.183C233.062 211.71 231.606 210.572 229.905 209.923C229.014 209.623 228.057 209.558 227.131 209.735C226.206 209.911 225.345 210.322 224.638 210.926C223.544 211.929 223.602 212.904 223.688 212.876C223.775 212.848 224.062 212.124 225.07 211.427C225.729 211.006 226.477 210.735 227.26 210.634C228.042 210.533 228.838 210.604 229.588 210.842C231.12 211.441 232.475 212.398 233.531 213.629C234.423 214.548 234.941 215.161 235.057 215.078Z" fill="#995037"/>
<path d="M223.315 221.263C223.315 221.263 223.948 220.929 224.84 220.455C225.984 219.809 227.286 219.472 228.611 219.48C229.935 219.495 231.234 219.84 232.381 220.483C233.273 220.956 233.762 221.402 233.877 221.319C233.993 221.235 233.647 220.622 232.755 219.925C231.58 219.01 230.118 218.509 228.611 218.504C227.098 218.506 225.629 218.996 224.437 219.898C223.545 220.622 223.229 221.263 223.315 221.263Z" fill="#995037"/>
<path d="M95.1562 156.535C80.4206 162.498 65.0518 168.879 54.8636 180.805C44.6753 192.731 40.8763 209.366 41.6246 225.053C42.3728 240.741 42.2865 255.425 46.9778 270.472C48.7909 276.352 52.7338 290.702 55.9572 297.194C59.7563 304.55 77.6288 312.38 86.2054 312.185C100.337 311.851 107.1 286.076 119.85 280.141C124.973 277.773 132.916 267.379 135.219 262.364C138.097 256.011 129.462 243.973 126.325 237.704L93.2566 171.693" fill="#E96D13"/>
<path d="M122.468 278.44C122.534 278.022 122.67 277.617 122.871 277.242C123.344 276.159 123.645 275.013 123.763 273.843C123.799 272.951 123.638 272.062 123.291 271.236C122.943 270.409 122.417 269.664 121.749 269.05C120.808 268.296 119.703 267.758 118.516 267.478C117.329 267.198 116.092 267.183 114.899 267.434H114.352V266.876C113.534 261.752 111.738 256.82 109.056 252.331C105.869 246.947 101.448 242.343 96.1341 238.873C90.2512 235.231 83.7388 232.644 76.9088 231.238C71.3115 230.009 65.6251 229.199 59.8995 228.814C55.0069 228.479 51.0352 228.535 48.3874 228.563C46.9604 228.678 45.5261 228.678 44.0991 228.563C45.4957 228.233 46.9223 228.037 48.3586 227.978C52.245 227.667 56.1482 227.601 60.0434 227.783C65.8514 228.01 71.6286 228.718 77.3117 229.9C84.3433 231.267 91.0492 233.895 97.0839 237.647C102.58 241.221 107.134 245.993 110.38 251.579C113.118 256.224 114.879 261.347 115.561 266.654L114.928 266.18C116.282 265.938 117.675 265.998 119.001 266.356C120.328 266.713 121.553 267.358 122.583 268.242C123.32 268.971 123.883 269.848 124.231 270.811C124.579 271.774 124.704 272.8 124.598 273.815C124.4 275.037 123.981 276.216 123.36 277.298C122.756 278.106 122.526 278.468 122.468 278.44Z" fill="#263238"/>
<path d="M90.9253 289.531C97.2828 280.442 105.686 272.868 115.504 267.378C115.763 267.741 109.748 272.06 102.927 278.162C96.1058 284.264 91.2707 289.781 90.9253 289.531Z" fill="#263238"/>
<g opacity="0.3">
<path d="M114.813 266.459C108.874 268.564 103.258 271.442 98.1206 275.013C92.9396 278.639 89.3791 284.039 88.1626 290.116L93.6021 285.267C100.679 278.704 108.25 272.659 116.252 267.183" fill="black"/>
</g>
<path d="M190.937 229.623C190.934 227.786 191.275 225.964 191.944 224.245C193.31 220.047 195.073 215.98 197.211 212.097C202.104 202.957 207.63 196.437 208.033 196.771C207.2 198.401 206.237 199.966 205.155 201.452C203.341 204.239 200.953 208.279 198.506 212.765C196.434 216.607 194.57 220.55 192.923 224.58C192.415 226.314 191.751 228.002 190.937 229.623Z" fill="#263238"/>
<path d="M199.571 341.804C199.288 340.833 199.143 339.83 199.139 338.822C198.937 336.872 198.736 334.085 198.563 330.63C198.189 323.692 197.901 314.134 197.844 303.574C197.786 293.013 197.844 283.428 198.189 276.517C198.189 273.034 198.419 270.248 198.563 268.325C198.534 267.312 198.65 266.299 198.909 265.316C199.119 266.305 199.196 267.317 199.139 268.325C199.139 270.582 199.139 273.313 199.139 276.517C199.139 283.79 199.139 293.236 199.139 303.574C199.139 313.911 199.34 323.33 199.398 330.602C199.398 333.807 199.398 336.537 199.398 338.794C199.589 339.786 199.647 340.798 199.571 341.804Z" fill="#263238"/>
<path d="M173.266 221.988C172.538 219.604 171.98 217.174 171.597 214.716C171.042 212.281 170.647 209.815 170.417 207.332C171.164 209.713 171.731 212.143 172.115 214.604C172.67 217.038 173.055 219.505 173.266 221.988Z" fill="#EBEBEB"/>
<path d="M177.929 212.124C176.104 213.09 174.173 213.857 172.173 214.408C170.244 215.115 168.249 215.638 166.215 215.969C168.09 215.179 170.012 214.5 171.971 213.935C173.915 213.207 175.905 212.602 177.929 212.124Z" fill="#EBEBEB"/>
<path d="M169.322 220.232C169.891 218.265 170.623 216.345 171.51 214.492C172.222 212.563 173.108 210.698 174.157 208.919C173.607 210.888 172.885 212.808 171.999 214.659C171.27 216.586 170.375 218.451 169.322 220.232Z" fill="#EBEBEB"/>
<path d="M177.871 218.866C174.028 216.533 170.363 213.935 166.905 211.092C168.921 212.169 170.846 213.399 172.661 214.77C174.51 215.996 176.252 217.366 177.871 218.866Z" fill="#EBEBEB"/>
<path d="M190.362 307.643C189.631 305.257 189.064 302.828 188.664 300.37C188.109 297.937 187.724 295.469 187.513 292.986C188.241 295.37 188.799 297.8 189.182 300.258C189.756 302.69 190.151 305.157 190.362 307.643Z" fill="#EBEBEB"/>
<path d="M194.996 297.891C191.346 299.643 187.476 300.927 183.483 301.708C185.357 300.924 187.28 300.254 189.239 299.702C191.116 298.979 193.039 298.374 194.996 297.891Z" fill="#EBEBEB"/>
<path d="M186.418 305.998C186.968 304.029 187.691 302.109 188.577 300.258C189.303 298.335 190.189 296.471 191.224 294.686C190.674 296.655 189.952 298.575 189.066 300.426C188.339 302.349 187.454 304.213 186.418 305.998Z" fill="#EBEBEB"/>
<path d="M194.938 304.605C192.973 303.519 191.097 302.289 189.325 300.927C187.431 299.715 185.649 298.344 184.001 296.831C186.011 297.928 187.935 299.167 189.757 300.537C191.583 301.77 193.315 303.13 194.938 304.605Z" fill="#EBEBEB"/>
<path d="M214.883 273.871C214.142 271.479 213.575 269.039 213.184 266.571C212.627 264.138 212.243 261.67 212.033 259.187C212.747 261.584 213.305 264.022 213.703 266.487C214.243 268.924 214.637 271.39 214.883 273.871Z" fill="#EBEBEB"/>
<path d="M219.516 264.007C217.684 264.96 215.755 265.726 213.76 266.292C211.839 267.017 209.841 267.531 207.802 267.825C209.677 267.035 211.599 266.356 213.558 265.791C215.499 265.063 217.49 264.468 219.516 264.007Z" fill="#EBEBEB"/>
<path d="M210.911 272.088C212.211 268.208 213.828 264.435 215.746 260.803C215.201 262.774 214.479 264.694 213.588 266.543C212.858 268.461 211.962 270.316 210.911 272.088Z" fill="#EBEBEB"/>
<path d="M219.459 270.723C217.443 269.646 215.518 268.416 213.703 267.045C211.866 265.844 210.125 264.512 208.494 263.06C210.51 264.137 212.434 265.367 214.25 266.738C216.086 267.939 217.828 269.271 219.459 270.723Z" fill="#EBEBEB"/>
<path d="M181.036 189.86C180.306 187.467 179.748 185.027 179.367 182.559C178.811 180.134 178.417 177.677 178.187 175.203C178.918 177.589 179.485 180.018 179.885 182.476C180.442 184.909 180.827 187.376 181.036 189.86Z" fill="#EBEBEB"/>
<path d="M185.699 179.997C183.867 180.949 181.938 181.715 179.943 182.281C178.021 183.003 176.023 183.517 173.985 183.814C177.81 182.375 181.7 181.101 185.641 179.997H185.699Z" fill="#EBEBEB"/>
<path d="M177.094 188.105C177.698 186.094 178.478 184.136 179.425 182.254C180.137 180.324 181.023 178.46 182.073 176.681C181.522 178.65 180.8 180.57 179.914 182.421C179.13 184.384 178.187 186.285 177.094 188.105Z" fill="#EBEBEB"/>
<path d="M185.642 186.71C183.626 185.633 181.701 184.403 179.885 183.032C178.005 181.801 176.225 180.431 174.561 178.936C176.577 180.013 178.502 181.243 180.317 182.614C182.198 183.846 183.978 185.215 185.642 186.71Z" fill="#EBEBEB"/>
<path d="M148.255 249.992C147.525 247.599 146.967 245.159 146.586 242.691C146.013 240.269 145.618 237.811 145.406 235.335C146.136 237.72 146.704 240.15 147.104 242.608C147.661 245.041 148.046 247.508 148.255 249.992Z" fill="#EBEBEB"/>
<path d="M152.918 240.128C151.083 241.074 149.155 241.84 147.162 242.413C145.24 243.134 143.242 243.648 141.204 243.945C143.076 243.15 144.999 242.471 146.96 241.911C148.905 241.195 150.895 240.6 152.918 240.128Z" fill="#EBEBEB"/>
<path d="M144.312 248.208C145.592 244.366 147.21 240.637 149.148 237.062C148.579 239.03 147.847 240.949 146.96 242.803C146.237 244.674 145.351 246.482 144.312 248.208Z" fill="#EBEBEB"/>
<path d="M152.86 246.842C150.844 245.765 148.92 244.535 147.104 243.164C145.224 241.932 143.444 240.563 141.78 239.068C143.791 240.153 145.715 241.382 147.536 242.746C149.416 243.977 151.196 245.347 152.86 246.842Z" fill="#EBEBEB"/>
<path d="M153.522 329.405C152.794 327.021 152.236 324.591 151.853 322.132C151.279 319.701 150.884 317.233 150.673 314.748C151.405 317.142 151.973 319.581 152.371 322.049C152.925 324.473 153.309 326.93 153.522 329.405Z" fill="#EBEBEB"/>
<path d="M158.242 319.542C156.418 320.508 154.487 321.275 152.486 321.826C150.568 322.564 148.569 323.087 146.529 323.387C148.401 322.591 150.324 321.912 152.285 321.353C154.234 320.641 156.223 320.036 158.242 319.542Z" fill="#EBEBEB"/>
<path d="M149.637 327.65C150.936 323.77 152.553 319.996 154.472 316.365C153.903 318.332 153.171 320.251 152.285 322.105C151.571 324.024 150.685 325.88 149.637 327.65Z" fill="#EBEBEB"/>
<path d="M158.185 326.284C156.17 325.207 154.245 323.977 152.429 322.606C150.549 321.375 148.769 320.005 147.105 318.51C149.121 319.587 151.046 320.817 152.861 322.188C154.741 323.42 156.521 324.789 158.185 326.284Z" fill="#EBEBEB"/>
<path d="M181.814 349.021C181.083 346.636 180.516 344.207 180.116 341.749C179.558 339.316 179.174 336.849 178.964 334.365C179.695 336.758 180.253 339.197 180.634 341.665C181.19 344.09 181.584 346.547 181.814 349.021Z" fill="#EBEBEB"/>
<path d="M186.448 339.157C184.623 340.123 182.692 340.89 180.692 341.442C178.764 342.151 176.769 342.674 174.734 343.002C176.609 342.212 178.531 341.533 180.49 340.968C182.439 340.256 184.428 339.651 186.448 339.157Z" fill="#EBEBEB"/>
<path d="M177.843 347.266C178.427 345.303 179.158 343.385 180.03 341.526C180.757 339.602 181.642 337.738 182.678 335.953C182.127 337.922 181.405 339.842 180.519 341.693C179.791 343.62 178.895 345.484 177.843 347.266Z" fill="#EBEBEB"/>
<path d="M186.39 345.901C184.379 344.816 182.455 343.586 180.633 342.223C178.753 340.991 176.973 339.622 175.309 338.126C177.325 339.204 179.25 340.434 181.065 341.805C182.946 343.036 184.726 344.405 186.39 345.901Z" fill="#EBEBEB"/>
<path d="M127.62 359.331C126.871 356.941 126.303 354.501 125.922 352.031C125.365 349.597 124.98 347.13 124.771 344.646C125.476 347.046 126.034 349.483 126.44 351.947C126.997 354.381 127.391 356.848 127.62 359.331Z" fill="#EBEBEB"/>
<path d="M132.369 349.44C130.538 350.393 128.609 351.158 126.613 351.725C124.693 352.45 122.695 352.964 120.656 353.257C124.434 351.822 128.275 350.549 132.168 349.44H132.369Z" fill="#EBEBEB"/>
<path d="M123.764 357.548C124.349 355.586 125.08 353.667 125.952 351.808C126.68 349.885 127.565 348.022 128.599 346.235C128.051 348.196 127.329 350.107 126.441 351.947C125.714 353.884 124.818 355.758 123.764 357.548Z" fill="#EBEBEB"/>
<path d="M132.311 356.183C130.295 355.106 128.37 353.876 126.555 352.505C124.674 351.273 122.894 349.904 121.23 348.409C123.246 349.486 125.171 350.716 126.987 352.087C128.867 353.318 130.647 354.688 132.311 356.183Z" fill="#EBEBEB"/>
<path d="M81.5709 343.226C80.8406 340.833 80.2829 338.394 79.9017 335.926C79.3274 333.495 78.9331 331.027 78.7217 328.542C79.4459 330.938 80.013 333.377 80.4197 335.842C80.9768 338.276 81.3615 340.743 81.5709 343.226Z" fill="#EBEBEB"/>
<path d="M86.1482 333.362C84.3165 334.315 82.3875 335.081 80.3921 335.647C78.4705 336.368 76.4726 336.882 74.4346 337.18C76.3068 336.384 78.2294 335.705 80.1907 335.146C82.1371 334.434 84.1267 333.839 86.1482 333.362Z" fill="#EBEBEB"/>
<path d="M77.5425 341.442C78.0957 339.47 78.8276 337.55 79.7297 335.702C80.4438 333.774 81.3298 331.909 82.3776 330.129C81.8267 332.093 81.0946 334.005 80.1902 335.842C79.4796 337.78 78.5936 339.655 77.5425 341.442Z" fill="#EBEBEB"/>
<path d="M86.0898 340.076C84.0739 338.999 82.1492 337.769 80.3337 336.398C78.4533 335.167 76.6732 333.797 75.0093 332.302C77.0251 333.379 78.9498 334.609 80.7654 335.98C82.6458 337.212 84.4258 338.581 86.0898 340.076Z" fill="#EBEBEB"/>
<path d="M145.032 195.656C144.304 193.272 143.746 190.842 143.363 188.383C142.789 185.952 142.394 183.484 142.183 180.999C142.913 183.392 143.471 185.832 143.852 188.3C144.424 190.722 144.818 193.18 145.032 195.656Z" fill="#EBEBEB"/>
<path d="M149.665 185.82C147.832 186.761 145.903 187.517 143.909 188.077C141.991 188.814 139.992 189.338 137.952 189.637C139.822 188.836 141.745 188.157 143.708 187.603C145.649 186.877 147.64 186.281 149.665 185.82Z" fill="#EBEBEB"/>
<path d="M141.088 193.9C141.639 191.931 142.361 190.011 143.247 188.16C143.983 186.235 144.878 184.372 145.923 182.587C145.344 184.551 144.613 186.469 143.736 188.327C143.01 190.25 142.124 192.114 141.088 193.9Z" fill="#EBEBEB"/>
<path d="M149.637 192.535C147.621 191.458 145.697 190.228 143.881 188.857C142.001 187.625 140.221 186.256 138.557 184.761C140.568 185.846 142.492 187.075 144.313 188.439C146.193 189.67 147.973 191.04 149.637 192.535Z" fill="#EBEBEB"/>
<path d="M63.5256 218.226C62.7788 215.845 62.2113 213.414 61.8276 210.953C61.2704 208.52 60.8857 206.053 60.6763 203.569C61.4066 205.962 61.9644 208.402 62.3456 210.87C62.9018 213.295 63.296 215.752 63.5256 218.226Z" fill="#EBEBEB"/>
<path d="M68.1599 208.361C66.3351 209.328 64.4044 210.094 62.4039 210.646C60.4762 211.356 58.4806 211.879 56.4463 212.207C58.3209 211.417 60.2431 210.738 62.2024 210.172C64.1513 209.46 66.1404 208.856 68.1599 208.361Z" fill="#EBEBEB"/>
<path d="M59.5552 216.47C60.1397 214.508 60.8707 212.59 61.7424 210.73C62.4691 208.807 63.3546 206.943 64.3903 205.157C63.8398 207.126 63.1177 209.046 62.2317 210.897C61.5032 212.825 60.6078 214.689 59.5552 216.47Z" fill="#EBEBEB"/>
<path d="M68.102 215.106C66.0861 214.029 64.1614 212.799 62.3459 211.428C60.4655 210.196 58.6855 208.827 57.0215 207.332C59.0374 208.409 60.9621 209.639 62.7776 211.01C64.658 212.241 66.438 213.611 68.102 215.106Z" fill="#EBEBEB"/>
<path d="M113.633 237.563C112.911 235.168 112.353 232.729 111.964 230.263C111.389 227.832 110.995 225.364 110.784 222.878C111.516 225.273 112.083 227.712 112.482 230.179C113.039 232.612 113.424 235.079 113.633 237.563Z" fill="#EBEBEB"/>
<path d="M118.295 227.699C116.459 228.635 114.531 229.391 112.539 229.956C110.621 230.694 108.622 231.217 106.582 231.517C108.454 230.721 110.376 230.042 112.338 229.483C114.278 228.755 116.269 228.159 118.295 227.699Z" fill="#EBEBEB"/>
<path d="M109.69 235.781C110.244 233.809 110.976 231.888 111.878 230.041C112.604 228.117 113.49 226.254 114.526 224.468C113.978 226.441 113.245 228.363 112.338 230.208C111.626 232.137 110.74 234.002 109.69 235.781Z" fill="#EBEBEB"/>
<path d="M118.239 234.415C116.223 233.338 114.298 232.108 112.483 230.737C110.602 229.505 108.822 228.136 107.158 226.641C109.174 227.718 111.099 228.948 112.914 230.319C114.795 231.55 116.575 232.92 118.239 234.415Z" fill="#EBEBEB"/>
<path d="M65.2248 260.273C64.478 257.892 63.9105 255.461 63.5268 253C62.9717 250.567 62.587 248.1 62.3755 245.616C63.1039 248 63.6617 250.43 64.0448 252.889C64.6022 255.323 64.9963 257.789 65.2248 260.273Z" fill="#EBEBEB"/>
<path d="M69.8582 250.298C68.0333 251.265 66.1026 252.031 64.1021 252.583C62.1817 253.308 60.1833 253.822 58.1445 254.116C60.0228 253.343 61.9445 252.673 63.9006 252.11C65.8439 251.382 67.834 250.777 69.8582 250.298Z" fill="#EBEBEB"/>
<path d="M61.2524 258.407C61.837 256.445 62.568 254.526 63.4398 252.667C64.1664 250.743 65.0518 248.88 66.0875 247.094C65.537 249.063 64.8149 250.983 63.929 252.834C63.2005 254.761 62.3051 256.625 61.2524 258.407Z" fill="#EBEBEB"/>
<path d="M69.8008 257.014C67.7898 255.929 65.8657 254.699 64.0447 253.335C62.1919 252.074 60.4496 250.667 58.8354 249.128C62.6784 251.461 66.343 254.059 69.8008 256.902V257.014Z" fill="#EBEBEB"/>
<path d="M95.4147 269.774C94.6884 267.38 94.1308 264.941 93.7454 262.474C93.1712 260.043 92.7768 257.575 92.5654 255.09C93.2876 257.485 93.8452 259.924 94.2347 262.39C94.8089 264.821 95.2033 267.289 95.4147 269.774Z" fill="#EBEBEB"/>
<path d="M100.077 259.911C98.2421 260.857 96.3137 261.622 94.3209 262.196C92.3992 262.917 90.4013 263.431 88.3633 263.728C90.2332 262.927 92.1562 262.248 94.1194 261.694C96.0586 260.962 98.0496 260.366 100.077 259.911Z" fill="#EBEBEB"/>
<path d="M91.4722 267.992C92.0227 266.023 92.7448 264.103 93.6307 262.252C94.3612 260.326 95.2565 258.462 96.3073 256.679C95.7282 258.589 94.9969 260.452 94.1199 262.252C93.4172 264.239 92.5311 266.16 91.4722 267.992Z" fill="#EBEBEB"/>
<path d="M100.02 266.626C98.0046 265.549 96.0799 264.319 94.2643 262.948C92.3839 261.717 90.6039 260.347 88.9399 258.852C90.9509 259.937 92.875 261.167 94.696 262.53C96.5764 263.762 98.3565 265.131 100.02 266.626Z" fill="#EBEBEB"/>
<path d="M76.1032 297.333C75.3748 294.949 74.817 292.519 74.4339 290.061C73.8614 287.629 73.4671 285.162 73.2539 282.677C73.9844 285.062 74.5518 287.492 74.952 289.949C75.5071 292.383 75.8917 294.85 76.1032 297.333Z" fill="#EBEBEB"/>
<path d="M80.7654 287.469C77.0722 289.236 73.1525 290.52 69.1094 291.286C69.1094 291.286 71.6996 290.339 74.8655 289.28C76.79 288.554 78.7607 287.949 80.7654 287.469Z" fill="#EBEBEB"/>
<path d="M72.1602 295.577C73.4599 291.697 75.0767 287.923 76.9952 284.292C75.6955 288.172 74.0787 291.946 72.1602 295.577Z" fill="#EBEBEB"/>
<path d="M80.7089 294.184C78.693 293.107 76.7683 291.877 74.9528 290.506C73.0771 289.278 71.2975 287.918 69.6284 286.438C71.6522 287.502 73.5779 288.732 75.3845 290.116C77.2602 291.343 79.0398 292.703 80.7089 294.184Z" fill="#EBEBEB"/>
<path d="M110.352 113.874C108.102 117.796 106.961 122.224 107.041 126.71C107.122 131.196 108.423 135.582 110.812 139.426C114.007 144.413 118.986 148.314 121.432 153.692C124.311 160.268 123.073 167.792 122.181 174.925C121.289 182.058 121.145 189.972 125.865 195.517C127.822 197.83 130.47 199.529 132.484 201.814C133.59 202.888 134.345 204.253 134.658 205.739C134.97 207.225 134.824 208.767 134.24 210.173C133.008 211.917 131.186 213.188 129.088 213.768C121.498 216.382 113.273 216.732 105.476 214.775C97.6776 212.819 90.6646 208.643 85.3418 202.789L84.1618 210.396C74.229 202.066 67.5393 190.696 65.2042 178.176C62.8691 165.656 65.0293 152.739 71.3258 141.571" fill="#263238"/>
</svg>
