<svg width="865" height="792" viewBox="0 0 865 792" fill="none" xmlns="http://www.w3.org/2000/svg">
<path d="M385.14 79.3812C332.792 111.733 297.202 161.015 266.092 210.423C234.983 259.831 206.356 311.44 163.095 353.051C130.523 384.396 89.8869 409.816 64.955 446.27C30.371 496.747 32.2102 563.259 62.4241 615.889C92.6379 668.52 148.46 707.537 210.632 728.602C272.805 749.666 340.982 753.895 407.274 748.692C479.413 743.017 552.165 725.646 610.392 687.384C691.146 634.392 735.696 545.621 744.609 456.834C753.522 368.048 730.273 278.978 696.239 195.112C684.449 166.077 671.197 137.152 651.107 111.969C592.644 38.5878 466.145 29.3602 385.14 79.3812Z" fill="#E96D13"/>
<g opacity="0.7">
<path d="M385.14 79.3812C332.792 111.733 297.202 161.015 266.092 210.423C234.983 259.831 206.356 311.44 163.095 353.051C130.523 384.396 89.8869 409.816 64.955 446.27C30.371 496.747 32.2102 563.259 62.4241 615.889C92.6379 668.52 148.46 707.537 210.632 728.602C272.805 749.666 340.982 753.895 407.274 748.692C479.413 743.017 552.165 725.646 610.392 687.384C691.146 634.392 735.696 545.621 744.609 456.834C753.522 368.048 730.273 278.978 696.239 195.112C684.449 166.077 671.197 137.152 651.107 111.969C592.644 38.5878 466.145 29.3602 385.14 79.3812Z" fill="white"/>
</g>
<path d="M138.713 693.671H372.737" stroke="#263238" stroke-miterlimit="10"/>
<path d="M598.429 693.671H443.398" stroke="#263238" stroke-miterlimit="10"/>
<path d="M382.861 693.671H433.118" stroke="#263238" stroke-miterlimit="10"/>
<path d="M562.305 516.083L596.04 456.441" stroke="#263238" stroke-linecap="round" stroke-linejoin="round"/>
<path d="M603.868 491.701L628.926 447.386" stroke="#263238" stroke-linecap="round" stroke-linejoin="round"/>
<path d="M595.191 507.028L600.096 498.366" stroke="#263238" stroke-linecap="round" stroke-linejoin="round"/>
<path d="M515.365 477.207H415.574V563.761H515.365V477.207Z" stroke="#263238" stroke-linecap="round" stroke-linejoin="round"/>
<path d="M448.429 477.207H415.574V563.761H448.429V477.207Z" stroke="#263238" stroke-linecap="round" stroke-linejoin="round"/>
<path d="M427.71 546.878C427.713 547.726 427.967 548.554 428.441 549.258C428.914 549.962 429.586 550.509 430.37 550.832C431.155 551.154 432.017 551.237 432.848 551.07C433.68 550.902 434.443 550.492 435.042 549.891C435.64 549.291 436.047 548.526 436.212 547.694C436.376 546.862 436.29 546 435.965 545.216C435.64 544.433 435.09 543.764 434.384 543.293C433.679 542.822 432.85 542.571 432.002 542.571C431.437 542.571 430.877 542.682 430.356 542.899C429.834 543.116 429.36 543.433 428.961 543.833C428.563 544.233 428.247 544.708 428.032 545.231C427.817 545.753 427.708 546.313 427.71 546.878V546.878Z" stroke="#263238" stroke-linecap="round" stroke-linejoin="round"/>
<path d="M429.848 530.073C429.845 530.5 429.968 530.918 430.203 531.274C430.438 531.63 430.773 531.909 431.166 532.074C431.559 532.24 431.993 532.285 432.412 532.203C432.831 532.122 433.216 531.918 433.519 531.618C433.821 531.317 434.028 530.933 434.112 530.515C434.197 530.097 434.155 529.663 433.992 529.269C433.83 528.874 433.554 528.537 433.199 528.3C432.845 528.062 432.428 527.936 432.001 527.936C431.433 527.936 430.887 528.16 430.484 528.561C430.081 528.961 429.852 529.505 429.848 530.073V530.073Z" stroke="#263238" stroke-miterlimit="10"/>
<path opacity="0.8" d="M501.782 563.761H479.366V561.765C479.367 560.839 479.556 559.923 479.922 559.072C480.288 558.222 480.824 557.455 481.496 556.818C482.168 556.181 482.963 555.688 483.831 555.368C484.7 555.048 485.625 554.909 486.55 554.958L495.337 555.429C497.078 555.526 498.715 556.285 499.914 557.551C501.113 558.816 501.781 560.493 501.782 562.236V563.761Z" stroke="#263238" stroke-miterlimit="10"/>
<path d="M501.782 563.761H479.366V561.765C479.367 560.839 479.556 559.923 479.922 559.072C480.288 558.222 480.824 557.455 481.496 556.818C482.168 556.181 482.963 555.688 483.831 555.368C484.7 555.048 485.625 554.909 486.55 554.958L495.337 555.429C497.078 555.526 498.715 556.285 499.914 557.551C501.113 558.816 501.781 560.493 501.782 562.236V563.761Z" stroke="#263238" stroke-linecap="round" stroke-linejoin="round"/>
<path d="M567.838 533.154L570.73 558.511H586.969V560.083H604.355L598.696 533.139L567.838 533.154Z" stroke="#263238" stroke-linecap="round" stroke-linejoin="round"/>
<path d="M643.655 533.154H647.224C647.917 533.14 648.582 532.877 649.096 532.412C649.61 531.947 649.939 531.312 650.022 530.623L658.967 446.569C659.01 446.249 658.983 445.923 658.889 445.615C658.794 445.306 658.633 445.022 658.418 444.781C658.203 444.541 657.938 444.35 657.642 444.221C657.346 444.093 657.026 444.03 656.703 444.038H653.134C653.457 444.03 653.778 444.093 654.074 444.221C654.37 444.35 654.635 444.541 654.85 444.781C655.065 445.022 655.225 445.306 655.32 445.615C655.415 445.923 655.441 446.249 655.398 446.569L646.453 530.623C646.37 531.312 646.041 531.947 645.527 532.412C645.013 532.877 644.348 533.14 643.655 533.154V533.154Z" stroke="#263238" stroke-linecap="round" stroke-linejoin="round"/>
<path d="M517.188 533.154H643.624C644.317 533.14 644.982 532.877 645.496 532.412C646.01 531.947 646.339 531.312 646.422 530.623L655.367 446.569C655.41 446.249 655.383 445.923 655.289 445.615C655.194 445.306 655.034 445.022 654.818 444.781C654.603 444.541 654.338 444.35 654.042 444.221C653.746 444.093 653.426 444.03 653.103 444.038H526.698C526.005 444.052 525.341 444.315 524.827 444.78C524.312 445.245 523.984 445.88 523.9 446.569L514.956 530.623C514.913 530.941 514.939 531.263 515.032 531.57C515.124 531.876 515.282 532.159 515.494 532.399C515.705 532.639 515.966 532.831 516.259 532.961C516.551 533.091 516.868 533.157 517.188 533.154V533.154Z" stroke="#263238" stroke-linecap="round" stroke-linejoin="round"/>
<path d="M586.969 560.099V563.761H606.399C606.856 563.719 607.28 563.508 607.589 563.169C607.897 562.83 608.069 562.388 608.069 561.93C608.069 561.472 607.897 561.03 607.589 560.691C607.28 560.352 606.856 560.141 606.399 560.099H586.969Z" stroke="#263238" stroke-linecap="round" stroke-linejoin="round"/>
<path d="M520.096 522.716L527.956 449.383C528.028 448.782 528.314 448.227 528.761 447.82C529.209 447.413 529.788 447.181 530.393 447.166H649.629C649.912 447.159 650.193 447.213 650.452 447.325C650.712 447.438 650.944 447.605 651.133 447.816C651.321 448.027 651.461 448.276 651.544 448.547C651.626 448.817 651.649 449.103 651.61 449.383L643.75 522.716C643.675 523.314 643.387 523.865 642.94 524.269C642.493 524.673 641.916 524.903 641.313 524.917H522.061C521.781 524.925 521.502 524.871 521.244 524.759C520.986 524.648 520.756 524.482 520.569 524.272C520.382 524.063 520.243 523.815 520.161 523.546C520.079 523.278 520.057 522.995 520.096 522.716V522.716Z" stroke="#263238" stroke-linecap="round" stroke-linejoin="round"/>
<path d="M382.483 576.495H372.737V748.629H382.483V576.495Z" stroke="#263238" stroke-linecap="round" stroke-linejoin="round"/>
<path d="M674.42 563.761H589.956V576.51H674.42V563.761Z" stroke="#263238" stroke-linecap="round" stroke-linejoin="round"/>
<path d="M442.864 576.495H433.118V748.629H442.864V576.495Z" stroke="#263238" stroke-linecap="round" stroke-linejoin="round"/>
<path d="M668.792 576.495H659.045V748.629H668.792V576.495Z" stroke="#263238" stroke-linecap="round" stroke-linejoin="round"/>
<path opacity="0.7" d="M589.956 563.761H367.109V576.51H589.956V563.761Z" stroke="#263238" stroke-miterlimit="10"/>
<path d="M589.956 563.761H367.109V576.51H589.956V563.761Z" stroke="#263238" stroke-linecap="round" stroke-linejoin="round"/>
<path d="M608.411 576.495H598.665V748.629H608.411V576.495Z" stroke="#263238" stroke-linecap="round" stroke-linejoin="round"/>
<path d="M586.969 558.511H516.465V563.761H586.969V558.511Z" stroke="#263238" stroke-linecap="round" stroke-linejoin="round"/>
<path d="M600.504 348.444C603.837 348.444 609.528 350.252 611.131 347.155C613.332 342.879 617.56 338.588 617.56 342.251C617.325 348.146 614.731 352.673 610.848 356.87C608.843 358.778 606.531 360.335 604.01 361.476C599.954 363.253 588.4 362.687 586.435 357.326C583.527 349.513 596.291 348.523 600.504 348.444Z" fill="white" stroke="#263238" stroke-linecap="round" stroke-linejoin="round"/>
<path d="M596.04 352.359C596.694 352.565 597.39 352.597 598.06 352.451C598.731 352.305 599.351 351.986 599.859 351.526C600.894 350.558 601.845 349.507 602.705 348.382C604.277 346.621 605.739 344.797 607.94 346.527C608.302 346.912 608.525 347.408 608.573 347.935C608.622 348.462 608.493 348.99 608.207 349.435C606.242 353.632 604.748 354.685 600.818 356.823" fill="white"/>
<path d="M596.04 352.359C596.694 352.565 597.39 352.597 598.06 352.451C598.731 352.305 599.351 351.986 599.859 351.526C600.894 350.558 601.845 349.507 602.705 348.382C604.277 346.621 605.739 344.797 607.94 346.527C608.302 346.912 608.525 347.408 608.573 347.935C608.622 348.462 608.493 348.99 608.207 349.435C606.242 353.632 604.748 354.685 600.818 356.823" stroke="#263238" stroke-linecap="round" stroke-linejoin="round"/>
<path d="M530.833 383.531C530.583 385.698 530.842 387.894 531.59 389.944C532.338 391.993 533.553 393.84 535.14 395.337C541.428 401.138 562.996 416.182 567.712 416.763C569.552 416.968 571.412 416.857 573.214 416.433C579.691 414.971 601.73 362.985 601.73 362.985C600.551 359.7 595.631 356.996 592.298 356.917C588.966 356.839 587.174 357.955 585.161 360.784L567.492 385.135C564.757 385.135 553.344 369.918 552.385 367.214C549.618 359.181 544.918 351.793 540.752 349.199C540.674 349.199 534.48 350.095 530.833 383.531Z" fill="white" stroke="#263238" stroke-linecap="round" stroke-linejoin="round"/>
<path d="M568.875 387.037C568.875 387.037 575.163 391.454 577.286 394.551" stroke="#263238" stroke-linecap="round" stroke-linejoin="round"/>
<path d="M568.954 389.851C570.577 391.846 571.405 394.371 571.281 396.94" stroke="#263238" stroke-linecap="round" stroke-linejoin="round"/>
<path d="M551.678 365.563C553.381 369.87 554.018 374.524 553.533 379.13" stroke="#263238" stroke-linecap="round" stroke-linejoin="round"/>
<path d="M559.632 748.094L540.265 748.471H527.909C523.633 748.471 524.168 745.154 523.68 740.611C523.486 736.758 524.237 732.916 525.865 729.418H545.484C546.254 730.77 553.47 732.044 553.878 733.254C564.348 741.319 559.632 748.094 559.632 748.094Z" fill="white" stroke="#263238" stroke-linecap="round" stroke-linejoin="round"/>
<path d="M440.679 748.094L459.543 748.456H461.728H478.611C486.55 748.456 486.911 744.101 486.738 738.725C486.398 735.334 485.107 732.108 483.013 729.419L461.005 727.029C459.59 728.601 448.429 732.358 447.753 733.695C431.357 744.4 440.679 748.094 440.679 748.094Z" fill="white" stroke="#263238" stroke-linecap="round" stroke-linejoin="round"/>
<path d="M469.383 748.456C469.661 748.472 469.939 748.472 470.216 748.456H470.782H469.383Z" fill="#263238" stroke="#263238" stroke-linecap="round" stroke-linejoin="round"/>
<path d="M443.398 518.173C443.398 518.173 449.372 631.64 452.83 651.432C453.884 657.515 458.946 699.928 459.669 708.92C458.788 713.761 458.751 718.717 459.559 723.571L461.005 727.076C463.441 732.516 484.899 732.751 485.622 731.289C486.346 729.827 489.128 729.466 485.874 708.841C485.512 706.562 484.946 682.274 484.035 649.765C483.736 639.091 482.337 630.728 483.469 603.847C483.469 602.668 489.112 532.966 489.222 531.755L490.37 532.243C490.511 533.595 490.637 534.915 490.747 536.157C491.305 542.143 492.324 548.076 493.797 553.905L514.359 635.649V650.504C514.044 668.582 515.553 690.071 520.206 707.489L519.75 712.017C518.886 720.584 517.031 730.425 526.038 732.06L544.368 733.003C547.418 733.003 550.876 732.673 550.656 729.45L548.974 716.23C545.217 700.997 546.522 652.281 545.83 636.561L538.174 519.258L533.71 484.517L446.448 482.63L443.398 518.173Z" fill="#E96D13"/>
<path opacity="0.2" d="M490.228 500.803C507.944 500.363 517.785 499.451 534.244 493.666C534.476 493.548 534.689 493.394 534.873 493.21C534.873 493.21 486.361 492.801 443.445 489.893C452.581 494.307 462.267 497.479 472.244 499.325L490.228 500.803Z" fill="black"/>
<path opacity="0.2" d="M521.338 532.29C517.471 539.521 506.687 539.505 502.71 546.658C498.921 553.465 496.988 565.522 499.754 577.611L496.249 563.667C492.225 556.357 493.105 551.39 491.627 543.231C491.391 541.989 490.763 533.878 490.37 532.227C490.37 532.227 500.666 535.072 501.531 535.104C510.067 535.465 513.509 534.381 521.338 532.29Z" fill="black"/>
<path opacity="0.2" d="M484.805 672.324C483.955 670.96 483.615 669.339 483.846 667.749C485.889 647.879 481.613 627.789 484.302 608.013C483.805 606.892 483.584 605.669 483.657 604.445C484.176 592.953 484.978 581.305 486.109 569.861C486.568 563.174 487.37 556.516 488.515 549.912C488.389 543.939 488.389 538.154 488.625 532.62C488.546 533.107 474.948 538.279 465.045 533.469C462.309 532.149 472.779 543.451 476.442 555.933C480.733 570.615 483.154 586.021 481.959 601.348C481.661 605.294 481.11 609.381 479.02 612.666C476.929 615.952 472.936 618.153 469.446 616.816C467.748 616.188 466.302 614.804 464.494 614.663C463.946 614.597 463.391 614.707 462.909 614.975C462.426 615.243 462.04 615.656 461.806 616.156C461.659 616.593 461.632 617.062 461.729 617.513C461.826 617.964 462.043 618.381 462.356 618.719C463.756 620.668 465.736 622.13 466.805 624.299C467.874 626.469 467.465 629.817 465.233 630.477C467.45 630.399 470.499 631.153 470.358 633.511C470.201 636.183 465.721 637.111 466.161 639.799C470.742 645.954 473.655 653.189 474.618 660.801C476.709 677.307 469.446 693.153 471.946 709.14C472.188 710.369 471.987 711.644 471.38 712.74C470.774 713.836 469.799 714.682 468.629 715.129L468.141 715.239C472.329 716.712 476.734 717.472 481.173 717.487C482.95 719.657 473.408 729.89 471.851 730.441C472.857 730.865 476.866 733.019 477.007 732.987C480.67 732.343 483.028 732.987 485.26 732.531C492.099 721.433 485.26 703.638 484.867 691.518C484.689 685.146 484.668 678.748 484.805 672.324Z" fill="black"/>
<path opacity="0.2" d="M530.173 714.06C533.034 716.764 536.838 719.059 540.328 717.44C526.022 695.668 519.986 666.727 522.706 640.302C525.677 642.345 534.826 640.805 537.404 638.243C536.366 634.674 524.561 637.975 523.9 634.313C523.834 633.244 524.134 632.186 524.749 631.31C528.302 625.022 535.219 619.976 538.897 607.824C535.926 608.909 524.45 624.173 521.605 622.931C519.991 622.062 518.673 620.732 517.817 619.111C515.757 615.967 507.882 599.666 504.345 592.293C504.227 592.863 503.986 593.399 503.637 593.865C503.95 594.944 504.166 596.049 504.282 597.166C504.958 600.31 505.854 603.454 506.64 606.598C508.075 611.838 509.59 617.078 511.183 622.318C511.45 623.167 511.654 624.016 511.874 624.881C513.12 628.351 513.928 631.963 514.28 635.633C514.39 637.446 514.358 639.264 514.185 641.072C514.343 644.546 514.358 648.052 514.327 651.652C514.327 654.356 514.327 657.122 514.232 659.92C514.538 660.784 514.692 661.693 514.688 662.609C514.83 675.012 515.349 688.484 518.178 700.588C519.576 705.4 520.202 710.404 520.033 715.412C519.797 718.682 519.153 721.952 518.76 725.221C519.111 726.157 519.598 727.037 520.206 727.831C523.665 732.264 533.615 734.245 538.897 733.018C534.48 729.466 530.094 720.144 530.173 714.06Z" fill="black"/>
<path d="M443.398 518.173C443.398 518.173 449.372 631.64 452.83 651.432C453.884 657.515 458.946 699.928 459.669 708.92C458.788 713.761 458.751 718.717 459.559 723.571L461.005 727.076C463.441 732.515 484.899 732.751 485.622 731.289C486.346 729.827 489.128 729.466 485.874 708.841C485.512 706.562 484.946 682.274 484.035 649.765C483.736 639.091 482.337 630.728 483.469 603.847C483.469 602.668 489.112 532.966 489.222 531.755L490.37 532.243C490.511 533.595 490.637 534.915 490.747 536.157C491.305 542.143 492.324 548.076 493.797 553.905L514.359 635.649V650.504C514.044 668.582 515.553 690.071 520.206 707.489L519.75 712.017C518.886 720.584 517.031 730.425 526.038 732.06L544.368 733.003C547.418 733.003 550.876 732.673 550.656 729.45L548.974 716.23C545.217 700.997 546.522 652.281 545.83 636.561L538.174 519.258L533.71 484.517L446.448 482.63L443.398 518.173Z" stroke="#263238" stroke-linecap="round" stroke-linejoin="round"/>
<path d="M502.537 337.896L494.472 316.548L497.192 297.684L494.472 277.154L477.731 270.426L463.897 270.316L459.024 274.812L457.688 281.1C457.688 281.1 456.116 291.239 454.842 300.294C454.386 303.438 457.593 305.654 457.593 305.654C457.593 305.654 454.779 313.09 453.506 313.797C450.126 315.684 455.974 318.058 457.389 322.459C458.804 326.861 462.294 336.324 467.45 335.978C472.606 335.633 475.31 335.271 476.599 339.908C477.888 344.546 480.969 357.2 480.969 357.2L502.537 337.896Z" fill="white"/>
<path d="M481.551 289.919C481.834 294.635 479.979 298.439 482.855 306.959C482.855 306.959 484.962 301.426 487.571 301.363C488.074 301.329 488.578 301.406 489.048 301.59C489.517 301.774 489.94 302.06 490.286 302.427C490.631 302.793 490.891 303.232 491.047 303.712C491.203 304.191 491.251 304.699 491.187 305.199C491.187 307.557 490.259 310.481 488.294 311.628C488.294 311.628 490.511 317.193 490.998 319.315C492.303 319.315 494.41 316.549 494.41 316.549L502.474 298.565C497.412 294.761 487.32 292.418 481.551 289.919Z" fill="#263238" stroke="#263238" stroke-linecap="round" stroke-linejoin="round"/>
<path d="M502.537 337.896L494.472 316.548L497.192 297.684L494.472 277.154L477.731 270.426L463.897 270.316L459.024 274.812L457.688 281.1C457.688 281.1 456.116 291.239 454.842 300.294C454.386 303.438 457.593 305.654 457.593 305.654C457.593 305.654 454.779 313.09 453.506 313.797C450.126 315.684 455.974 318.058 457.389 322.459C458.804 326.861 462.294 336.324 467.45 335.978C472.606 335.633 475.31 335.271 476.599 339.908C477.888 344.546 480.969 357.2 480.969 357.2L502.537 337.896Z" stroke="#263238" stroke-linecap="round" stroke-linejoin="round"/>
<path d="M461.696 304.114C461.838 305.246 462.482 306.079 463.127 305.985C463.771 305.89 464.164 304.9 464.023 303.768C463.881 302.636 463.237 301.819 462.592 301.913C461.948 302.007 461.539 302.982 461.696 304.114Z" fill="#263238"/>
<path d="M460.502 322.993C460.643 324.125 461.288 324.958 461.932 324.864C462.577 324.77 462.97 323.779 462.829 322.648C462.687 321.516 462.043 320.698 461.398 320.793C460.753 320.887 460.345 321.877 460.502 322.993Z" fill="#263238"/>
<path d="M466.35 300.545C466.35 300.545 465.124 294.76 459.37 296.442" stroke="#263238" stroke-linecap="round" stroke-linejoin="round"/>
<path d="M468.88 335.727C468.88 335.727 479.884 329.895 482.667 326.012L476.552 339.877C476.552 339.877 475.797 333.384 468.88 335.727Z" fill="#263238" stroke="#263238" stroke-linecap="round" stroke-linejoin="round"/>
<path d="M508.007 340.034C508.007 340.034 501.829 339.814 492.052 340.27C484.563 340.742 477.106 341.624 469.713 342.911C469.713 342.911 472.26 334.406 479.287 333.746C486.314 333.086 502.694 333.086 502.694 333.086L508.007 340.034Z" fill="white" stroke="#263238" stroke-linecap="round" stroke-linejoin="round"/>
<path d="M446.574 410.853L447.139 415.427C449.514 434.273 448.872 453.376 445.237 472.019L442.251 490.758L489.583 492.88L540.265 493.383C540.469 486.093 539.874 478.802 538.488 471.642C528.428 420.662 547.119 358.254 542.214 350.268C538.567 344.31 508.07 339.814 508.07 339.814C508.07 339.814 479.979 338.965 469.713 342.77L468.456 343.603C454.779 348.586 443.933 353.947 438.038 358.427L440.207 364.164C440.317 367.041 446.574 410.853 446.574 410.853Z" fill="white"/>
<path d="M544.588 426.824C544.588 426.824 540.092 442.859 544.761 454.02L537.31 456.441C536.341 448.335 536.12 440.158 536.65 432.012L544.588 426.824Z" fill="#E96D13"/>
<path opacity="0.6" d="M544.588 426.824C544.588 426.824 540.092 442.859 544.761 454.02L537.31 456.441C536.341 448.335 536.12 440.158 536.65 432.012L544.588 426.824Z" fill="white"/>
<path d="M511.309 432.012C509.666 435.063 508.716 438.439 508.526 441.9C508.668 449.76 515.978 454.947 522.47 458.799C508.093 453.703 492.747 451.94 477.589 453.642C481.456 453.202 488.295 445.264 491.219 442.638C495.857 438.485 500.265 434.082 504.423 429.449C512.403 420.709 519.394 411.114 525.268 400.839C520.709 411.324 515.962 421.668 511.309 432.012Z" fill="#E96D13"/>
<g opacity="0.5">
<path d="M511.309 432.012C509.666 435.063 508.716 438.439 508.526 441.9C508.668 449.76 515.978 454.947 522.47 458.799C508.093 453.703 492.747 451.94 477.589 453.642C481.456 453.202 488.295 445.264 491.219 442.638C495.857 438.485 500.265 434.082 504.423 429.449C512.403 420.709 519.394 411.114 525.268 400.839C520.709 411.324 515.962 421.668 511.309 432.012Z" fill="white"/>
</g>
<path d="M480.718 441.554C473.769 443.031 465.469 438.897 460.36 433.694C463.709 431.446 468.063 432.908 472.025 433.411C476.553 433.959 481.141 433.137 485.198 431.053C486.911 430.188 500.745 418.32 500.651 420.489C500.148 431.745 483.217 441.019 480.718 441.554Z" fill="#E96D13"/>
<path opacity="0.5" d="M480.718 441.554C473.769 443.031 465.469 438.897 460.36 433.694C463.709 431.446 468.063 432.908 472.025 433.411C476.553 433.959 481.141 433.137 485.198 431.053C486.911 430.188 500.745 418.32 500.651 420.489C500.148 431.745 483.217 441.019 480.718 441.554Z" fill="white"/>
<path d="M467.214 465.778C470.233 465.967 475.247 462.807 478.423 462.131C482.438 461.276 486.532 460.85 490.637 460.858C497.695 460.858 511.246 463.876 520.207 467.303C517.298 472.224 498.198 467.618 493.325 467.303L467.214 465.778Z" fill="#E96D13"/>
<path opacity="0.5" d="M467.214 465.778C470.233 465.967 475.247 462.807 478.423 462.131C482.438 461.276 486.532 460.85 490.637 460.858C497.695 460.858 511.246 463.876 520.207 467.303C517.298 472.224 498.198 467.618 493.325 467.303L467.214 465.778Z" fill="white"/>
<path d="M493.325 467.335L467.214 465.763L493.325 467.335Z" fill="white"/>
<path d="M446.574 410.853L447.139 415.427C449.514 434.273 448.872 453.376 445.237 472.019L442.251 490.758L489.583 492.88L540.265 493.383C540.469 486.093 539.874 478.802 538.488 471.642C528.428 420.662 547.119 358.254 542.214 350.268C538.567 344.31 508.07 339.814 508.07 339.814C508.07 339.814 479.979 338.965 469.713 342.77L468.456 343.603C454.779 348.586 443.933 353.947 438.038 358.427L440.207 364.164C440.317 367.041 446.574 410.853 446.574 410.853Z" stroke="#263238" stroke-linecap="round" stroke-linejoin="round"/>
<path d="M528.774 393.938C518.456 417.883 501.434 438.333 479.759 452.825" stroke="#263238" stroke-linecap="round" stroke-linejoin="round"/>
<path d="M530.739 389.144C530.361 390.165 530.346 390.165 529.937 391.171" stroke="#263238" stroke-linecap="round" stroke-linejoin="round"/>
<path d="M533.678 380.859C533.16 382.431 532.609 384.097 532.028 385.701" stroke="#263238" stroke-linecap="round" stroke-linejoin="round"/>
<path d="M493.608 433.332C490.204 437.241 485.753 440.094 480.78 441.554C473.628 443.424 465.06 440.642 461.618 433.788" stroke="#263238" stroke-linecap="round" stroke-linejoin="round"/>
<path d="M497.931 427.736C497.229 428.784 496.474 429.832 495.667 430.88" stroke="#263238" stroke-linecap="round" stroke-linejoin="round"/>
<path d="M520.206 467.303C502.461 460.033 482.63 459.702 464.652 466.376" stroke="#263238" stroke-linecap="round" stroke-linejoin="round"/>
<path d="M503.449 455.812C497.096 453.769 490.262 453.769 483.909 455.812" stroke="#263238" stroke-linecap="round" stroke-linejoin="round"/>
<path d="M491.25 305.199C490.868 307.088 490.183 308.904 489.222 310.575C487.493 312.98 485.811 313.357 484.035 312.902" stroke="#263238" stroke-linecap="round" stroke-linejoin="round"/>
<path d="M502.537 298.565C497.632 302.29 481.236 297.606 481.236 297.606C479.664 297.197 479.444 295.358 479.554 293.157L477.448 292.764C474.477 292.198 471.27 291.506 469.336 289.211C467.403 286.916 467.245 283.725 467.182 280.691C460.627 279.999 458.081 283.269 457.452 281.901C456.571 279.968 453.758 270.363 463.095 268.728C473.895 266.857 491.659 270.3 496.516 275.362C501.373 280.424 513.525 290.249 502.537 298.565Z" fill="#263238" stroke="#263238" stroke-linecap="round" stroke-linejoin="round"/>
<path d="M376.981 358.473C373.665 358.395 367.958 360.281 366.355 357.169C364.154 352.909 359.925 348.617 359.925 352.28C360.161 358.175 362.755 362.686 366.653 366.884C368.65 368.795 370.957 370.352 373.476 371.49C377.532 373.282 389.086 372.716 391.051 367.355C393.912 359.542 381.147 358.552 376.981 358.473Z" fill="white" stroke="#263238" stroke-linecap="round" stroke-linejoin="round"/>
<path d="M381.383 362.388C380.731 362.596 380.035 362.627 379.366 362.478C378.698 362.329 378.081 362.005 377.579 361.539C376.54 360.577 375.588 359.525 374.734 358.395C373.162 356.635 371.684 354.811 369.483 356.54C369.121 356.926 368.898 357.421 368.849 357.948C368.801 358.475 368.93 359.003 369.216 359.448C371.181 363.646 372.674 364.699 376.604 366.821" fill="white"/>
<path d="M381.383 362.388C380.731 362.596 380.035 362.627 379.366 362.478C378.698 362.329 378.081 362.005 377.579 361.539C376.54 360.577 375.588 359.525 374.734 358.395C373.162 356.635 371.684 354.811 369.483 356.54C369.121 356.926 368.898 357.421 368.849 357.948C368.801 358.475 368.93 359.003 369.216 359.448C371.181 363.646 372.674 364.699 376.604 366.821" stroke="#263238" stroke-linecap="round" stroke-linejoin="round"/>
<path d="M447.879 392.806C448.134 394.975 447.879 397.173 447.134 399.225C446.389 401.278 445.174 403.128 443.587 404.627C437.299 410.428 415.731 425.456 411 426.038C409.187 426.246 407.352 426.14 405.576 425.724C399.099 424.262 377.06 372.276 377.06 372.276C378.255 368.975 383.159 366.271 386.492 366.208C389.825 366.145 391.617 367.245 393.613 370.059L411.345 394.441C414.081 394.441 425.493 379.24 426.468 376.536C429.235 368.487 433.919 361.099 438.085 358.521C438.038 358.489 444.2 359.385 447.879 392.806Z" fill="white" stroke="#263238" stroke-linecap="round" stroke-linejoin="round"/>
<path d="M409.836 396.327C409.836 396.327 403.548 400.744 401.426 403.826" stroke="#263238" stroke-linecap="round" stroke-linejoin="round"/>
<path d="M409.758 399.125C408.133 401.126 407.31 403.658 407.447 406.231" stroke="#263238" stroke-linecap="round" stroke-linejoin="round"/>
<path d="M427.034 374.838C425.33 379.145 424.694 383.799 425.179 388.405" stroke="#263238" stroke-linecap="round" stroke-linejoin="round"/>
<path d="M461.917 624.456C466.105 627.094 470.901 628.615 475.844 628.873C471.334 628.488 466.807 629.381 462.781 631.451" stroke="#263238" stroke-linecap="round" stroke-linejoin="round"/>
<path d="M477.008 636.655C472.081 637.541 467.21 638.711 462.419 640.16" stroke="#263238" stroke-linecap="round" stroke-linejoin="round"/>
<path d="M453.758 526.505C463.614 535.638 477.338 538.499 489.222 531.755C500.902 537.069 517.895 536.471 528.113 528.423" stroke="#263238" stroke-linecap="round" stroke-linejoin="round"/>
<path d="M449.073 521.286C449.828 522.292 450.645 523.251 451.447 524.162" stroke="#263238" stroke-linecap="round" stroke-linejoin="round"/>
<path d="M543.818 716.732C540.395 717.772 536.731 717.709 533.346 716.552C529.961 715.396 527.025 713.204 524.954 710.287" stroke="#263238" stroke-linecap="round" stroke-linejoin="round"/>
<path d="M481.567 716.905C478.972 717.74 476.202 717.872 473.539 717.286C470.877 716.701 468.418 715.419 466.413 713.573" fill="#E96D13"/>
<path d="M481.567 716.905C478.972 717.74 476.202 717.872 473.539 717.286C470.877 716.701 468.418 715.419 466.413 713.573" stroke="#263238" stroke-linecap="round" stroke-linejoin="round"/>
<path d="M518.634 636.843H519.137C523.319 642.031 532.216 642.283 537.404 638.242L526.62 635.774" stroke="#263238" stroke-linecap="round" stroke-linejoin="round"/>
<path d="M535.219 616.093C531.7 622.99 526.341 628.779 519.735 632.819" stroke="#263238" stroke-linecap="round" stroke-linejoin="round"/>
<path d="M538.897 606.284C538.502 607.926 538.009 609.543 537.419 611.125" stroke="#263238" stroke-linecap="round" stroke-linejoin="round"/>
<path d="M490.228 506.037L489.583 526.143" stroke="#263238" stroke-linecap="round" stroke-linejoin="round"/>
<path d="M490.464 498.366L490.323 502.72" stroke="#263238" stroke-linecap="round" stroke-linejoin="round"/>
<path d="M467.309 299.445C467.812 300.075 468.054 300.874 467.985 301.677C467.985 303.564 468.095 305.435 468.157 307.321C468.22 309.207 468.157 311.487 466.743 312.697C465.98 313.226 465.047 313.45 464.127 313.325C463.208 313.2 462.369 312.735 461.775 312.021C459.873 309.978 458.458 304.161 459.574 301.442C460.596 298.958 465.312 297.543 467.309 299.445Z" stroke="#263238" stroke-linecap="round" stroke-linejoin="round"/>
<path d="M486.22 301.897C485.575 302.448 467.984 301.677 467.984 301.677" stroke="#263238" stroke-linecap="round" stroke-linejoin="round"/>
<path d="M459.48 305.702C459.517 305.414 459.488 305.122 459.393 304.848C459.298 304.574 459.14 304.325 458.933 304.123C458.726 303.92 458.474 303.768 458.198 303.679C457.922 303.59 457.629 303.567 457.342 303.611C457.071 303.721 456.828 303.89 456.629 304.105C456.431 304.321 456.282 304.577 456.194 304.856C456.105 305.135 456.079 305.43 456.117 305.72C456.155 306.01 456.257 306.288 456.415 306.535" stroke="#263238" stroke-linecap="round" stroke-linejoin="round"/>
<path d="M498.811 312.272C500.907 307.169 502.762 301.971 504.376 296.678C501.104 297.354 497.79 297.811 494.457 298.046C493.844 303.454 491.91 310.213 492.492 315.605C493.215 322.318 497.617 315.134 498.811 312.272Z" fill="#263238"/>
<path d="M684.543 334.847V337.991C684.543 340.584 683.513 343.071 681.68 344.905C679.846 346.738 677.359 347.769 674.766 347.769H542.34C539.75 347.764 537.267 346.732 535.436 344.899C533.606 343.066 532.578 340.581 532.578 337.991V334.847C532.578 337.437 533.606 339.922 535.436 341.755C537.267 343.588 539.75 344.62 542.34 344.625H674.75C676.035 344.627 677.308 344.375 678.496 343.885C679.685 343.394 680.764 342.674 681.674 341.766C682.584 340.858 683.305 339.779 683.798 338.592C684.29 337.405 684.543 336.132 684.543 334.847Z" fill="#999999"/>
<path d="M674.765 296.772H542.372C536.971 296.772 532.594 301.15 532.594 306.55V337.927C532.594 343.328 536.971 347.705 542.372 347.705H674.765C680.166 347.705 684.543 343.328 684.543 337.927V306.55C684.543 301.15 680.166 296.772 674.765 296.772Z" fill="#BFBFBF"/>
<path d="M674.765 293.676H542.372C536.971 293.676 532.594 298.053 532.594 303.454V337.928C532.594 343.328 536.971 347.705 542.372 347.705H674.765C680.166 347.705 684.543 343.328 684.543 337.928V303.454C684.543 298.053 680.166 293.676 674.765 293.676Z" stroke="#263238" stroke-linecap="round" stroke-linejoin="round"/>
<path d="M400.205 338.694C403.379 325.152 394.974 311.602 381.433 308.428C367.891 305.255 354.341 313.66 351.167 327.201C347.994 340.743 356.398 354.293 369.94 357.467C383.481 360.64 397.032 352.235 400.205 338.694Z" fill="#E96D13" stroke="#263238" stroke-linecap="round" stroke-linejoin="round"/>
<path opacity="0.5" d="M394.572 322.412C394.572 327.788 386.178 323.041 375.802 323.041C365.427 323.041 357.033 327.757 357.033 322.412C357.033 317.067 365.443 310.779 375.802 310.779C386.162 310.779 394.572 317.036 394.572 322.412Z" fill="white"/>
<path opacity="0.1" d="M396.977 343.036C396.977 350.472 385.564 357.986 376.258 357.986C367.659 357.986 355.539 350.472 355.539 343.036C355.539 335.601 364.814 329.564 376.258 329.564C387.702 329.564 396.977 335.601 396.977 343.036Z" fill="black"/>
<path d="M54.1868 749.132H731.813" stroke="#263238" stroke-linecap="round" stroke-linejoin="round"/>
<path d="M493.875 163.121C500.422 163.121 505.728 157.815 505.728 151.268C505.728 144.722 500.422 139.416 493.875 139.416C487.329 139.416 482.022 144.722 482.022 151.268C482.022 157.815 487.329 163.121 493.875 163.121Z" fill="white"/>
<path d="M498.371 84.1128H488.908V124.828H498.371V84.1128Z" fill="#263238" stroke="#263238" stroke-linecap="round" stroke-linejoin="round"/>
<path d="M535.706 154.35H451.651L488.876 114.562H498.481L535.706 154.35Z" fill="#263238" stroke="#263238" stroke-linecap="round" stroke-linejoin="round"/>
<path d="M493.624 48.9629V84.1128" stroke="#263238" stroke-linecap="round" stroke-linejoin="round"/>
<path d="M488.876 114.562H498.481" stroke="white" stroke-linecap="round" stroke-linejoin="round"/>
<path d="M215.867 548.544L211.23 548.623C210.652 547.366 209.957 546.166 209.155 545.039L211.544 541.062C210.319 539.538 208.933 538.152 207.41 536.927L203.433 539.317C202.302 538.519 201.103 537.825 199.848 537.242L199.927 532.604C198.113 531.878 196.226 531.351 194.299 531.032L192.036 535.088C191.365 535.025 190.673 534.994 189.96 534.994C189.269 534.994 188.577 534.994 187.901 535.088L185.637 531.048C183.71 531.367 181.823 531.894 180.01 532.62V537.257C178.75 537.84 177.546 538.535 176.41 539.332L172.433 536.943C170.918 538.172 169.537 539.558 168.314 541.077L170.703 545.054C169.901 546.184 169.201 547.384 168.613 548.639L163.897 548.56C163.178 550.376 162.651 552.262 162.325 554.188L166.396 556.451C166.396 557.127 166.286 557.819 166.286 558.527C166.286 559.234 166.286 559.91 166.396 560.602L162.325 562.85C162.651 564.775 163.178 566.661 163.897 568.477L168.613 568.399C169.201 569.658 169.901 570.863 170.703 571.999L168.314 575.976C169.542 577.487 170.922 578.867 172.433 580.094L176.41 577.705C177.545 578.508 178.75 579.207 180.01 579.796V584.433C181.826 585.152 183.712 585.679 185.637 586.005L187.901 581.934C188.577 581.934 189.269 582.044 189.96 582.044C190.652 582.044 191.36 582.044 192.036 581.934L194.299 586.005C196.225 585.679 198.111 585.152 199.927 584.433L199.848 579.796C201.103 579.207 202.303 578.507 203.433 577.705L207.41 580.094C208.929 578.871 210.315 577.49 211.544 575.976L209.155 571.92C209.958 570.788 210.653 569.583 211.23 568.32L215.867 568.399C216.593 566.585 217.12 564.698 217.439 562.771L213.383 560.523C213.446 559.831 213.478 559.14 213.478 558.448C213.478 557.756 213.446 557.065 213.383 556.373L217.439 554.109C217.116 552.203 216.589 550.338 215.867 548.544V548.544Z" stroke="#263238" stroke-linecap="round" stroke-linejoin="round"/>
<path opacity="0.3" d="M215.867 548.544L211.23 548.623C210.652 547.366 209.957 546.166 209.155 545.039L211.544 541.062C210.319 539.538 208.933 538.152 207.41 536.927L203.433 539.317C202.302 538.519 201.103 537.825 199.848 537.242L199.927 532.604C198.113 531.878 196.226 531.351 194.299 531.032L192.036 535.088C191.365 535.025 190.673 534.994 189.96 534.994C189.269 534.994 188.577 534.994 187.901 535.088L185.637 531.048C183.71 531.367 181.823 531.894 180.01 532.62V537.257C178.75 537.84 177.546 538.535 176.41 539.332L172.433 536.943C170.918 538.172 169.537 539.558 168.314 541.077L170.703 545.054C169.901 546.184 169.201 547.384 168.613 548.639L163.897 548.56C163.178 550.376 162.651 552.262 162.325 554.188L166.396 556.451C166.396 557.127 166.286 557.819 166.286 558.527C166.286 559.234 166.286 559.91 166.396 560.602L162.325 562.85C162.651 564.775 163.178 566.661 163.897 568.477L168.613 568.399C169.201 569.658 169.901 570.863 170.703 571.999L168.314 575.976C169.542 577.487 170.922 578.867 172.433 580.094L176.41 577.705C177.545 578.508 178.75 579.207 180.01 579.796V584.433C181.826 585.152 183.712 585.679 185.637 586.005L187.901 581.934C188.577 581.934 189.269 582.044 189.96 582.044C190.652 582.044 191.36 582.044 192.036 581.934L194.299 586.005C196.225 585.679 198.111 585.152 199.927 584.433L199.848 579.796C201.103 579.207 202.303 578.507 203.433 577.705L207.41 580.094C208.929 578.871 210.315 577.49 211.544 575.976L209.155 571.92C209.958 570.788 210.653 569.583 211.23 568.32L215.867 568.399C216.593 566.585 217.12 564.698 217.439 562.771L213.383 560.523C213.446 559.831 213.478 559.14 213.478 558.448C213.478 557.756 213.446 557.065 213.383 556.373L217.439 554.109C217.116 552.203 216.589 550.338 215.867 548.544V548.544Z" stroke="#263238" stroke-linecap="round" stroke-linejoin="round"/>
<path d="M191.842 573.932C200.356 572.887 206.41 565.137 205.365 556.624C204.319 548.11 196.57 542.055 188.056 543.101C179.542 544.146 173.488 551.895 174.533 560.409C175.579 568.923 183.328 574.977 191.842 573.932Z" stroke="#263238" stroke-linecap="round" stroke-linejoin="round"/>
<path d="M300.016 71.2539H314.589" stroke="#263238" stroke-linecap="round" stroke-linejoin="round"/>
<path d="M225.158 71.2539H288.588" stroke="#263238" stroke-linecap="round" stroke-linejoin="round"/>
<path d="M332.729 61.2559H53.4951V508.867H332.729V61.2559Z" stroke="#263238" stroke-linecap="round" stroke-linejoin="round"/>
<path d="M307.204 315.496C317.039 305.661 317.039 289.716 307.204 279.881C297.37 270.046 281.424 270.046 271.59 279.881C261.755 289.716 261.755 305.661 271.59 315.496C281.424 325.331 297.37 325.331 307.204 315.496Z" fill="#263238" stroke="white" stroke-linecap="round" stroke-linejoin="round"/>
<path d="M289.389 157.415C303.298 157.415 314.573 146.14 314.573 132.232C314.573 118.323 303.298 107.048 289.389 107.048C275.481 107.048 264.206 118.323 264.206 132.232C264.206 146.14 275.481 157.415 289.389 157.415Z" fill="#E96D13" stroke="#263238" stroke-linecap="round" stroke-linejoin="round"/>
<path d="M313.908 219.487C317.081 205.946 308.676 192.396 295.135 189.222C281.593 186.048 268.043 194.453 264.869 207.995C261.696 221.536 270.101 235.086 283.642 238.26C297.184 241.434 310.734 233.029 313.908 219.487Z" stroke="#263238" stroke-linecap="round" stroke-linejoin="round"/>
<path d="M289.389 229.224C297.515 229.224 304.103 222.637 304.103 214.51C304.103 206.384 297.515 199.796 289.389 199.796C281.263 199.796 274.675 206.384 274.675 214.51C274.675 222.637 281.263 229.224 289.389 229.224Z" fill="#E96D13"/>
<path d="M261.062 437.938H128.668C123.268 437.938 118.89 442.316 118.89 447.716V482.19C118.89 487.59 123.268 491.968 128.668 491.968H261.062C266.462 491.968 270.84 487.59 270.84 482.19V447.716C270.84 442.316 266.462 437.938 261.062 437.938Z" stroke="#263238" stroke-linecap="round" stroke-linejoin="round"/>
<path d="M263.326 451.144V477.962C263.293 478.998 263.056 480.018 262.628 480.963C262.199 481.907 261.588 482.757 260.83 483.464C260.072 484.172 259.181 484.722 258.209 485.083C257.237 485.445 256.203 485.61 255.167 485.57H133.62C132.584 485.61 131.55 485.445 130.578 485.083C129.606 484.722 128.715 484.172 127.957 483.464C127.198 482.757 126.587 481.907 126.159 480.963C125.731 480.018 125.494 478.998 125.461 477.962V451.144C125.496 450.108 125.734 449.09 126.164 448.148C126.593 447.205 127.204 446.357 127.962 445.651C128.72 444.946 129.61 444.397 130.581 444.036C131.552 443.676 132.585 443.511 133.62 443.551H255.214C257.296 443.483 259.32 444.245 260.841 445.668C262.362 447.092 263.256 449.061 263.326 451.144Z" fill="#E96D13"/>
<path d="M236.146 296.144C236.144 299.696 235.442 303.212 234.08 306.492C232.718 309.771 230.723 312.751 228.209 315.259C225.695 317.767 222.711 319.755 219.428 321.109C216.145 322.464 212.627 323.157 209.076 323.151H111.203C104.041 323.151 97.1712 320.306 92.1064 315.241C87.0417 310.176 84.1963 303.307 84.1963 296.144C84.1942 292.596 84.8913 289.083 86.2476 285.804C87.6039 282.526 89.5929 279.547 92.1009 277.037C94.6089 274.528 97.5868 272.537 100.864 271.179C104.142 269.821 107.655 269.122 111.203 269.122H209.076C212.629 269.115 216.148 269.81 219.432 271.165C222.716 272.52 225.7 274.51 228.214 277.02C230.729 279.53 232.723 282.511 234.084 285.792C235.445 289.074 236.146 292.592 236.146 296.144Z" fill="white"/>
<path d="M236.146 296.144C236.144 299.696 235.442 303.212 234.08 306.492C232.718 309.771 230.723 312.751 228.209 315.259C225.695 317.767 222.711 319.755 219.428 321.109C216.145 322.464 212.627 323.157 209.076 323.151H111.203C104.041 323.151 97.1712 320.306 92.1064 315.241C87.0417 310.176 84.1963 303.307 84.1963 296.144C84.1942 292.596 84.8913 289.083 86.2476 285.804C87.6039 282.526 89.5929 279.547 92.1009 277.037C94.6089 274.528 97.5868 272.537 100.864 271.179C104.142 269.821 107.655 269.122 111.203 269.122H209.076C212.629 269.115 216.148 269.81 219.432 271.165C222.716 272.52 225.7 274.51 228.214 277.02C230.729 279.53 232.723 282.511 234.084 285.792C235.445 289.074 236.146 292.592 236.146 296.144Z" fill="#C0C0C0"/>
<path d="M217.659 321.972C219.501 321.506 221.295 320.869 223.02 320.07H99.1931C100.909 321.312 102.754 322.366 104.695 323.214H214.939C215.763 322.639 216.685 322.218 217.659 321.972Z" fill="#999999"/>
<path opacity="0.2" d="M212.22 303.989H108.279C97.7627 303.989 89.2424 303.328 89.2424 292.827C89.2424 287.779 91.2481 282.936 94.8182 279.366C98.3883 275.796 103.23 273.791 108.279 273.791H212.22C214.72 273.791 217.195 274.283 219.505 275.24C221.815 276.196 223.913 277.599 225.681 279.366C227.449 281.134 228.851 283.233 229.808 285.542C230.765 287.852 231.257 290.327 231.257 292.827C231.225 303.328 222.705 303.989 212.22 303.989Z" fill="white"/>
<path d="M236.146 296.144C236.144 299.696 235.442 303.212 234.08 306.492C232.718 309.771 230.723 312.751 228.209 315.259C225.695 317.767 222.711 319.755 219.428 321.109C216.145 322.464 212.627 323.157 209.076 323.151H111.203C104.041 323.151 97.1712 320.306 92.1064 315.241C87.0417 310.176 84.1963 303.307 84.1963 296.144V296.144C84.1942 292.596 84.8913 289.083 86.2476 285.804C87.6039 282.526 89.5929 279.547 92.1009 277.037C94.6089 274.528 97.5868 272.537 100.864 271.179C104.142 269.821 107.655 269.122 111.203 269.122H209.076C212.629 269.115 216.148 269.81 219.432 271.165C222.716 272.52 225.7 274.51 228.214 277.02C230.729 279.53 232.723 282.511 234.084 285.792C235.445 289.074 236.146 292.592 236.146 296.144Z" stroke="#757575" stroke-linecap="round" stroke-linejoin="round"/>
<path d="M201.31 162.32H123.779C119.511 162.322 115.285 161.483 111.342 159.85C107.399 158.218 103.816 155.825 100.798 152.807C97.7806 149.789 95.3873 146.207 93.7551 142.263C92.1229 138.32 91.2838 134.094 91.2859 129.826C91.2838 125.559 92.1229 121.332 93.7551 117.389C95.3873 113.446 97.7806 109.863 100.798 106.845C103.816 103.828 107.399 101.434 111.342 99.8022C115.285 98.17 119.511 97.3309 123.779 97.333H201.31C205.579 97.3309 209.806 98.1699 213.75 99.8019C217.694 101.434 221.278 103.827 224.296 106.845C227.315 109.862 229.71 113.445 231.344 117.388C232.978 121.331 233.819 125.558 233.819 129.826C233.819 134.095 232.978 138.321 231.344 142.265C229.71 146.208 227.315 149.791 224.296 152.808C221.278 155.825 217.694 158.219 213.75 159.851C209.806 161.483 205.579 162.322 201.31 162.32Z" fill="#263238" stroke="#263238" stroke-linecap="round" stroke-linejoin="round"/>
<path d="M198.936 94.9438H121.39C103.444 94.9438 88.8965 109.492 88.8965 127.437V127.453C88.8965 145.398 103.444 159.946 121.39 159.946H198.936C216.882 159.946 231.43 145.398 231.43 127.453V127.437C231.43 109.492 216.882 94.9438 198.936 94.9438Z" fill="#BFBFBF"/>
<path d="M207.331 181.231H113.545C95.6 181.231 81.0522 195.779 81.0522 213.724V213.74C81.0522 231.685 95.6 246.233 113.545 246.233H207.331C225.277 246.233 239.824 231.685 239.824 213.74V213.724C239.824 195.779 225.277 181.231 207.331 181.231Z" fill="#E96D13"/>
<path d="M207.331 181.231H113.545C95.6 181.231 81.0522 195.779 81.0522 213.724V213.74C81.0522 231.685 95.6 246.233 113.545 246.233H207.331C225.277 246.233 239.824 231.685 239.824 213.74V213.724C239.824 195.779 225.277 181.231 207.331 181.231Z" fill="#757575"/>
<path d="M198.559 190.113H121.783C107.085 190.113 95.1689 201.038 95.1689 214.51C95.1689 227.982 107.085 238.908 121.783 238.908H198.559C213.258 238.908 225.158 227.982 225.158 214.51C225.158 201.038 213.258 190.113 198.559 190.113Z" fill="#999999" stroke="#263238" stroke-linecap="round" stroke-linejoin="round"/>
<path d="M198.559 190.113C213.258 190.113 225.158 201.038 225.158 214.51C225.158 227.982 213.258 238.907 198.559 238.907H121.783C107.085 238.907 95.1689 227.982 95.1689 214.51C95.1689 201.038 107.085 190.113 121.783 190.113H198.559ZM198.559 188.541H121.783C106.236 188.541 93.5969 200.189 93.5969 214.51C93.5969 228.831 106.173 240.479 121.783 240.479H198.559C214.091 240.479 226.73 228.831 226.73 214.51C226.73 200.189 214.154 188.541 198.559 188.541Z" fill="white"/>
<path d="M198.559 190.113H121.783C107.085 190.113 95.1689 201.038 95.1689 214.51C95.1689 227.982 107.085 238.908 121.783 238.908H198.559C213.258 238.908 225.158 227.982 225.158 214.51C225.158 201.038 213.258 190.113 198.559 190.113Z" stroke="#263238" stroke-linecap="round" stroke-linejoin="round"/>
<path d="M263.105 368.943H130.712C125.312 368.943 120.934 373.321 120.934 378.721V410.098C120.934 415.498 125.312 419.876 130.712 419.876H263.105C268.506 419.876 272.883 415.498 272.883 410.098V378.721C272.883 373.321 268.506 368.943 263.105 368.943Z" fill="#263238"/>
<path d="M272.899 407.017V410.161C272.899 411.445 272.646 412.717 272.155 413.903C271.663 415.089 270.943 416.167 270.035 417.075C269.127 417.983 268.049 418.703 266.863 419.195C265.677 419.686 264.405 419.939 263.121 419.939H130.696C128.105 419.935 125.622 418.903 123.792 417.069C121.962 415.236 120.934 412.752 120.934 410.161V407.017C120.934 409.608 121.962 412.092 123.792 413.925C125.622 415.759 128.105 416.791 130.696 416.795H263.121C264.405 416.795 265.677 416.542 266.863 416.051C268.049 415.559 269.127 414.839 270.035 413.931C270.943 413.023 271.663 411.945 272.155 410.759C272.646 409.573 272.899 408.301 272.899 407.017Z" fill="#263238"/>
<path d="M260.575 366.24H128.181C122.781 366.24 118.403 370.617 118.403 376.018V407.395C118.403 412.795 122.781 417.173 128.181 417.173H260.575C265.975 417.173 270.353 412.795 270.353 407.395V376.018C270.353 370.617 265.975 366.24 260.575 366.24Z" fill="#BFBFBF"/>
<path d="M270.384 404.313V407.457C270.384 408.742 270.131 410.013 269.64 411.199C269.148 412.386 268.428 413.463 267.52 414.371C266.612 415.279 265.534 416 264.348 416.491C263.162 416.982 261.89 417.235 260.606 417.235H128.165C125.575 417.231 123.092 416.199 121.261 414.366C119.431 412.533 118.403 410.048 118.403 407.457V404.313C118.403 406.904 119.431 409.389 121.261 411.222C123.092 413.055 125.575 414.087 128.165 414.091H260.575C261.861 414.095 263.136 413.846 264.326 413.356C265.516 412.867 266.598 412.147 267.509 411.239C268.42 410.33 269.143 409.251 269.637 408.063C270.13 406.874 270.384 405.6 270.384 404.313Z" fill="#BFBFBF"/>
<path d="M293.571 749.855C293.037 749.98 274.927 749.98 274.408 749.855C261.109 746.946 213.934 731.446 256.456 681.237H310.895C353.401 731.415 306.854 746.946 293.571 749.855Z" fill="white" stroke="#263238" stroke-miterlimit="10"/>
<path d="M310.879 681.567C310.879 682.384 309.652 683.139 307.499 683.815C302.783 682.353 293.854 681.378 283.51 681.378C273.166 681.378 264.19 682.353 259.537 683.815C257.383 683.154 256.157 682.384 256.157 681.567C256.157 678.989 268.403 676.851 283.51 676.851C298.617 676.851 310.879 678.989 310.879 681.567Z" fill="white" stroke="#263238" stroke-miterlimit="10"/>
<path d="M307.499 683.815C302.783 685.261 293.854 686.236 283.51 686.236C273.166 686.236 264.19 685.261 259.537 683.815C264.253 682.353 273.182 681.378 283.51 681.378C293.838 681.378 302.846 682.353 307.499 683.815Z" fill="#263238" stroke="#263238" stroke-miterlimit="10"/>
<path d="M304.481 695.778C306.399 695.385 308.269 694.944 310.124 694.457L304.481 695.778Z" fill="white"/>
<path d="M304.481 695.778C306.399 695.385 308.269 694.944 310.124 694.457" stroke="#263238" stroke-miterlimit="10"/>
<path d="M257.541 693.671C270.526 698.309 285.758 698.843 299.859 696.611L257.541 693.671Z" fill="white"/>
<path d="M257.541 693.671C270.526 698.309 285.758 698.843 299.859 696.611" stroke="#263238" stroke-miterlimit="10"/>
<path d="M321.757 602.621C315.611 603.58 306.745 600.326 306.587 594.242C306.589 593.27 306.721 592.302 306.98 591.365C311.539 592.104 316.067 589.275 320.468 591.019C322.858 592.026 327.652 594.462 328.328 597.024C329.146 600.483 325.121 602.102 321.757 602.621Z" fill="#263238"/>
<path d="M301.824 595.641C297.108 593.519 293.209 590.642 292.659 583.977C292.423 581.163 293.634 578.082 296.275 577.925C297.241 577.959 298.186 578.22 299.032 578.687C299.879 579.154 300.604 579.814 301.148 580.613C302.257 582.188 303.028 583.976 303.412 585.863C303.848 587.793 303.922 589.786 303.632 591.743C303.289 593.148 302.675 594.472 301.824 595.641Z" fill="#263238"/>
<path d="M315.233 580.99C309.495 588.536 302.657 595.311 296.118 602.558L315.233 580.99Z" fill="#263238"/>
<path d="M315.233 580.99C309.495 588.536 302.657 595.311 296.118 602.558" stroke="#263238" stroke-miterlimit="10"/>
<path d="M303.506 623.199C300.32 623.482 297.11 623.107 294.074 622.098C291.056 621.029 288.179 619.284 287.708 616.25C287.542 615.283 287.542 614.294 287.708 613.326C292.298 613.452 296.605 610.685 300.897 612.698C303.239 613.767 307.766 616.58 308.568 618.891C309.684 621.957 306.54 622.837 303.506 623.199Z" fill="#263238"/>
<path d="M283.337 618.608C280.847 618.307 278.445 617.499 276.279 616.235C274.22 614.851 272.695 612.65 272.255 608.595C271.862 605.262 273.23 601.348 276.263 600.53C277.246 600.344 278.262 600.449 279.186 600.831C280.111 601.214 280.903 601.858 281.467 602.684C282.594 604.318 283.395 606.154 283.825 608.092C284.339 610.088 284.572 612.146 284.516 614.207C284.338 615.723 283.941 617.206 283.337 618.608Z" fill="#263238"/>
<path d="M296.117 602.558C292.805 606.187 289.703 610.003 286.827 613.987C285.364 616.028 284.041 618.165 282.866 620.385C282.331 621.516 281.718 622.633 281.294 623.796L279.91 627.286" fill="#263238"/>
<path d="M296.117 602.558C292.805 606.187 289.703 610.003 286.827 613.987C285.364 616.028 284.041 618.165 282.866 620.385C282.331 621.516 281.718 622.633 281.294 623.796L279.91 627.286" stroke="#263238" stroke-miterlimit="10"/>
<path d="M295.536 642.283C292.832 643.952 289.833 645.089 286.702 645.631C283.479 646.181 280.178 645.804 278.354 643.383C277.788 642.583 277.343 641.704 277.034 640.773C278.999 639.652 280.838 638.324 282.52 636.812C284.177 635.368 286.281 634.541 288.478 634.47C291.024 634.47 296.338 635.334 298.036 636.859C299.246 637.897 299.23 638.824 298.586 639.704C297.745 640.752 296.709 641.628 295.536 642.283Z" fill="#263238"/>
<path d="M275.446 647.376C270.415 648.665 265.526 649.404 261.046 643.587C259.191 641.119 258.499 636.843 260.905 634.595C261.674 633.943 262.626 633.544 263.631 633.454C264.636 633.364 265.644 633.587 266.517 634.092C268.271 635.056 269.819 636.354 271.075 637.912C272.444 639.461 273.602 641.184 274.518 643.037C275.042 644.429 275.355 645.891 275.446 647.376Z" fill="#263238"/>
<path d="M279.816 627.286C278.2 631.996 277.063 636.857 276.42 641.795C275.762 646.692 275.478 651.632 275.572 656.572" fill="#263238"/>
<path d="M279.816 627.286C278.2 631.996 277.063 636.857 276.42 641.795C275.762 646.692 275.478 651.632 275.572 656.572" stroke="#263238" stroke-miterlimit="10"/>
<path d="M295.19 666.492C293.109 668.964 290.519 670.959 287.597 672.339C284.595 673.723 281.388 674.163 278.936 672.339C278.173 671.726 277.515 670.994 276.986 670.17C280.429 667.12 281.577 662.09 286.088 660.628C288.541 659.811 293.76 658.773 295.929 659.842C298.79 661.194 297.108 664.086 295.19 666.492Z" fill="#263238"/>
<path d="M277.159 676.914C272.679 679.382 268.026 681.205 262.304 676.914C259.867 675.106 258.201 671.427 259.804 668.834C260.395 668.026 261.206 667.407 262.14 667.05C263.075 666.693 264.092 666.613 265.071 666.821C267.012 667.211 268.859 667.975 270.51 669.069C272.273 670.118 273.864 671.433 275.226 672.968C276.097 674.16 276.751 675.495 277.159 676.914Z" fill="#263238"/>
<path d="M275.619 656.572C275.799 666.409 277.102 676.192 279.501 685.733L275.619 656.572Z" fill="#263238"/>
<path d="M275.619 656.572C275.799 666.409 277.102 676.192 279.501 685.733" stroke="#263238" stroke-miterlimit="10"/>
<path d="M334.27 650.645C328.202 652.988 318.77 651.51 317.701 645.316C317.56 644.315 317.56 643.299 317.701 642.298C322.417 642.078 326.489 638.211 331.189 639.013C333.751 639.5 338.955 640.946 340.008 643.43C341.375 646.778 337.571 649.435 334.27 650.645Z" fill="#263238"/>
<path d="M313.19 647.722C308.112 646.511 303.758 644.357 302.186 637.708C301.526 634.91 302.186 631.546 304.874 630.823C305.827 630.656 306.807 630.726 307.727 631.024C308.648 631.323 309.481 631.842 310.156 632.536C311.552 633.913 312.626 635.583 313.3 637.425C314.045 639.323 314.429 641.344 314.432 643.383C314.288 644.893 313.867 646.364 313.19 647.722Z" fill="#263238"/>
<path d="M324.272 629.895C319.824 638.887 313.913 647.266 308.364 655.927L324.272 629.895Z" fill="#263238"/>
<path d="M324.272 629.895C319.824 638.887 313.913 647.266 308.364 655.927" stroke="#263238" stroke-miterlimit="10"/>
<path d="M318.126 676.159C314.963 677.096 311.624 677.274 308.379 676.678C305.094 676.049 302.249 674.508 301.463 671.443C301.235 670.449 301.156 669.426 301.227 668.409C305.943 667.89 309.951 664.212 314.542 665.469C317.057 666.13 321.993 668.126 323.078 670.421C324.492 673.455 321.144 675.184 318.126 676.159Z" fill="#263238"/>
<path d="M297.187 674.351C292.015 673.77 287.205 672.622 285.255 665.406C284.867 663.805 284.905 662.131 285.365 660.549C285.561 659.796 285.92 659.096 286.417 658.498C286.914 657.9 287.538 657.42 288.242 657.091C289.191 656.779 290.211 656.749 291.176 657.006C292.142 657.263 293.012 657.795 293.681 658.537C295.025 660.017 296.052 661.755 296.699 663.646C297.452 665.61 297.902 667.677 298.036 669.777C297.989 671.336 297.703 672.879 297.187 674.351Z" fill="#263238"/>
<path d="M308.364 655.928C302.783 664.589 294.216 676.725 290.584 686.597L308.364 655.928Z" fill="#263238"/>
<path d="M308.364 655.928C302.783 664.589 294.216 676.725 290.584 686.597" stroke="#263238" stroke-miterlimit="10"/>
<path d="M331.535 625.903C330.97 629.618 329.029 632.985 326.096 635.335C325.781 635.539 321.081 638.368 320.028 637.881C317.987 635.779 316.718 633.047 316.428 630.131C315.97 627.027 316.434 623.856 317.764 621.014C319.085 618.373 323.675 614.081 327.448 615.15C331.22 616.219 331.959 623.183 331.535 625.903Z" fill="#263238"/>
<path d="M323.832 572.124C323.284 575.823 321.379 579.186 318.487 581.556C318.157 581.761 313.504 584.7 312.435 584.15C310.373 582.072 309.076 579.357 308.756 576.447C308.257 573.347 308.689 570.168 309.998 567.314C311.287 564.673 315.83 560.318 319.619 561.356C323.407 562.393 324.146 569.405 323.832 572.124Z" fill="#263238"/>
<rect x="547" y="0.399414" width="318" height="69.0311" rx="34.5155" fill="white"/>
<rect x="574.52" y="12.5103" width="46.2827" height="44.8097" rx="5" fill="#D9D9D9"/>
<rect x="628.308" y="18.5654" width="112.58" height="12.1107" rx="6.05536" fill="#D9D9D9"/>
<rect x="628.308" y="35.5205" width="203.894" height="6.05536" rx="3.02768" fill="#D9D9D9"/>
<rect x="628.308" y="43.998" width="168.869" height="6.05536" rx="3.02768" fill="#D9D9D9"/>
</svg>
