<svg width="600" height="600" viewBox="0 0 600 600" fill="none" xmlns="http://www.w3.org/2000/svg">
<path opacity="0.7" d="M81.516 165.569C81.516 165.569 48.06 251.969 95.076 338.969C142.092 425.969 238.932 471.929 316.44 511.229C393.948 550.529 474.432 531.389 512.676 467.021C550.92 402.653 498.468 356.705 498.396 264.917C498.324 173.129 512.136 148.829 462.396 71.2852C412.656 -6.25879 290.724 -23.4308 198.516 34.0852C106.308 91.6012 81.516 165.569 81.516 165.569Z" fill="white"/>
<path d="M82.7999 483.053H336.228C337.248 481.421 338.28 479.789 339.336 478.193C366.6 436.697 410.256 407.105 457.932 393.221C479.292 387.005 502.428 383.309 519.588 369.149C537.252 354.593 545.364 331.361 548.868 308.741C553.128 281.357 550.824 250.649 532.236 230.093C510.408 205.961 473.832 203.249 445.392 187.433C396.444 160.193 377.472 98.1652 332.94 64.1812C304.8 42.7132 266.832 34.3972 232.8 39.1012C184.572 45.7852 139.2 78.1012 125.58 125.501C121.665 139.307 120.266 153.704 121.452 168.005C123.624 196.265 129.708 224.885 123.972 252.641C117.648 283.229 97.7519 309.041 85.8599 337.949C71.0519 373.949 69.0599 414.269 75.3359 452.645C77.0157 462.963 79.5115 473.131 82.7999 483.053Z" fill="#E96D13"/>
<path opacity="0.7" d="M82.7999 483.053H336.228C337.248 481.421 338.28 479.789 339.336 478.193C366.6 436.697 410.256 407.105 457.932 393.221C479.292 387.005 502.428 383.309 519.588 369.149C537.252 354.593 545.364 331.361 548.868 308.741C553.128 281.357 550.824 250.649 532.236 230.093C510.408 205.961 473.832 203.249 445.392 187.433C396.444 160.193 377.472 98.1652 332.94 64.1812C304.8 42.7132 266.832 34.3972 232.8 39.1012C184.572 45.7852 139.2 78.1012 125.58 125.501C121.665 139.307 120.266 153.704 121.452 168.005C123.624 196.265 129.708 224.885 123.972 252.641C117.648 283.229 97.7519 309.041 85.8599 337.949C71.0519 373.949 69.0599 414.269 75.3359 452.645C77.0157 462.963 79.5115 473.131 82.7999 483.053Z" fill="white"/>
<path d="M50.3879 483.053H552.372" stroke="#263238" stroke-linecap="round" stroke-linejoin="round"/>
<path d="M334.8 101.129V82.2892L320.688 81.0892C319.863 78.1427 318.695 75.3033 317.208 72.6292L326.316 61.8292L312.996 48.5092L302.196 57.6172C299.544 56.1245 296.724 54.9522 293.796 54.1252L292.596 40.0132H273.6L272.4 54.1252C269.472 54.9522 266.652 56.1245 264 57.6172L253.2 48.5092L239.88 61.8292L248.988 72.6292C247.501 75.3033 246.333 78.1427 245.508 81.0892L231.396 82.2892V101.129L245.508 102.329C246.337 105.255 247.505 108.074 248.988 110.729L239.88 121.529L253.2 134.849L264 125.741C266.652 127.234 269.472 128.406 272.4 129.233L273.6 143.345H292.44L293.64 129.233C296.588 128.407 299.428 127.235 302.1 125.741L312.9 134.849L326.22 121.529L317.112 110.729C318.595 108.074 319.763 105.255 320.592 102.329L334.8 101.129ZM283.08 113.597C278.751 113.597 274.519 112.313 270.92 109.908C267.32 107.503 264.515 104.085 262.858 100.085C261.201 96.0859 260.768 91.6849 261.613 87.439C262.457 83.1932 264.542 79.2931 267.603 76.232C270.664 73.1709 274.564 71.0863 278.81 70.2418C283.056 69.3972 287.457 69.8307 291.456 71.4873C295.456 73.144 298.874 75.9494 301.279 79.5489C303.684 83.1483 304.968 87.3801 304.968 91.7092C304.966 94.5872 304.398 97.4366 303.294 100.095C302.191 102.753 300.574 105.167 298.537 107.2C296.499 109.233 294.081 110.844 291.421 111.942C288.761 113.039 285.91 113.602 283.032 113.597H283.08Z" stroke="#263238" stroke-linecap="round" stroke-linejoin="round"/>
<path d="M537.228 285.269V276.245L530.46 275.657C530.062 274.246 529.502 272.885 528.792 271.601L533.16 266.405L526.8 260.021L521.616 264.389C520.335 263.674 518.973 263.114 517.56 262.721L516.972 255.953H507.936L507.36 262.721C505.946 263.112 504.584 263.672 503.304 264.389L498.108 260.021L491.724 266.405L496.092 271.601C495.373 272.882 494.809 274.243 494.412 275.657L487.644 276.245V285.269L494.412 285.857C494.809 287.271 495.373 288.632 496.092 289.913L491.688 295.061L498.072 301.445L503.268 297.077C504.548 297.794 505.91 298.354 507.324 298.745L507.9 305.513H516.936L517.524 298.745C518.937 298.352 520.299 297.792 521.58 297.077L526.764 301.445L533.16 295.061L528.792 289.865C529.502 288.582 530.062 287.221 530.46 285.809L537.228 285.269ZM512.424 291.269C510.347 291.271 508.316 290.658 506.587 289.505C504.859 288.353 503.511 286.714 502.715 284.796C501.918 282.877 501.709 280.766 502.112 278.728C502.516 276.69 503.515 274.818 504.983 273.349C506.451 271.879 508.322 270.878 510.359 270.472C512.396 270.066 514.508 270.273 516.427 271.067C518.347 271.862 519.987 273.207 521.142 274.934C522.296 276.661 522.912 278.692 522.912 280.769C522.91 282.148 522.637 283.513 522.108 284.786C521.579 286.06 520.804 287.216 519.828 288.19C518.852 289.164 517.694 289.936 516.419 290.462C515.145 290.989 513.779 291.259 512.4 291.257L512.424 291.269Z" stroke="#263238" stroke-linecap="round" stroke-linejoin="round"/>
<path d="M530.4 120.821C531.358 116.674 531.225 112.349 530.015 108.268C528.804 104.188 526.557 100.49 523.492 97.5366C520.427 94.5829 516.649 92.4737 512.526 91.4145C508.404 90.3554 504.077 90.3825 499.968 91.4931C497.465 87.054 493.594 83.5427 488.932 81.4827C484.271 79.4227 479.069 78.9242 474.101 80.0616C469.133 81.199 464.666 83.9113 461.365 87.7943C458.064 91.6773 456.107 96.523 455.784 101.609C453.172 101.11 450.485 101.155 447.891 101.744C445.298 102.332 442.854 103.45 440.713 105.027C438.572 106.605 436.781 108.608 435.451 110.911C434.12 113.213 433.281 115.766 432.984 118.409C430.309 118.691 427.836 119.96 426.047 121.969C424.259 123.977 423.285 126.581 423.315 129.27C423.345 131.96 424.377 134.541 426.21 136.509C428.042 138.478 430.544 139.692 433.224 139.913H523.56C525.772 139.897 527.926 139.202 529.73 137.922C531.534 136.642 532.902 134.838 533.648 132.756C534.394 130.673 534.483 128.412 533.902 126.278C533.321 124.143 532.099 122.238 530.4 120.821V120.821Z" stroke="#263238" stroke-linecap="round" stroke-linejoin="round"/>
<path d="M480.756 131.657V156.557" stroke="#263238" stroke-linecap="round" stroke-linejoin="round"/>
<path d="M480.756 116.729V126.677" stroke="#263238" stroke-linecap="round" stroke-linejoin="round"/>
<path d="M480.756 107.417V112.745" stroke="#263238" stroke-linecap="round" stroke-linejoin="round"/>
<path d="M476.052 153.653L480.756 159.473L485.46 153.653" stroke="#263238" stroke-linecap="round" stroke-linejoin="round"/>
<path d="M255.168 412.841C256.123 408.693 255.988 404.368 254.776 400.288C253.563 396.208 251.315 392.511 248.249 389.558C245.184 386.605 241.406 384.496 237.283 383.437C233.16 382.377 228.833 382.404 224.724 383.513C222.223 379.071 218.352 375.557 213.69 373.495C209.027 371.433 203.823 370.935 198.854 372.074C193.885 373.214 189.418 375.929 186.119 379.816C182.821 383.703 180.868 388.553 180.552 393.641C179.365 393.414 178.16 393.298 176.952 393.293C172.205 393.29 167.623 395.035 164.081 398.196C160.539 401.357 158.286 405.712 157.752 410.429C155.077 410.709 152.603 411.977 150.814 413.985C149.025 415.993 148.049 418.596 148.077 421.285C148.106 423.974 149.137 426.556 150.968 428.525C152.8 430.495 155.3 431.71 157.98 431.933H248.4C250.609 431.91 252.758 431.209 254.556 429.927C256.355 428.644 257.717 426.84 258.458 424.759C259.2 422.678 259.286 420.42 258.704 418.289C258.122 416.158 256.9 414.256 255.204 412.841H255.168Z" stroke="#263238" stroke-linecap="round" stroke-linejoin="round"/>
<path d="M205.488 427.241V402.353" stroke="#263238" stroke-linecap="round" stroke-linejoin="round"/>
<path d="M205.488 442.181V432.221" stroke="#263238" stroke-linecap="round" stroke-linejoin="round"/>
<path d="M205.488 451.493V446.165" stroke="#263238" stroke-linecap="round" stroke-linejoin="round"/>
<path d="M210.192 405.257L205.488 399.437L200.784 405.257" stroke="#263238" stroke-linecap="round" stroke-linejoin="round"/>
<path d="M64.1759 96.9412H365.916C367.265 96.9412 368.559 97.4772 369.514 98.4314C370.468 99.3856 371.004 100.68 371.004 102.029V116.261H59.0879V102.029C59.0879 100.68 59.6239 99.3856 60.5781 98.4314C61.5323 97.4772 62.8265 96.9412 64.1759 96.9412Z" fill="#E96D13" stroke="#263238" stroke-linecap="round" stroke-linejoin="round"/>
<path d="M387.996 119.825H72.7439V341.669H387.996V119.825Z" fill="white" stroke="#263238" stroke-linecap="round" stroke-linejoin="round"/>
<path d="M392.82 106.589C392.82 107.538 392.538 108.466 392.011 109.256C391.483 110.045 390.734 110.66 389.857 111.024C388.98 111.387 388.014 111.482 387.083 111.297C386.152 111.112 385.297 110.654 384.626 109.983C383.954 109.312 383.497 108.457 383.312 107.525C383.127 106.594 383.222 105.629 383.585 104.752C383.948 103.875 384.564 103.125 385.353 102.598C386.142 102.071 387.07 101.789 388.02 101.789C389.293 101.789 390.514 102.295 391.414 103.195C392.314 104.095 392.82 105.316 392.82 106.589Z" fill="white" stroke="#263238" stroke-linecap="round" stroke-linejoin="round"/>
<path d="M375.828 106.589C375.828 107.538 375.547 108.466 375.019 109.256C374.492 110.045 373.742 110.66 372.865 111.024C371.988 111.387 371.023 111.482 370.092 111.297C369.16 111.112 368.305 110.654 367.634 109.983C366.963 109.312 366.505 108.457 366.32 107.525C366.135 106.594 366.23 105.629 366.593 104.752C366.957 103.875 367.572 103.125 368.361 102.598C369.151 102.071 370.079 101.789 371.028 101.789C372.301 101.789 373.522 102.295 374.422 103.195C375.322 104.095 375.828 105.316 375.828 106.589Z" fill="white" stroke="#263238" stroke-linecap="round" stroke-linejoin="round"/>
<path d="M358.8 106.589C358.8 107.538 358.518 108.466 357.991 109.256C357.463 110.045 356.714 110.66 355.837 111.024C354.959 111.387 353.994 111.482 353.063 111.297C352.132 111.112 351.277 110.654 350.606 109.983C349.934 109.312 349.477 108.457 349.292 107.525C349.107 106.594 349.202 105.629 349.565 104.752C349.928 103.875 350.544 103.125 351.333 102.598C352.122 102.071 353.05 101.789 354 101.789C355.273 101.789 356.494 102.295 357.394 103.195C358.294 104.095 358.8 105.316 358.8 106.589Z" fill="white" stroke="#263238" stroke-linecap="round" stroke-linejoin="round"/>
<path d="M378.444 129.341H365.964" stroke="#263238" stroke-width="2" stroke-linecap="round" stroke-linejoin="round"/>
<path d="M378.444 134.405H365.964" stroke="#263238" stroke-width="2" stroke-linecap="round" stroke-linejoin="round"/>
<path d="M378.444 139.469H365.964" stroke="#263238" stroke-width="2" stroke-linecap="round" stroke-linejoin="round"/>
<path d="M94.5718 260.237H189.048" stroke="#263238" stroke-width="2" stroke-linecap="round" stroke-linejoin="round"/>
<path d="M94.5718 267.689H189.048" stroke="#263238" stroke-width="2" stroke-linecap="round" stroke-linejoin="round"/>
<path d="M94.5718 275.273H169.068" stroke="#263238" stroke-width="2" stroke-linecap="round" stroke-linejoin="round"/>
<path d="M294.912 122.321V122.921" stroke="#263238" stroke-linecap="round" stroke-linejoin="round"/>
<path d="M294.912 126.521V335.597" stroke="#263238" stroke-linecap="round" stroke-linejoin="round" stroke-dasharray="1 3"/>
<path d="M294.912 337.397V337.997" stroke="#263238" stroke-linecap="round" stroke-linejoin="round"/>
<path d="M76.5359 291.917H77.1359" stroke="#263238" stroke-linecap="round" stroke-linejoin="round"/>
<path d="M80.7239 291.917H380.772" stroke="#263238" stroke-linecap="round" stroke-linejoin="round" stroke-dasharray="1 2.99"/>
<path d="M382.572 291.917H383.172" stroke="#263238" stroke-linecap="round" stroke-linejoin="round"/>
<path d="M296.988 289.841H292.848V293.981H296.988V289.841Z" fill="white" stroke="#263238" stroke-linecap="round" stroke-linejoin="round"/>
<path d="M278.388 252.149H223.116" stroke="#263238" stroke-linecap="round" stroke-linejoin="round"/>
<path d="M279.456 277.709C279.456 277.709 279.456 252.017 250.752 252.017C222.048 252.017 222 277.709 222 277.709" stroke="#263238" stroke-linecap="round" stroke-linejoin="round"/>
<path d="M279.456 280.133C280.794 280.133 281.88 279.048 281.88 277.709C281.88 276.37 280.794 275.285 279.456 275.285C278.117 275.285 277.032 276.37 277.032 277.709C277.032 279.048 278.117 280.133 279.456 280.133Z" fill="#E96D13" stroke="#263238" stroke-linecap="round" stroke-linejoin="round"/>
<path d="M219.6 277.709C219.6 277.234 219.741 276.77 220.005 276.376C220.268 275.981 220.643 275.673 221.082 275.492C221.52 275.31 222.003 275.263 222.468 275.355C222.934 275.448 223.362 275.676 223.697 276.012C224.033 276.348 224.261 276.775 224.354 277.241C224.447 277.706 224.399 278.189 224.217 278.628C224.036 279.066 223.728 279.441 223.333 279.705C222.939 279.968 222.475 280.109 222 280.109C221.364 280.109 220.753 279.856 220.303 279.406C219.853 278.956 219.6 278.346 219.6 277.709Z" fill="#E96D13" stroke="#263238" stroke-linecap="round" stroke-linejoin="round"/>
<path d="M277.332 254.141H281.58V249.893H277.332V254.141Z" fill="#E96D13" stroke="#263238" stroke-linecap="round" stroke-linejoin="round"/>
<path d="M248.628 254.141H252.876V249.893H248.628V254.141Z" fill="#E96D13" stroke="#263238" stroke-linecap="round" stroke-linejoin="round"/>
<path d="M219.924 254.141H224.172V249.893H219.924V254.141Z" fill="#E96D13" stroke="#263238" stroke-linecap="round" stroke-linejoin="round"/>
<path d="M128.916 174.905V166.409L122.568 165.869C122.191 164.542 121.664 163.261 120.996 162.053L125.1 157.181L119.1 151.181L114.216 155.285C113.012 154.609 111.731 154.081 110.4 153.713L109.848 147.353H101.376L100.824 153.713C99.4962 154.079 98.2186 154.607 97.0199 155.285L92.1359 151.181L86.1359 157.181L90.2399 162.053C89.5671 163.259 89.0395 164.54 88.6679 165.869L82.3079 166.409V174.905L88.6679 175.445C89.0416 176.774 89.5691 178.055 90.2399 179.261L86.1359 184.133L92.1359 190.133L97.0199 186.029C98.2111 186.705 99.4805 187.233 100.8 187.601L101.352 193.961H109.836L110.388 187.601C111.715 187.233 112.992 186.705 114.192 186.029L119.076 190.133L125.076 184.133L120.972 179.261C121.638 178.052 122.165 176.772 122.544 175.445L128.916 174.905ZM105.6 180.521C103.649 180.521 101.742 179.943 100.12 178.859C98.4976 177.775 97.2333 176.234 96.4867 174.432C95.7401 172.63 95.5448 170.646 95.9254 168.733C96.306 166.819 97.2455 165.062 98.625 163.682C100.004 162.303 101.762 161.363 103.675 160.983C105.589 160.602 107.572 160.798 109.375 161.544C111.177 162.291 112.718 163.555 113.801 165.177C114.885 166.799 115.464 168.706 115.464 170.657C115.464 173.273 114.425 175.782 112.575 177.632C110.725 179.482 108.216 180.521 105.6 180.521Z" fill="#E96D13" stroke="#263238" stroke-linecap="round" stroke-linejoin="round"/>
<path d="M157.764 193.937V188.129L153.408 187.745C153.157 186.837 152.799 185.963 152.34 185.141L155.148 181.805L151.032 177.701L147.696 180.509C146.872 180.051 145.998 179.689 145.092 179.429L144.72 175.061H138.912L138.528 179.417C137.622 179.677 136.748 180.039 135.924 180.497L132.588 177.689L128.472 181.793L131.292 185.129C130.824 185.948 130.461 186.823 130.212 187.733L125.856 188.117V193.925L130.212 194.297C130.459 195.208 130.822 196.083 131.292 196.901L128.472 200.261L132.588 204.365L135.924 201.557C136.748 202.015 137.622 202.377 138.528 202.637L138.912 206.981H144.72L145.092 202.637C145.998 202.377 146.872 202.015 147.696 201.557L151.032 204.365L155.148 200.261L152.4 196.913C152.861 196.092 153.22 195.217 153.468 194.309L157.764 193.937ZM141.816 197.777C140.479 197.779 139.171 197.385 138.058 196.643C136.945 195.902 136.077 194.847 135.565 193.612C135.052 192.377 134.917 191.018 135.177 189.706C135.437 188.394 136.081 187.189 137.027 186.244C137.972 185.298 139.177 184.655 140.489 184.394C141.801 184.134 143.16 184.269 144.395 184.782C145.63 185.294 146.685 186.162 147.426 187.275C148.168 188.388 148.562 189.696 148.56 191.033C148.557 192.821 147.845 194.534 146.581 195.798C145.317 197.062 143.604 197.774 141.816 197.777Z" fill="#E96D13" stroke="#263238" stroke-linecap="round" stroke-linejoin="round"/>
<path d="M306.768 306.029H353.244" stroke="#263238" stroke-width="2" stroke-linecap="round" stroke-linejoin="round"/>
<path d="M306.768 313.481H353.244" stroke="#263238" stroke-width="2" stroke-linecap="round" stroke-linejoin="round"/>
<path d="M306.768 321.065H333.264" stroke="#263238" stroke-width="2" stroke-linecap="round" stroke-linejoin="round"/>
<path d="M245.532 324.161H221.064C219.473 324.161 217.947 323.529 216.821 322.404C215.696 321.279 215.064 319.752 215.064 318.161C215.064 316.57 215.696 315.044 216.821 313.919C217.947 312.793 219.473 312.161 221.064 312.161H245.532C247.123 312.161 248.649 312.793 249.775 313.919C250.9 315.044 251.532 316.57 251.532 318.161C251.532 319.752 250.9 321.279 249.775 322.404C248.649 323.529 247.123 324.161 245.532 324.161Z" fill="#E96D13" stroke="#263238" stroke-linecap="round" stroke-linejoin="round"/>
<path d="M291.132 324.161H266.664C265.073 324.161 263.547 323.529 262.421 322.404C261.296 321.279 260.664 319.752 260.664 318.161C260.664 316.57 261.296 315.044 262.421 313.919C263.547 312.793 265.073 312.161 266.664 312.161H291.132C292.723 312.161 294.249 312.793 295.375 313.919C296.5 315.044 297.132 316.57 297.132 318.161C297.132 319.752 296.5 321.279 295.375 322.404C294.249 323.529 292.723 324.161 291.132 324.161Z" fill="#E96D13" stroke="#263238" stroke-linecap="round" stroke-linejoin="round"/>
<path d="M362.052 195.425H310.164V247.313H362.052V195.425Z" fill="white" stroke="#263238" stroke-linecap="round" stroke-linejoin="round"/>
<path d="M310.164 195.425L362.052 247.313" stroke="#263238" stroke-linecap="round" stroke-linejoin="round"/>
<path d="M362.052 195.425L310.164 247.313" stroke="#263238" stroke-linecap="round" stroke-linejoin="round"/>
<path d="M330.516 136.517V148.625L325.176 153.965H313.068V136.517H330.516Z" fill="white" stroke="#263238" stroke-linecap="round" stroke-linejoin="round"/>
<path d="M330.516 148.625L325.176 153.965V148.625H330.516Z" fill="white" stroke="#263238" stroke-linecap="round" stroke-linejoin="round"/>
<path d="M144.96 230.153V242.261L139.62 247.613H127.512V230.153H144.96Z" fill="white" stroke="#263238" stroke-linecap="round" stroke-linejoin="round"/>
<path d="M144.96 242.261L139.62 247.613V242.261H144.96Z" fill="white" stroke="#263238" stroke-linecap="round" stroke-linejoin="round"/>
<path d="M79.0318 304.757V316.865L73.6918 322.205H61.5718V304.757H79.0318Z" fill="white" stroke="#263238" stroke-linecap="round" stroke-linejoin="round"/>
<path d="M79.0319 316.865L73.6919 322.205V316.865H79.0319Z" fill="white" stroke="#263238" stroke-linecap="round" stroke-linejoin="round"/>
<path d="M418.404 164.597H354.012V204.953H418.404V164.597Z" fill="#263238" stroke="#263238" stroke-linecap="round" stroke-linejoin="round"/>
<path d="M418.404 164.597H354.012V170.729H418.404V164.597Z" fill="#E96D13" stroke="#263238" stroke-linecap="round" stroke-linejoin="round"/>
<path d="M360.576 175.901H377.04" stroke="white" stroke-linecap="round" stroke-linejoin="round"/>
<path d="M368.808 180.497H397.296" stroke="white" stroke-linecap="round" stroke-linejoin="round"/>
<path d="M365.172 184.781H373.56" stroke="white" stroke-linecap="round" stroke-linejoin="round"/>
<path d="M368.808 189.833H387.996" stroke="white" stroke-linecap="round" stroke-linejoin="round"/>
<path d="M360.576 194.417H377.04" stroke="white" stroke-linecap="round" stroke-linejoin="round"/>
<path d="M176.232 326.969H111.84V367.325H176.232V326.969Z" fill="#263238" stroke="#263238" stroke-linecap="round" stroke-linejoin="round"/>
<path d="M176.232 326.969H111.84V333.101H176.232V326.969Z" fill="#E96D13" stroke="#263238" stroke-linecap="round" stroke-linejoin="round"/>
<path d="M118.416 338.285H134.868" stroke="white" stroke-linecap="round" stroke-linejoin="round"/>
<path d="M126.636 342.869H155.124" stroke="white" stroke-linecap="round" stroke-linejoin="round"/>
<path d="M123 347.153H131.388" stroke="white" stroke-linecap="round" stroke-linejoin="round"/>
<path d="M126.636 352.205H145.824" stroke="white" stroke-linecap="round" stroke-linejoin="round"/>
<path d="M118.416 356.801H134.868" stroke="white" stroke-linecap="round" stroke-linejoin="round"/>
<path d="M200.4 34.6614H141.24C140.547 34.6645 139.884 34.9412 139.394 35.4311C138.904 35.921 138.627 36.5845 138.624 37.2774V64.8774C138.627 65.5691 138.904 66.2314 139.394 66.7194C139.885 67.2074 140.548 67.4814 141.24 67.4814H167.76L170.784 78.2814L173.82 67.4814H200.4C201.092 67.4814 201.755 67.2074 202.246 66.7194C202.736 66.2314 203.013 65.5691 203.016 64.8774V37.2774C203.013 36.5845 202.736 35.921 202.246 35.4311C201.756 34.9412 201.093 34.6645 200.4 34.6614Z" fill="#E96D13" stroke="#263238" stroke-linecap="round" stroke-linejoin="round"/>
<path d="M148.44 42.5574H193.14" stroke="#263238" stroke-width="2" stroke-linecap="round" stroke-linejoin="round"/>
<path d="M148.44 48.2214H193.14" stroke="#263238" stroke-width="2" stroke-linecap="round" stroke-linejoin="round"/>
<path d="M148.44 53.8853H193.14" stroke="#263238" stroke-width="2" stroke-linecap="round" stroke-linejoin="round"/>
<path d="M148.44 59.5493H182.124" stroke="#263238" stroke-width="2" stroke-linecap="round" stroke-linejoin="round"/>
<path d="M297.444 230.957C291.096 231.497 283.044 223.913 283.044 223.913C282.89 224.073 282.7 224.194 282.491 224.268C282.282 224.341 282.058 224.365 281.838 224.337C281.618 224.309 281.407 224.23 281.223 224.107C281.039 223.983 280.886 223.818 280.776 223.625C279.744 222.137 275.268 218.693 275.016 215.717C274.764 212.741 280.044 207.917 280.044 207.917C275.976 209.021 275.544 206.633 275.544 206.633C275.544 206.633 282.396 200.981 284.796 200.825C285.732 200.765 289.812 203.117 293.76 206.285C297.888 209.609 305.64 221.309 305.64 221.309C305.64 221.309 331.86 240.353 338.484 245.225C347.232 251.657 357.6 263.069 357.6 263.069C357.6 263.069 392.4 278.765 402 287.393L389.016 318.137C389.016 318.137 357.372 296.933 354.216 291.557C351.06 286.181 347.892 289.409 344.724 285.893C341.556 282.377 338.52 278.357 338.52 278.357C332.886 275.637 327.772 271.949 323.412 267.461C316.02 259.865 309.504 248.261 305.412 241.277C303.293 237.454 300.607 233.974 297.444 230.957Z" fill="white" stroke="#263238" stroke-linecap="round" stroke-linejoin="round"/>
<path d="M299.376 226.469C299.376 226.469 289.932 224.177 289.116 217.949C288.755 216.37 288.064 214.886 287.088 213.593C287.088 213.593 278.28 213.161 278.832 209.573L290.592 208.529C294.873 210.174 298.477 213.208 300.828 217.145" fill="white"/>
<path d="M299.376 226.469C299.376 226.469 289.932 224.177 289.116 217.949C288.755 216.37 288.064 214.886 287.088 213.593C287.088 213.593 278.28 213.161 278.832 209.573L290.592 208.529C294.873 210.174 298.477 213.208 300.828 217.145" stroke="#263238" stroke-linecap="round" stroke-linejoin="round"/>
<path d="M283.032 223.913C283.451 223.135 283.591 222.238 283.428 221.369C283.428 221.369 286.02 220.889 285.732 218.597C285.732 218.597 289.572 218.129 287.088 213.593" stroke="#263238" stroke-linecap="round" stroke-linejoin="round"/>
<path d="M285.732 218.597C285.732 218.597 280.56 214.769 279.984 213.017" stroke="#263238" stroke-linecap="round" stroke-linejoin="round"/>
<path d="M283.428 221.369C283.428 221.369 277.92 218.009 277.824 216.053" stroke="#263238" stroke-linecap="round" stroke-linejoin="round"/>
<path d="M284.688 204.113C284.688 204.113 282.936 207.257 280.032 207.917" stroke="#263238" stroke-linecap="round" stroke-linejoin="round"/>
<path d="M283.812 205.337C284.733 205.818 285.602 206.393 286.404 207.053" stroke="#263238" stroke-linecap="round" stroke-linejoin="round"/>
<path d="M484.944 311.621C471.365 305.875 457.359 301.196 443.052 297.629C421.98 292.697 387.852 288.293 387.852 288.293C387.852 288.293 397.236 384.053 394.764 389.813C392.292 395.573 377.46 414.917 377.46 414.917C377.46 414.917 457.728 446.213 471.72 448.877C485.712 451.541 478.416 402.977 478.416 402.977C478.416 402.977 493.2 341.249 484.944 311.621Z" fill="#263238"/>
<path d="M456.132 301.337C456.132 301.337 458.04 304.937 453.024 306.821C440.028 311.621 426.18 307.385 427.656 302.297C428.22 300.353 431.436 302.297 431.256 295.097C431.168 293.988 430.871 292.905 430.38 291.905C429.464 289.958 428.358 288.105 427.08 286.373C425.693 284.446 424.207 282.591 422.628 280.817C422.628 280.817 443.256 267.617 458.556 280.817C458.532 280.757 452.844 283.637 456.132 301.337Z" fill="white" stroke="#263238" stroke-linecap="round" stroke-linejoin="round"/>
<path d="M481.692 471.893C473.568 485.093 432.348 491.345 409.848 490.757C387.348 490.169 322.608 459.557 318.216 453.029C314.148 447.029 304.152 427.145 319.56 415.133C320.868 414.124 322.256 413.225 323.712 412.445C334.26 406.733 404.412 424.745 404.412 424.745C404.412 424.745 408.756 421.997 410.352 422.201C415.248 422.825 418.752 426.785 428.64 429.605C435.564 431.585 454.464 423.977 466.536 430.517C467.876 431.234 469.112 432.13 470.208 433.181C481.488 443.957 489.804 458.657 481.692 471.893Z" fill="#E96D13"/>
<path opacity="0.3" d="M466.536 430.517C454.164 429.689 443.136 432.281 435.432 436.829C426.3 442.229 383.172 463.001 383.172 463.001C383.268 460.769 385.668 456.269 385.668 456.269C381.612 452.669 371.004 449.849 371.004 449.849C362.784 442.829 330.204 421.889 319.56 415.133C320.867 414.124 322.256 413.225 323.712 412.445C334.26 406.733 404.412 424.745 404.412 424.745C404.412 424.745 408.756 421.997 410.352 422.201C415.248 422.825 418.752 426.785 428.64 429.605C435.6 431.585 454.464 423.977 466.536 430.517Z" fill="black" fill-opacity="0.7"/>
<path d="M481.692 471.893C473.568 485.093 432.348 491.345 409.848 490.757C387.348 490.169 322.608 459.557 318.216 453.029C314.148 447.029 304.152 427.145 319.56 415.133C320.868 414.124 322.256 413.225 323.712 412.445C334.26 406.733 404.412 424.745 404.412 424.745C404.412 424.745 408.756 421.997 410.352 422.201C415.248 422.825 418.752 426.785 428.64 429.605C435.564 431.585 454.464 423.977 466.536 430.517C467.876 431.234 469.112 432.13 470.208 433.181C481.488 443.957 489.804 458.657 481.692 471.893Z" stroke="#263238" stroke-linecap="round" stroke-linejoin="round"/>
<path d="M469.044 483.845L470.076 488.369C470.076 488.369 467.316 496.193 455.184 497.477C443.052 498.761 435.864 501.437 429.984 501.785C426.91 502.028 423.821 501.98 420.756 501.641L419.556 499.865L469.044 483.845Z" fill="white" stroke="#263238" stroke-linecap="round" stroke-linejoin="round"/>
<path d="M398.592 483.365L419.616 499.865C429.749 498.999 439.818 497.492 449.76 495.353C459.72 493.049 468.42 489.749 468.888 485.213C469.62 478.325 462.252 476.441 453.504 476.705C451.872 476.705 450.192 476.873 448.5 477.041C434.496 478.541 416.688 470.813 416.688 470.813L398.592 483.365Z" fill="#263238"/>
<path opacity="0.3" d="M468.9 485.045C464.819 486.564 460.903 488.494 457.212 490.805C457.212 490.805 437.688 500.849 407.676 490.505L398.592 483.365L416.688 470.801C416.688 470.801 434.484 478.541 448.5 477.029C450.192 476.849 451.872 476.729 453.504 476.693C462.192 476.429 469.5 478.277 468.9 485.045Z" fill="black" fill-opacity="0.7"/>
<path d="M398.592 483.365L419.616 499.865C429.749 498.999 439.818 497.492 449.76 495.353V495.353C459.72 493.049 468.42 489.749 468.888 485.213C469.62 478.325 462.252 476.441 453.504 476.705C451.872 476.705 450.192 476.873 448.5 477.041C434.496 478.541 416.688 470.813 416.688 470.813L398.592 483.365Z" stroke="#263238" stroke-linecap="round" stroke-linejoin="round"/>
<path d="M418.188 489.869C414.396 490.481 418.56 498.269 423.696 495.869C428.832 493.469 421.98 489.245 418.188 489.869Z" fill="white"/>
<path opacity="0.2" d="M425.304 494.633C422.557 494.298 419.83 493.822 417.132 493.205C416.412 491.681 416.58 490.121 418.188 489.869C421.368 489.341 426.72 492.281 425.304 494.633Z" fill="black" fill-opacity="0.7"/>
<path d="M418.188 489.869C414.396 490.481 418.56 498.269 423.696 495.869C428.832 493.469 421.98 489.245 418.188 489.869Z" stroke="#263238" stroke-linecap="round" stroke-linejoin="round"/>
<path d="M449.76 495.341C459.72 493.037 468.42 489.737 468.888 485.201C469.62 478.313 462.252 476.429 453.504 476.693C453.12 477.065 444.636 485.261 449.76 495.341Z" fill="white"/>
<path opacity="0.3" d="M468.9 485.045C464.819 486.564 460.903 488.494 457.212 490.805C454.582 492.021 451.825 492.943 448.992 493.553C445.632 484.313 453.144 477.041 453.504 476.693C462.192 476.429 469.5 478.277 468.9 485.045Z" fill="black" fill-opacity="0.7"/>
<path d="M449.76 495.341C459.72 493.037 468.42 489.737 468.888 485.201C469.62 478.313 462.252 476.429 453.504 476.693C453.12 477.065 444.636 485.261 449.76 495.341Z" stroke="#263238" stroke-linecap="round" stroke-linejoin="round"/>
<path d="M442.656 486.785H442.716C442.853 486.792 442.989 486.771 443.118 486.724C443.246 486.678 443.364 486.606 443.465 486.513C443.565 486.42 443.646 486.309 443.703 486.184C443.76 486.06 443.792 485.926 443.796 485.789C444.136 482.841 445.396 480.074 447.396 477.881C447.493 477.785 447.569 477.671 447.622 477.546C447.674 477.42 447.701 477.285 447.701 477.149C447.701 477.013 447.674 476.879 447.622 476.753C447.569 476.627 447.493 476.513 447.396 476.417C447.201 476.225 446.938 476.118 446.664 476.118C446.391 476.118 446.128 476.225 445.932 476.417C443.579 478.969 442.118 482.216 441.768 485.669C441.744 485.934 441.823 486.198 441.989 486.405C442.154 486.613 442.393 486.749 442.656 486.785Z" fill="white" stroke="#263238" stroke-linecap="round" stroke-linejoin="round"/>
<path d="M438.492 487.061H438.576C438.713 487.065 438.848 487.041 438.976 486.991C439.103 486.941 439.219 486.867 439.317 486.772C439.415 486.677 439.494 486.564 439.548 486.438C439.602 486.313 439.63 486.178 439.632 486.041C439.87 483.045 440.98 480.183 442.824 477.809C442.925 477.706 443.003 477.582 443.054 477.447C443.105 477.312 443.127 477.167 443.119 477.023C443.111 476.878 443.073 476.737 443.007 476.608C442.942 476.479 442.851 476.365 442.739 476.274C442.627 476.182 442.497 476.114 442.358 476.075C442.219 476.036 442.073 476.027 441.93 476.047C441.787 476.067 441.649 476.117 441.526 476.193C441.404 476.269 441.298 476.37 441.216 476.489C439.074 479.221 437.799 482.531 437.556 485.993C437.546 486.257 437.637 486.515 437.811 486.714C437.985 486.913 438.229 487.037 438.492 487.061Z" fill="white" stroke="#263238" stroke-linecap="round" stroke-linejoin="round"/>
<path d="M433.512 486.509C433.648 486.523 433.785 486.509 433.915 486.469C434.045 486.429 434.166 486.363 434.271 486.276C434.376 486.189 434.463 486.082 434.526 485.962C434.589 485.841 434.628 485.709 434.64 485.573C434.964 481.973 438.06 477.257 438.096 477.173C438.248 476.942 438.303 476.66 438.249 476.388C438.195 476.117 438.037 475.877 437.808 475.721C437.578 475.57 437.298 475.515 437.029 475.569C436.759 475.623 436.522 475.781 436.368 476.009C436.224 476.213 432.936 481.157 432.564 485.333C432.546 485.473 432.556 485.616 432.594 485.752C432.632 485.887 432.698 486.014 432.786 486.124C432.875 486.234 432.985 486.325 433.11 486.391C433.234 486.457 433.371 486.498 433.512 486.509Z" fill="white" stroke="#263238" stroke-linecap="round" stroke-linejoin="round"/>
<path d="M428.808 486.017C428.9 486.029 428.993 486.029 429.084 486.017C429.219 485.996 429.349 485.947 429.465 485.875C429.582 485.802 429.682 485.708 429.762 485.596C429.841 485.484 429.897 485.358 429.927 485.224C429.957 485.09 429.96 484.952 429.936 484.817C429.204 480.401 433.308 476.621 433.344 476.585C433.48 476.393 433.547 476.161 433.535 475.927C433.522 475.692 433.431 475.468 433.275 475.292C433.12 475.115 432.909 474.997 432.678 474.955C432.446 474.913 432.208 474.951 432 475.061C431.796 475.241 427.008 479.633 427.932 485.189C427.976 485.4 428.084 485.593 428.24 485.741C428.397 485.889 428.595 485.985 428.808 486.017Z" fill="white" stroke="#263238" stroke-linecap="round" stroke-linejoin="round"/>
<path d="M423.696 484.781C423.807 484.799 423.921 484.799 424.032 484.781C424.29 484.718 424.515 484.559 424.66 484.336C424.805 484.113 424.859 483.843 424.812 483.581C423.912 479.645 427.788 475.181 427.836 475.181C428.016 474.974 428.107 474.704 428.089 474.43C428.071 474.156 427.945 473.9 427.74 473.717C427.639 473.626 427.52 473.556 427.392 473.511C427.263 473.466 427.127 473.446 426.991 473.454C426.854 473.462 426.721 473.497 426.599 473.556C426.476 473.616 426.366 473.699 426.276 473.801C426.084 474.017 421.644 479.093 422.784 484.085C422.85 484.279 422.972 484.448 423.134 484.572C423.297 484.696 423.492 484.769 423.696 484.781Z" fill="white" stroke="#263238" stroke-linecap="round" stroke-linejoin="round"/>
<path d="M315.6 477.077L314.1 481.469C314.1 481.469 316.02 489.545 327.948 492.089C339.876 494.633 346.74 498.089 352.5 499.025C355.532 499.583 358.609 499.857 361.692 499.841L363.072 498.197L315.6 477.077Z" fill="white" stroke="#263238" stroke-linecap="round" stroke-linejoin="round"/>
<path d="M385.668 484.001L363.036 498.197C353.049 496.273 343.193 493.72 333.528 490.553C323.868 487.217 315.528 483.017 315.528 478.457C315.528 471.521 323.052 470.429 331.728 471.605C333.348 471.821 335.004 472.121 336.672 472.469C350.436 475.433 368.952 469.613 368.952 469.613L385.668 484.001Z" fill="#263238"/>
<path opacity="0.3" d="M385.668 484.001L372.36 492.401C361.569 489.05 352.106 482.387 345.312 473.357C353.334 473.181 361.296 471.934 368.988 469.649L385.668 484.001Z" fill="black" fill-opacity="0.7"/>
<path d="M385.668 484.001L363.036 498.197C353.049 496.273 343.193 493.72 333.528 490.553V490.553C323.868 487.217 315.528 483.017 315.528 478.457C315.528 471.521 323.052 470.429 331.728 471.605C333.348 471.821 335.004 472.121 336.672 472.469C350.436 475.433 368.952 469.613 368.952 469.613L385.668 484.001Z" stroke="#263238" stroke-linecap="round" stroke-linejoin="round"/>
<path d="M333.528 490.541C323.868 487.205 315.528 483.005 315.528 478.445C315.528 471.509 323.052 470.417 331.728 471.593C332.112 472.001 339.684 481.061 333.528 490.541Z" fill="white" stroke="#263238" stroke-linecap="round" stroke-linejoin="round"/>
<path d="M341.496 482.777H341.436C341.16 482.759 340.903 482.633 340.719 482.426C340.535 482.22 340.439 481.949 340.452 481.673C340.433 478.711 339.48 475.83 337.728 473.441C337.626 473.336 337.547 473.211 337.497 473.074C337.446 472.937 337.425 472.79 337.435 472.644C337.445 472.498 337.485 472.356 337.553 472.226C337.621 472.097 337.716 471.983 337.831 471.893C337.946 471.802 338.079 471.737 338.221 471.701C338.362 471.665 338.51 471.66 338.654 471.685C338.799 471.71 338.936 471.765 339.057 471.846C339.179 471.927 339.282 472.033 339.36 472.157C341.431 474.928 342.543 478.298 342.528 481.757C342.525 482.029 342.415 482.288 342.222 482.479C342.028 482.67 341.768 482.777 341.496 482.777Z" fill="white" stroke="#263238" stroke-linecap="round" stroke-linejoin="round"/>
<path d="M345.6 483.461H345.504C345.229 483.437 344.975 483.304 344.797 483.093C344.619 482.882 344.533 482.608 344.556 482.333C344.641 479.334 343.845 476.376 342.264 473.825C342.185 473.712 342.13 473.584 342.1 473.449C342.071 473.314 342.068 473.174 342.093 473.039C342.117 472.903 342.168 472.773 342.243 472.657C342.318 472.54 342.415 472.44 342.528 472.361C342.642 472.282 342.769 472.227 342.904 472.197C343.039 472.168 343.179 472.166 343.315 472.19C343.451 472.215 343.58 472.266 343.697 472.34C343.813 472.415 343.913 472.512 343.992 472.625C345.846 475.563 346.766 478.994 346.632 482.465C346.62 482.732 346.506 482.983 346.314 483.168C346.122 483.354 345.867 483.458 345.6 483.461Z" fill="white" stroke="#263238" stroke-linecap="round" stroke-linejoin="round"/>
<path d="M350.616 483.461C350.34 483.455 350.078 483.341 349.885 483.144C349.692 482.946 349.584 482.681 349.584 482.405C349.656 478.745 347.064 473.789 347.028 473.741C346.901 473.494 346.876 473.207 346.96 472.942C347.043 472.677 347.227 472.455 347.472 472.325C347.717 472.199 348.003 472.174 348.266 472.258C348.529 472.341 348.748 472.525 348.876 472.769C348.996 472.985 351.744 478.241 351.672 482.441C351.666 482.716 351.551 482.977 351.354 483.168C351.156 483.359 350.891 483.464 350.616 483.461Z" fill="white" stroke="#263238" stroke-linecap="round" stroke-linejoin="round"/>
<path d="M355.344 483.461H355.068C354.803 483.386 354.578 483.208 354.443 482.968C354.308 482.727 354.274 482.443 354.348 482.177C355.548 477.869 351.864 473.669 351.828 473.633C351.724 473.534 351.641 473.414 351.586 473.282C351.53 473.149 351.502 473.006 351.505 472.862C351.507 472.718 351.538 472.577 351.598 472.446C351.657 472.315 351.743 472.197 351.85 472.101C351.957 472.005 352.083 471.932 352.22 471.887C352.356 471.841 352.501 471.825 352.644 471.838C352.787 471.851 352.926 471.894 353.052 471.963C353.178 472.032 353.288 472.127 353.376 472.241C353.556 472.445 357.864 477.317 356.352 482.741C356.281 482.952 356.146 483.135 355.965 483.264C355.784 483.394 355.567 483.463 355.344 483.461Z" fill="white" stroke="#263238" stroke-linecap="round" stroke-linejoin="round"/>
<path d="M360.564 482.777C360.449 482.782 360.334 482.762 360.228 482.717C360.097 482.676 359.976 482.608 359.872 482.518C359.768 482.428 359.684 482.319 359.623 482.195C359.563 482.072 359.528 481.938 359.52 481.801C359.513 481.664 359.533 481.526 359.58 481.397C360.888 477.581 357.492 472.745 357.468 472.697C357.37 472.588 357.296 472.459 357.251 472.319C357.206 472.178 357.191 472.03 357.208 471.884C357.224 471.738 357.271 471.597 357.346 471.47C357.421 471.343 357.521 471.234 357.641 471.148C357.761 471.063 357.898 471.005 358.042 470.976C358.187 470.947 358.335 470.95 358.479 470.983C358.622 471.015 358.757 471.078 358.875 471.167C358.992 471.256 359.089 471.368 359.16 471.497C359.328 471.725 363.204 477.245 361.56 482.093C361.484 482.296 361.348 482.47 361.17 482.592C360.992 482.714 360.78 482.779 360.564 482.777Z" fill="white" stroke="#263238" stroke-linecap="round" stroke-linejoin="round"/>
<path d="M365.496 488.405C369.204 489.425 364.296 496.685 359.388 493.805C354.48 490.925 361.8 487.397 365.496 488.405Z" fill="white" stroke="#263238" stroke-linecap="round" stroke-linejoin="round"/>
<path d="M322.704 449.861C328.26 457.649 344.736 466.253 361.104 473.345C364.031 478.194 367.484 482.705 371.4 486.797C381.504 497.189 385.62 491.369 385.62 491.369C385.62 491.369 392.004 490.649 401.424 489.365C401.816 490.279 402.5 491.037 403.368 491.521C404.237 492.005 405.241 492.188 406.224 492.041C407.424 491.849 409.824 490.097 412.476 487.781C436.272 484.181 468.564 478.181 477.276 471.197" fill="#E96D13"/>
<path d="M322.704 449.861C328.26 457.649 344.736 466.253 361.104 473.345C364.031 478.194 367.484 482.705 371.4 486.797C381.504 497.189 385.62 491.369 385.62 491.369C385.62 491.369 392.004 490.649 401.424 489.365C401.816 490.279 402.5 491.037 403.368 491.521C404.237 492.005 405.241 492.188 406.224 492.041C407.424 491.849 409.824 490.097 412.476 487.781C436.272 484.181 468.564 478.181 477.276 471.197" stroke="#263238" stroke-linecap="round" stroke-linejoin="round"/>
<path d="M468 435.029C463.884 430.505 459.768 430.301 451.128 430.913C451.128 430.913 428.58 438.113 412.848 447.581C397.116 457.049 374.172 467.093 374.172 467.093C374.172 467.093 367.176 465.065 362.304 467.093C362.304 467.093 358.884 467.357 361.176 473.333" stroke="#263238" stroke-linecap="round" stroke-linejoin="round"/>
<path d="M478.464 462.065C478.464 462.065 478.584 469.037 468.696 473.861" stroke="#263238" stroke-linecap="round" stroke-linejoin="round"/>
<path d="M369.408 432.977C369.408 432.977 385.008 444.257 388.14 451.697C391.206 452.99 394.167 454.518 396.996 456.269" stroke="#263238" stroke-linecap="round" stroke-linejoin="round"/>
<path d="M389.268 442.349C390.412 445.592 390.604 449.094 389.82 452.441" stroke="#263238" stroke-linecap="round" stroke-linejoin="round"/>
<path d="M385.668 435.029C386.518 436.266 387.264 437.57 387.9 438.929" stroke="#263238" stroke-linecap="round" stroke-linejoin="round"/>
<path d="M407.892 433.997C407.892 433.997 413.112 440.981 414.408 446.645" stroke="#263238" stroke-linecap="round" stroke-linejoin="round"/>
<path d="M436.968 476.189C438.91 476.075 440.842 475.835 442.752 475.469" stroke="#263238" stroke-linecap="round" stroke-linejoin="round"/>
<path d="M387.996 471.185C402.788 474.115 417.793 475.837 432.864 476.333" stroke="#263238" stroke-linecap="round" stroke-linejoin="round"/>
<path d="M493.584 365.369C493.584 365.369 490.764 414.569 487.44 417.389C484.116 420.209 478.872 421.085 468.948 421.913C459.024 422.741 415.128 425.429 415.128 425.429L410.4 411.329C410.4 411.329 433.74 408.929 444.096 405.149C451.904 402.48 459.893 400.371 468 398.837C468 398.837 466.032 386.465 466.032 381.137V356.081" fill="white"/>
<path d="M493.584 365.369C493.584 365.369 490.764 414.569 487.44 417.389C484.116 420.209 478.872 421.085 468.948 421.913C459.024 422.741 415.128 425.429 415.128 425.429L410.4 411.329C410.4 411.329 433.74 408.929 444.096 405.149C451.904 402.48 459.893 400.371 468 398.837C468 398.837 466.032 386.465 466.032 381.137V356.081" stroke="#263238" stroke-linecap="round" stroke-linejoin="round"/>
<path d="M484.944 311.621C495.636 318.209 498.792 333.437 495.096 365.945C495.096 365.945 498.252 369.785 493.584 371.705C493.584 371.705 476.1 365.165 467.976 369.677C459.852 374.189 461.976 363.449 461.976 363.449C461.976 363.449 458.628 333.545 466.032 328.133" fill="#263238"/>
<path d="M465.048 323.561C465.048 323.561 454.764 334.253 463.848 361.277C463.275 363.483 462.874 365.73 462.648 367.997C462.648 369.809 465.132 370.745 465.132 370.745" stroke="white" stroke-linecap="round" stroke-linejoin="round"/>
<path d="M453.024 341.669C453.024 341.669 453.768 354.869 461.952 360.593" stroke="white" stroke-linecap="round" stroke-linejoin="round"/>
<path d="M455.664 311.021C455.664 311.021 439.716 317.129 427.032 310.361C419.508 306.353 422.604 299.909 422.604 299.909" stroke="white" stroke-linecap="round" stroke-linejoin="round"/>
<path d="M340.98 435.053H427.788C429.749 435.054 431.701 434.8 433.596 434.297L450.72 429.809C450.957 429.748 451.167 429.61 451.317 429.417C451.466 429.223 451.548 428.986 451.548 428.741C451.548 428.445 451.431 428.161 451.221 427.952C451.012 427.743 450.728 427.625 450.432 427.625H337.392C337.098 427.628 336.817 427.747 336.611 427.956C336.404 428.165 336.288 428.447 336.288 428.741V430.361C336.288 431.606 336.782 432.799 337.662 433.679C338.542 434.559 339.736 435.053 340.98 435.053Z" fill="#757575" stroke="#263238" stroke-linecap="round" stroke-linejoin="round"/>
<path d="M332.4 430.733H419.448C419.789 430.749 420.129 430.68 420.436 430.532C420.744 430.384 421.01 430.163 421.211 429.887C421.412 429.611 421.541 429.29 421.588 428.951C421.634 428.613 421.596 428.269 421.476 427.949L405.336 365.153C405.12 364.383 404.668 363.699 404.044 363.198C403.42 362.696 402.655 362.403 401.856 362.357H314.784C314.443 362.344 314.104 362.415 313.796 362.564C313.489 362.713 313.223 362.936 313.022 363.213C312.822 363.489 312.693 363.811 312.646 364.15C312.6 364.488 312.638 364.833 312.756 365.153L328.908 427.949C329.124 428.721 329.578 429.406 330.205 429.906C330.831 430.405 331.6 430.695 332.4 430.733Z" fill="#999999" stroke="#263238" stroke-linecap="round" stroke-linejoin="round"/>
<path d="M317.856 364.589H316.212" stroke="#263238" stroke-linecap="round" stroke-linejoin="round"/>
<path d="M330.612 364.589H322.116" stroke="#263238" stroke-linecap="round" stroke-linejoin="round"/>
<path d="M417.336 422.801L403.08 367.385C402.866 366.616 402.417 365.932 401.795 365.431C401.173 364.93 400.41 364.635 399.612 364.589H332.532" stroke="#263238" stroke-linecap="round" stroke-linejoin="round"/>
<path d="M418.572 427.625L418.212 426.245" stroke="#263238" stroke-linecap="round" stroke-linejoin="round"/>
<path d="M358.572 398.129C358.631 398.638 358.736 399.14 358.884 399.629C359.988 403.409 363.528 405.713 366.78 404.753C370.032 403.793 371.772 399.953 370.668 396.173C369.564 392.393 366 390.089 362.748 391.049C362.369 391.166 362.002 391.323 361.656 391.517C361.835 392.8 361.639 394.106 361.092 395.279C360.545 396.453 359.67 397.442 358.572 398.129Z" fill="white" stroke="#263238" stroke-linecap="round" stroke-linejoin="round"/>
<path d="M396.996 280.445C389.46 279.629 385.356 272.465 380.82 271.349C378.29 270.744 375.81 269.941 373.404 268.949C373.404 268.949 371.844 263.501 369.504 265.349C367.164 267.197 364.092 307.949 367.104 306.665C370.116 305.381 370.128 310.193 370.128 310.193L398.1 334.841L421.548 293.321C421.548 293.321 404.532 281.273 396.996 280.445Z" fill="#263238"/>
<path d="M169.056 135.329V134.729H169.656" stroke="#263238" stroke-linecap="round" stroke-linejoin="round"/>
<path d="M173.184 134.729H274.704" stroke="#263238" stroke-linecap="round" stroke-linejoin="round" stroke-dasharray="0.98 2.93"/>
<path d="M276.456 134.729H277.056V135.329" stroke="#263238" stroke-linecap="round" stroke-linejoin="round"/>
<path d="M277.068 138.929V204.329" stroke="#263238" stroke-linecap="round" stroke-linejoin="round" stroke-dasharray="1 3"/>
<path d="M277.056 206.129V206.729H276.456" stroke="#263238" stroke-linecap="round" stroke-linejoin="round"/>
<path d="M272.94 206.729H171.42" stroke="#263238" stroke-linecap="round" stroke-linejoin="round" stroke-dasharray="0.98 2.93"/>
<path d="M169.656 206.729H169.056V206.129" stroke="#263238" stroke-linecap="round" stroke-linejoin="round"/>
<path d="M169.068 202.529V137.129" stroke="#263238" stroke-linecap="round" stroke-linejoin="round" stroke-dasharray="1 3"/>
<path d="M223.068 136.505C224.049 136.505 224.844 135.71 224.844 134.729C224.844 133.749 224.049 132.953 223.068 132.953C222.087 132.953 221.292 133.749 221.292 134.729C221.292 135.71 222.087 136.505 223.068 136.505Z" fill="#E96D13" stroke="#263238" stroke-linecap="round" stroke-linejoin="round"/>
<path d="M169.068 172.505C170.049 172.505 170.844 171.71 170.844 170.729C170.844 169.749 170.049 168.953 169.068 168.953C168.087 168.953 167.292 169.749 167.292 170.729C167.292 171.71 168.087 172.505 169.068 172.505Z" fill="#E96D13" stroke="#263238" stroke-linecap="round" stroke-linejoin="round"/>
<path d="M223.068 208.505C224.049 208.505 224.844 207.71 224.844 206.729C224.844 205.749 224.049 204.953 223.068 204.953C222.087 204.953 221.292 205.749 221.292 206.729C221.292 207.71 222.087 208.505 223.068 208.505Z" fill="#E96D13" stroke="#263238" stroke-linecap="round" stroke-linejoin="round"/>
<path d="M277.068 172.505C278.049 172.505 278.844 171.71 278.844 170.729C278.844 169.749 278.049 168.953 277.068 168.953C276.087 168.953 275.292 169.749 275.292 170.729C275.292 171.71 276.087 172.505 277.068 172.505Z" fill="#E96D13" stroke="#263238" stroke-linecap="round" stroke-linejoin="round"/>
<path d="M279.132 204.665H274.992V208.805H279.132V204.665Z" fill="#E96D13" stroke="#263238" stroke-linecap="round" stroke-linejoin="round"/>
<path d="M279.132 132.665H274.992V136.805H279.132V132.665Z" fill="#E96D13" stroke="#263238" stroke-linecap="round" stroke-linejoin="round"/>
<path d="M171.132 204.665H166.992V208.805H171.132V204.665Z" fill="#E96D13" stroke="#263238" stroke-linecap="round" stroke-linejoin="round"/>
<path d="M171.132 132.665H166.992V136.805H171.132V132.665Z" fill="#E96D13" stroke="#263238" stroke-linecap="round" stroke-linejoin="round"/>
<path d="M270.228 141.101H176.232V200.825H270.228V141.101Z" fill="white" stroke="#263238" stroke-linecap="round" stroke-linejoin="round"/>
<path d="M270.228 183.185L259.776 193.637L231.504 165.365L219.612 177.257L200.652 158.297L176.232 182.705V200.825H270.228V183.185Z" fill="#E96D13" stroke="#263238" stroke-linecap="round" stroke-linejoin="round"/>
<path d="M250.752 164.693C254.417 164.693 257.388 161.722 257.388 158.057C257.388 154.392 254.417 151.421 250.752 151.421C247.087 151.421 244.116 154.392 244.116 158.057C244.116 161.722 247.087 164.693 250.752 164.693Z" fill="#E96D13" stroke="#263238" stroke-linecap="round" stroke-linejoin="round"/>
<path d="M402 291.461C402 291.461 394.8 304.865 393.948 325.373" stroke="white" stroke-linecap="round" stroke-linejoin="round"/>
<path d="M380.832 300.737C380.832 300.737 382.98 312.137 389.232 320.393" stroke="white" stroke-linecap="round" stroke-linejoin="round"/>
<path d="M410.4 347.777C410.4 347.777 421.2 383.249 444.66 393.689" stroke="white" stroke-linecap="round" stroke-linejoin="round"/>
<path d="M438.816 283.565C438.816 283.565 437.796 291.305 430.356 291.845C429.439 289.898 428.334 288.045 427.056 286.313C430.92 285.17 434.846 284.252 438.816 283.565Z" fill="#263238"/>
<path d="M454.668 284.105C454.668 284.105 467.112 285.629 472.32 268.925C477.528 252.221 473.436 239.633 452.844 233.573C441.42 230.213 430.044 232.913 425.88 241.565C422.352 248.969 424.02 255.125 423.216 257.609C422.304 260.393 413.88 262.757 413.88 264.665C413.88 266.237 418.548 268.925 418.548 268.925L417.18 273.077L418.464 273.761C418.464 273.761 416.064 283.109 417.18 286.409C417.972 288.809 439.056 289.817 440.7 283.841" fill="white"/>
<path d="M454.668 284.105C454.668 284.105 467.112 285.629 472.32 268.925C477.528 252.221 473.436 239.633 452.844 233.573C441.42 230.213 430.044 232.913 425.88 241.565C422.352 248.969 424.02 255.125 423.216 257.609C422.304 260.393 413.88 262.757 413.88 264.665C413.88 266.237 418.548 268.925 418.548 268.925L417.18 273.077L418.464 273.761C418.464 273.761 416.064 283.109 417.18 286.409C417.972 288.809 439.056 289.817 440.7 283.841" stroke="#263238" stroke-linecap="round" stroke-linejoin="round"/>
<path d="M426 247.625C426 247.625 430.116 248.657 431.244 250.817" stroke="#263238" stroke-linecap="round" stroke-linejoin="round"/>
<path d="M426.72 257.117C426.54 258.317 426.816 259.361 427.344 259.433C427.872 259.505 428.424 258.593 428.604 257.381C428.784 256.169 428.496 255.137 427.98 255.065C427.464 254.993 426.9 255.905 426.72 257.117Z" fill="#263238"/>
<path d="M418.464 273.761C418.464 273.761 425.16 276.329 427.656 274.781" stroke="#263238" stroke-linecap="round" stroke-linejoin="round"/>
<path d="M420.816 256.157C420.324 258.845 420.924 261.197 422.16 261.425C423.396 261.653 424.812 259.673 425.304 256.997C425.796 254.321 425.208 251.945 423.96 251.717C422.712 251.489 421.32 253.481 420.816 256.157Z" stroke="#263238" stroke-linecap="round" stroke-linejoin="round"/>
<path d="M472.872 242.489C471.87 237.627 469.078 233.318 465.048 230.417C460.557 227.263 455.414 225.16 450 224.261C450 224.261 453.972 226.001 455.484 228.293C455.484 228.293 445.2 220.565 432.984 225.641C420.768 230.717 422.292 243.905 422.292 243.905L424.068 240.449C424.068 240.449 423.864 244.565 426.024 246.077C426.671 244.061 427.554 242.128 428.652 240.317C428.652 240.317 431.892 250.049 440.808 253.349C440.202 251.815 440.152 250.117 440.664 248.549C440.664 248.549 445.608 259.241 444.168 264.461L445.74 267.197C445.74 267.197 451.416 261.449 456.036 266.237C458.688 268.997 450.96 279.437 449.856 279.437L454.524 286.289C454.524 286.289 466.188 287.957 472.908 275.321C479.628 262.685 477.984 257.321 477.984 257.321C477.984 257.321 480.18 260.393 480.384 262.121C480.408 262.097 482.4 248.525 472.872 242.489Z" fill="#263238"/>
<path d="M445.428 268.409C445.428 268.409 449.028 256.313 456.684 260.573C464.34 264.833 458.88 271.289 456.132 273.773C453.384 276.257 451.332 280.769 449.544 280.769C447.756 280.769 447.36 278.573 447.36 278.573" fill="white"/>
<path d="M445.428 268.409C445.428 268.409 449.028 256.313 456.684 260.573C464.34 264.833 458.88 271.289 456.132 273.773C453.384 276.257 451.332 280.769 449.544 280.769C447.756 280.769 447.36 278.573 447.36 278.573" stroke="#263238" stroke-linecap="round" stroke-linejoin="round"/>
<path d="M425.304 256.997L446.664 261.425" stroke="#263238" stroke-linecap="round" stroke-linejoin="round"/>
</svg>
