<svg width="268" height="273" viewBox="0 0 268 273" fill="none" xmlns="http://www.w3.org/2000/svg">
<g filter="url(#filter0_f_396_4)">
<path d="M64.0639 95.182C78.1523 79.9086 99.4708 72.1665 127.417 72.1665H137.458V100.474L129.385 102.091C115.628 104.842 106.058 110.255 100.937 118.198C98.2647 122.477 96.7492 127.376 96.5386 132.417H127.417C130.08 132.417 132.634 133.474 134.517 135.358C136.4 137.241 137.458 139.795 137.458 142.458V212.75C137.458 223.826 128.451 232.833 117.375 232.833H57.1251C54.4619 232.833 51.9077 231.775 50.0245 229.892C48.1414 228.009 47.0834 225.455 47.0834 222.792V172.583L47.1135 143.272C47.0232 142.157 45.1152 115.747 64.0639 95.182ZM227.833 232.833H167.583C164.92 232.833 162.366 231.775 160.483 229.892C158.6 228.009 157.542 225.455 157.542 222.792V172.583L157.572 143.272C157.481 142.157 155.574 115.747 174.522 95.182C188.611 79.9086 209.929 72.1665 237.875 72.1665H247.917V100.474L239.843 102.091C226.086 104.842 216.516 110.255 211.395 118.198C208.723 122.477 207.208 127.376 206.997 132.417H237.875C240.538 132.417 243.092 133.474 244.976 135.358C246.859 137.241 247.917 139.795 247.917 142.458V212.75C247.917 223.826 238.909 232.833 227.833 232.833Z" fill="#111111" fill-opacity="0.17"/>
</g>
<path d="M37.0639 63.182C51.1523 47.9086 72.4708 40.1665 100.417 40.1665H110.458V68.474L102.385 70.0907C88.6278 72.8421 79.0581 78.2545 73.9369 86.1975C71.2647 90.4766 69.7492 95.376 69.5386 100.417H100.417C103.08 100.417 105.634 101.474 107.517 103.358C109.4 105.241 110.458 107.795 110.458 110.458V180.75C110.458 191.826 101.451 200.833 90.3751 200.833H30.1251C27.4619 200.833 24.9077 199.775 23.0245 197.892C21.1414 196.009 20.0834 193.455 20.0834 190.792V140.583L20.1135 111.272C20.0232 110.157 18.1152 83.7473 37.0639 63.182ZM200.833 200.833H140.583C137.92 200.833 135.366 199.775 133.483 197.892C131.6 196.009 130.542 193.455 130.542 190.792V140.583L130.572 111.272C130.482 110.157 128.574 83.7473 147.522 63.182C161.611 47.9086 182.929 40.1665 210.875 40.1665H220.917V68.474L212.843 70.0907C199.086 72.8421 189.516 78.2545 184.395 86.1975C181.723 90.4766 180.208 95.376 179.997 100.417H210.875C213.538 100.417 216.092 101.474 217.976 103.358C219.859 105.241 220.917 107.795 220.917 110.458V180.75C220.917 191.826 211.909 200.833 200.833 200.833Z" fill="#E96D13"/>
<defs>
<filter id="filter0_f_396_4" x="7" y="12" width="281" height="281" filterUnits="userSpaceOnUse" color-interpolation-filters="sRGB">
<feFlood flood-opacity="0" result="BackgroundImageFix"/>
<feBlend mode="normal" in="SourceGraphic" in2="BackgroundImageFix" result="shape"/>
<feGaussianBlur stdDeviation="10" result="effect1_foregroundBlur_396_4"/>
</filter>
</defs>
</svg>
