<svg width="276" height="264" viewBox="0 0 276 264" fill="none" xmlns="http://www.w3.org/2000/svg">
<g filter="url(#filter0_f_396_3)">
<path d="M203.936 177.818C222.885 157.252 220.977 130.843 220.917 130.542V50.2082C220.917 47.545 219.859 44.9908 217.976 43.1076C216.093 41.2245 213.538 40.1665 210.875 40.1665H150.625C139.549 40.1665 130.542 49.1739 130.542 60.2498V130.542C130.542 133.205 131.6 135.759 133.483 137.642C135.366 139.525 137.92 140.583 140.583 140.583H171.492C171.28 145.548 169.796 150.374 167.184 154.601C162.083 162.645 152.473 168.138 138.605 170.909L130.542 172.516V200.833H140.583C168.529 200.833 189.848 193.091 203.936 177.818ZM93.4077 177.818C112.366 157.252 110.448 130.843 110.388 130.542V50.2082C110.388 47.545 109.33 44.9908 107.447 43.1076C105.564 41.2245 103.01 40.1665 100.347 40.1665H40.0965C29.0206 40.1665 20.0132 49.1739 20.0132 60.2498V130.542C20.0132 133.205 21.0711 135.759 22.9543 137.642C24.8375 139.525 27.3916 140.583 30.0549 140.583H60.9631C60.7509 145.548 59.2676 150.374 56.6552 154.601C51.5541 162.645 41.9442 168.138 28.0766 170.909L20.0132 172.516V200.833H30.0549C58.0008 200.833 79.3193 193.091 93.4077 177.818Z" fill="#111111" fill-opacity="0.17"/>
</g>
<path d="M238.936 200.818C257.885 180.252 255.977 153.843 255.917 153.542V73.2082C255.917 70.545 254.859 67.9908 252.976 66.1076C251.093 64.2245 248.538 63.1665 245.875 63.1665H185.625C174.549 63.1665 165.542 72.1739 165.542 83.2498V153.542C165.542 156.205 166.6 158.759 168.483 160.642C170.366 162.525 172.92 163.583 175.583 163.583H206.492C206.28 168.548 204.796 173.374 202.184 177.601C197.083 185.645 187.473 191.138 173.605 193.909L165.542 195.516V223.833H175.583C203.529 223.833 224.848 216.091 238.936 200.818ZM128.408 200.818C147.366 180.252 145.448 153.843 145.388 153.542V73.2082C145.388 70.545 144.33 67.9908 142.447 66.1076C140.564 64.2245 138.01 63.1665 135.347 63.1665H75.0965C64.0206 63.1665 55.0132 72.1739 55.0132 83.2498V153.542C55.0132 156.205 56.0711 158.759 57.9543 160.642C59.8375 162.525 62.3916 163.583 65.0549 163.583H95.9631C95.751 168.548 94.2676 173.374 91.6552 177.601C86.5541 185.645 76.9442 191.138 63.0766 193.909L55.0132 195.516V223.833H65.0549C93.0008 223.833 114.319 216.091 128.408 200.818V200.818Z" fill="#E96D13"/>
<defs>
<filter id="filter0_f_396_3" x="-20" y="-20" width="281" height="281" filterUnits="userSpaceOnUse" color-interpolation-filters="sRGB">
<feFlood flood-opacity="0" result="BackgroundImageFix"/>
<feBlend mode="normal" in="SourceGraphic" in2="BackgroundImageFix" result="shape"/>
<feGaussianBlur stdDeviation="10" result="effect1_foregroundBlur_396_3"/>
</filter>
</defs>
</svg>
