<svg width="47" height="47" viewBox="0 0 47 47" fill="none" xmlns="http://www.w3.org/2000/svg">
<path d="M22.1288 37.7959C21.7698 37.4368 21.5818 36.9799 21.5648 36.425C21.5492 35.8702 21.7209 35.4132 22.0799 35.0542L31.6757 25.4584H9.79134C9.23648 25.4584 8.77105 25.2704 8.39505 24.8944C8.02036 24.5197 7.83301 24.0549 7.83301 23.5C7.83301 22.9452 8.02036 22.4797 8.39505 22.1037C8.77105 21.729 9.23648 21.5417 9.79134 21.5417H31.6757L22.0799 11.9459C21.7209 11.5868 21.5492 11.1299 21.5648 10.575C21.5818 10.0202 21.7698 9.56322 22.1288 9.20419C22.4879 8.84516 22.9448 8.66565 23.4997 8.66565C24.0545 8.66565 24.5115 8.84516 24.8705 9.20419L37.7955 22.1292C37.9913 22.2924 38.1304 22.4961 38.2126 22.7402C38.2936 22.9856 38.3341 23.2389 38.3341 23.5C38.3341 23.7611 38.2936 24.0059 38.2126 24.2344C38.1304 24.4629 37.9913 24.675 37.7955 24.8709L24.8705 37.7959C24.5115 38.1549 24.0545 38.3344 23.4997 38.3344C22.9448 38.3344 22.4879 38.1549 22.1288 37.7959Z" fill="white"/>
</svg>
