<svg width="32" height="32" viewBox="0 0 32 32" fill="none" xmlns="http://www.w3.org/2000/svg">
<path d="M13.6002 3.19995C13.388 3.19995 13.1845 3.28424 13.0345 3.43427C12.8845 3.5843 12.8002 3.78778 12.8002 3.99995C12.8002 4.21212 12.8845 4.41561 13.0345 4.56564C13.1845 4.71567 13.388 4.79995 13.6002 4.79995H15.2002V27.2H13.6002C13.388 27.2 13.1845 27.2842 13.0345 27.4343C12.8845 27.5843 12.8002 27.7878 12.8002 28C12.8002 28.2121 12.8845 28.4156 13.0345 28.5656C13.1845 28.7157 13.388 28.8 13.6002 28.8H18.4002C18.6124 28.8 18.8159 28.7157 18.9659 28.5656C19.1159 28.4156 19.2002 28.2121 19.2002 28C19.2002 27.7878 19.1159 27.5843 18.9659 27.4343C18.8159 27.2842 18.6124 27.2 18.4002 27.2H16.8002V4.79995H18.4002C18.6124 4.79995 18.8159 4.71567 18.9659 4.56564C19.1159 4.41561 19.2002 4.21212 19.2002 3.99995C19.2002 3.78778 19.1159 3.5843 18.9659 3.43427C18.8159 3.28424 18.6124 3.19995 18.4002 3.19995H13.6002ZM7.2002 6.39995H13.6002V7.99995H7.2002C6.56368 7.99995 5.95323 8.25281 5.50314 8.70289C5.05305 9.15298 4.8002 9.76343 4.8002 10.4V21.6C4.8002 22.2365 5.05305 22.8469 5.50314 23.297C5.95323 23.7471 6.56368 24 7.2002 24H13.6002V25.6H7.2002C6.13933 25.6 5.12191 25.1785 4.37177 24.4284C3.62162 23.6782 3.2002 22.6608 3.2002 21.6V10.4C3.2002 9.33909 3.62162 8.32167 4.37177 7.57152C5.12191 6.82138 6.13933 6.39995 7.2002 6.39995V6.39995ZM24.8002 24H18.4002V25.6H24.8002C25.8611 25.6 26.8785 25.1785 27.6286 24.4284C28.3788 23.6782 28.8002 22.6608 28.8002 21.6V10.4C28.8002 9.33909 28.3788 8.32167 27.6286 7.57152C26.8785 6.82138 25.8611 6.39995 24.8002 6.39995H18.4002V7.99995H24.8002C25.4367 7.99995 26.0472 8.25281 26.4973 8.70289C26.9473 9.15298 27.2002 9.76343 27.2002 10.4V21.6C27.2002 22.2365 26.9473 22.8469 26.4973 23.297C26.0472 23.7471 25.4367 24 24.8002 24V24Z" fill="black" fill-opacity="0.47"/>
</svg>
