<svg width="55" height="55" viewBox="0 0 55 55" fill="none" xmlns="http://www.w3.org/2000/svg">
<path d="M35.5208 32.0833H33.7104L33.0688 31.4646C35.3922 28.7696 36.6692 25.3291 36.6667 21.7708C36.6667 18.8247 35.793 15.9448 34.1563 13.4952C32.5195 11.0456 30.1931 9.13631 27.4712 8.00888C24.7494 6.88145 21.7543 6.58647 18.8648 7.16123C15.9753 7.73599 13.3211 9.15468 11.2379 11.2379C9.15468 13.3211 7.73599 15.9753 7.16123 18.8648C6.58647 21.7543 6.88145 24.7494 8.00888 27.4712C9.13631 30.1931 11.0456 32.5195 13.4952 34.1563C15.9448 35.793 18.8247 36.6667 21.7708 36.6667C25.4604 36.6667 28.8521 35.3146 31.4646 33.0688L32.0833 33.7104V35.5208L43.5417 46.9563L46.9563 43.5417L35.5208 32.0833ZM21.7708 32.0833C16.0646 32.0833 11.4583 27.4771 11.4583 21.7708C11.4583 16.0646 16.0646 11.4583 21.7708 11.4583C27.4771 11.4583 32.0833 16.0646 32.0833 21.7708C32.0833 27.4771 27.4771 32.0833 21.7708 32.0833Z" fill="white"/>
</svg>
