<svg width="32" height="32" viewBox="0 0 32 32" fill="none" xmlns="http://www.w3.org/2000/svg">
<path d="M6.6665 6.66669H23.9998C25.0607 6.66669 26.0781 7.08811 26.8283 7.83826C27.5784 8.58841 27.9998 9.60582 27.9998 10.6667V22.6667C27.9998 23.7276 27.5784 24.745 26.8283 25.4951C26.0781 26.2453 25.0607 26.6667 23.9998 26.6667H6.6665C5.60564 26.6667 4.58822 26.2453 3.83808 25.4951C3.08793 24.745 2.6665 23.7276 2.6665 22.6667V10.6667C2.6665 9.60582 3.08793 8.58841 3.83808 7.83826C4.58822 7.08811 5.60564 6.66669 6.6665 6.66669V6.66669ZM6.6665 8.00002C6.04086 7.99897 5.43497 8.21904 4.95584 8.62135L15.3332 15.36L25.7105 8.62135C25.2313 8.21924 24.6254 7.9992 23.9998 8.00002H6.6665ZM15.3332 16.9494L4.1785 9.70669C4.06022 10.0129 3.99964 10.3384 3.99984 10.6667V22.6667C3.99984 23.3739 4.28079 24.0522 4.78089 24.5523C5.28098 25.0524 5.95926 25.3334 6.6665 25.3334H23.9998C24.7071 25.3334 25.3854 25.0524 25.8855 24.5523C26.3856 24.0522 26.6665 23.3739 26.6665 22.6667V10.6667C26.6665 10.328 26.6038 10.004 26.4878 9.70669L15.3332 16.948V16.9494Z" fill="black" fill-opacity="0.47"/>
</svg>
